<ttFont>
    <TTGlyph name=".notdef" xMin="99" yMin="-220" xMax="549" yMax="1030">
      <contour>
        <pt x="99" y="1030" on="1"/>
        <pt x="549" y="1030" on="1"/>
        <pt x="549" y="-220" on="1"/>
        <pt x="99" y="-220" on="1"/>
      </contour>
      <contour>
        <pt x="510" y="-181" on="1"/>
        <pt x="510" y="992" on="1"/>
        <pt x="138" y="992" on="1"/>
        <pt x="138" y="-181" on="1"/>
      </contour>
    </TTGlyph>
    <TTGlyph name="A" xMin="10" yMin="0" xMax="551" yMax="740">
      <contour>
        <pt x="10" y="6" on="1"/>
        <pt x="256" y="740" on="1"/>
        <pt x="305" y="740" on="1"/>
        <pt x="551" y="6" on="1"/>
        <pt x="551" y="0" on="1"/>
        <pt x="515" y="0" on="1"/>
        <pt x="432" y="248" on="1"/>
        <pt x="129" y="248" on="1"/>
        <pt x="46" y="0" on="1"/>
        <pt x="10" y="0" on="1"/>
      </contour>
      <contour>
        <pt x="420" y="283" on="1"/>
        <pt x="318" y="587" on="1"/>
        <pt x="281" y="701" on="1"/>
        <pt x="279" y="701" on="1"/>
        <pt x="242" y="587" on="1"/>
        <pt x="141" y="283" on="1"/>
      </contour>
    </TTGlyph>
    <TTGlyph name="A.sc" xMin="16" yMin="0" xMax="487" yMax="577">
      <contour>
        <pt x="16" y="5" on="1"/>
        <pt x="227" y="577" on="1"/>
        <pt x="277" y="577" on="1"/>
        <pt x="487" y="5" on="1"/>
        <pt x="487" y="0" on="1"/>
        <pt x="451" y="0" on="1"/>
        <pt x="381" y="189" on="1"/>
        <pt x="122" y="189" on="1"/>
        <pt x="52" y="0" on="1"/>
        <pt x="16" y="0" on="1"/>
      </contour>
      <contour>
        <pt x="370" y="222" on="1"/>
        <pt x="285" y="453" on="1"/>
        <pt x="253" y="542" on="1"/>
        <pt x="249" y="542" on="1"/>
        <pt x="219" y="453" on="1"/>
        <pt x="132" y="222" on="1"/>
      </contour>
    </TTGlyph>
    <TTGlyph name="AE" xMin="9" yMin="0" xMax="713" yMax="740">
      <contour>
        <pt x="9" y="6" on="1"/>
        <pt x="275" y="740" on="1"/>
        <pt x="704" y="740" on="1"/>
        <pt x="704" y="704" on="1"/>
        <pt x="388" y="704" on="1"/>
        <pt x="402" y="394" on="1"/>
        <pt x="671" y="394" on="1"/>
        <pt x="671" y="358" on="1"/>
        <pt x="403" y="358" on="1"/>
        <pt x="418" y="36" on="1"/>
        <pt x="713" y="36" on="1"/>
        <pt x="713" y="0" on="1"/>
        <pt x="382" y="0" on="1"/>
        <pt x="372" y="248" on="1"/>
        <pt x="134" y="248" on="1"/>
        <pt x="44" y="0" on="1"/>
        <pt x="9" y="0" on="1"/>
      </contour>
      <contour>
        <pt x="147" y="283" on="1"/>
        <pt x="370" y="283" on="1"/>
        <pt x="353" y="704" on="1"/>
        <pt x="301" y="704" on="1"/>
      </contour>
    </TTGlyph>
    <TTGlyph name="AE.sc" xMin="19" yMin="0" xMax="628" yMax="577">
      <contour>
        <pt x="19" y="5" on="1"/>
        <pt x="248" y="577" on="1"/>
        <pt x="621" y="577" on="1"/>
        <pt x="621" y="544" on="1"/>
        <pt x="352" y="544" on="1"/>
        <pt x="363" y="310" on="1"/>
        <pt x="593" y="310" on="1"/>
        <pt x="593" y="276" on="1"/>
        <pt x="365" y="276" on="1"/>
        <pt x="377" y="34" on="1"/>
        <pt x="628" y="34" on="1"/>
        <pt x="628" y="0" on="1"/>
        <pt x="342" y="0" on="1"/>
        <pt x="333" y="189" on="1"/>
        <pt x="131" y="189" on="1"/>
        <pt x="55" y="0" on="1"/>
        <pt x="19" y="0" on="1"/>
      </contour>
      <contour>
        <pt x="144" y="222" on="1"/>
        <pt x="332" y="222" on="1"/>
        <pt x="317" y="544" on="1"/>
        <pt x="274" y="544" on="1"/>
      </contour>
    </TTGlyph>
    <TTGlyph name="AEacute" xMin="9" yMin="0" xMax="713" yMax="916">
      <contour>
        <pt x="441" y="793" on="1"/>
        <pt x="520" y="916" on="1"/>
        <pt x="560" y="916" on="1"/>
        <pt x="474" y="789" on="1"/>
      </contour>
      <contour>
        <pt x="9" y="6" on="1"/>
        <pt x="275" y="740" on="1"/>
        <pt x="704" y="740" on="1"/>
        <pt x="704" y="704" on="1"/>
        <pt x="388" y="704" on="1"/>
        <pt x="402" y="394" on="1"/>
        <pt x="671" y="394" on="1"/>
        <pt x="671" y="358" on="1"/>
        <pt x="403" y="358" on="1"/>
        <pt x="418" y="36" on="1"/>
        <pt x="713" y="36" on="1"/>
        <pt x="713" y="0" on="1"/>
        <pt x="382" y="0" on="1"/>
        <pt x="372" y="248" on="1"/>
        <pt x="134" y="248" on="1"/>
        <pt x="44" y="0" on="1"/>
        <pt x="9" y="0" on="1"/>
      </contour>
      <contour>
        <pt x="147" y="283" on="1"/>
        <pt x="370" y="283" on="1"/>
        <pt x="353" y="704" on="1"/>
        <pt x="301" y="704" on="1"/>
      </contour>
    </TTGlyph>
    <TTGlyph name="AEacute.sc" xMin="19" yMin="0" xMax="628" yMax="719">
      <contour>
        <pt x="19" y="5" on="1"/>
        <pt x="248" y="577" on="1"/>
        <pt x="621" y="577" on="1"/>
        <pt x="621" y="544" on="1"/>
        <pt x="352" y="544" on="1"/>
        <pt x="363" y="310" on="1"/>
        <pt x="593" y="310" on="1"/>
        <pt x="593" y="276" on="1"/>
        <pt x="365" y="276" on="1"/>
        <pt x="377" y="34" on="1"/>
        <pt x="628" y="34" on="1"/>
        <pt x="628" y="0" on="1"/>
        <pt x="342" y="0" on="1"/>
        <pt x="333" y="189" on="1"/>
        <pt x="131" y="189" on="1"/>
        <pt x="55" y="0" on="1"/>
        <pt x="19" y="0" on="1"/>
      </contour>
      <contour>
        <pt x="332" y="222" on="1"/>
        <pt x="317" y="544" on="1"/>
        <pt x="274" y="544" on="1"/>
        <pt x="144" y="222" on="1"/>
      </contour>
      <contour>
        <pt x="389" y="620" on="1"/>
        <pt x="456" y="719" on="1"/>
        <pt x="496" y="719" on="1"/>
        <pt x="421" y="617" on="1"/>
      </contour>
    </TTGlyph>
    <TTGlyph name="Aacute" xMin="10" yMin="0" xMax="551" yMax="916">
      <contour>
        <pt x="10" y="6" on="1"/>
        <pt x="256" y="740" on="1"/>
        <pt x="305" y="740" on="1"/>
        <pt x="551" y="6" on="1"/>
        <pt x="551" y="0" on="1"/>
        <pt x="515" y="0" on="1"/>
        <pt x="432" y="248" on="1"/>
        <pt x="129" y="248" on="1"/>
        <pt x="46" y="0" on="1"/>
        <pt x="10" y="0" on="1"/>
      </contour>
      <contour>
        <pt x="420" y="283" on="1"/>
        <pt x="318" y="587" on="1"/>
        <pt x="281" y="701" on="1"/>
        <pt x="279" y="701" on="1"/>
        <pt x="242" y="587" on="1"/>
        <pt x="141" y="283" on="1"/>
      </contour>
      <contour>
        <pt x="260" y="793" on="1"/>
        <pt x="339" y="916" on="1"/>
        <pt x="379" y="916" on="1"/>
        <pt x="293" y="789" on="1"/>
      </contour>
    </TTGlyph>
    <TTGlyph name="Aacute.sc" xMin="16" yMin="0" xMax="487" yMax="719">
      <contour>
        <pt x="16" y="5" on="1"/>
        <pt x="227" y="577" on="1"/>
        <pt x="277" y="577" on="1"/>
        <pt x="487" y="5" on="1"/>
        <pt x="487" y="0" on="1"/>
        <pt x="451" y="0" on="1"/>
        <pt x="381" y="189" on="1"/>
        <pt x="122" y="189" on="1"/>
        <pt x="52" y="0" on="1"/>
        <pt x="16" y="0" on="1"/>
      </contour>
      <contour>
        <pt x="370" y="222" on="1"/>
        <pt x="285" y="453" on="1"/>
        <pt x="253" y="542" on="1"/>
        <pt x="249" y="542" on="1"/>
        <pt x="219" y="453" on="1"/>
        <pt x="132" y="222" on="1"/>
      </contour>
      <contour>
        <pt x="232" y="620" on="1"/>
        <pt x="299" y="719" on="1"/>
        <pt x="338" y="719" on="1"/>
        <pt x="264" y="617" on="1"/>
      </contour>
    </TTGlyph>
    <TTGlyph name="Abreve" xMin="10" yMin="0" xMax="551" yMax="948">
      <contour>
        <pt x="10" y="6" on="1"/>
        <pt x="256" y="740" on="1"/>
        <pt x="305" y="740" on="1"/>
        <pt x="551" y="6" on="1"/>
        <pt x="551" y="0" on="1"/>
        <pt x="515" y="0" on="1"/>
        <pt x="432" y="248" on="1"/>
        <pt x="129" y="248" on="1"/>
        <pt x="46" y="0" on="1"/>
        <pt x="10" y="0" on="1"/>
      </contour>
      <contour>
        <pt x="420" y="283" on="1"/>
        <pt x="318" y="587" on="1"/>
        <pt x="281" y="701" on="1"/>
        <pt x="279" y="701" on="1"/>
        <pt x="242" y="587" on="1"/>
        <pt x="141" y="283" on="1"/>
      </contour>
      <contour>
        <pt x="281" y="816" on="1"/>
        <pt x="214" y="816" on="0"/>
        <pt x="138" y="886" on="0"/>
        <pt x="138" y="948" on="1"/>
        <pt x="173" y="948" on="1"/>
        <pt x="173" y="902" on="0"/>
        <pt x="230" y="850" on="0"/>
        <pt x="281" y="850" on="1"/>
        <pt x="332" y="850" on="0"/>
        <pt x="389" y="902" on="0"/>
        <pt x="389" y="948" on="1"/>
        <pt x="425" y="948" on="1"/>
        <pt x="425" y="886" on="0"/>
        <pt x="349" y="816" on="0"/>
      </contour>
    </TTGlyph>
    <TTGlyph name="Abreve.sc" xMin="16" yMin="0" xMax="487" yMax="742">
      <contour>
        <pt x="253" y="635" on="1"/>
        <pt x="194" y="635" on="0"/>
        <pt x="127" y="692" on="0"/>
        <pt x="127" y="742" on="1"/>
        <pt x="160" y="742" on="1"/>
        <pt x="160" y="705" on="0"/>
        <pt x="209" y="665" on="0"/>
        <pt x="253" y="665" on="1"/>
        <pt x="297" y="665" on="0"/>
        <pt x="345" y="705" on="0"/>
        <pt x="345" y="742" on="1"/>
        <pt x="378" y="742" on="1"/>
        <pt x="378" y="692" on="0"/>
        <pt x="312" y="635" on="0"/>
      </contour>
      <contour>
        <pt x="16" y="5" on="1"/>
        <pt x="227" y="577" on="1"/>
        <pt x="277" y="577" on="1"/>
        <pt x="487" y="5" on="1"/>
        <pt x="487" y="0" on="1"/>
        <pt x="451" y="0" on="1"/>
        <pt x="381" y="189" on="1"/>
        <pt x="122" y="189" on="1"/>
        <pt x="52" y="0" on="1"/>
        <pt x="16" y="0" on="1"/>
      </contour>
      <contour>
        <pt x="370" y="222" on="1"/>
        <pt x="285" y="453" on="1"/>
        <pt x="253" y="542" on="1"/>
        <pt x="249" y="542" on="1"/>
        <pt x="219" y="453" on="1"/>
        <pt x="132" y="222" on="1"/>
      </contour>
    </TTGlyph>
    <TTGlyph name="Acircumflex" xMin="10" yMin="0" xMax="551" yMax="933">
      <contour>
        <pt x="10" y="6" on="1"/>
        <pt x="256" y="740" on="1"/>
        <pt x="305" y="740" on="1"/>
        <pt x="551" y="6" on="1"/>
        <pt x="551" y="0" on="1"/>
        <pt x="515" y="0" on="1"/>
        <pt x="432" y="248" on="1"/>
        <pt x="129" y="248" on="1"/>
        <pt x="46" y="0" on="1"/>
        <pt x="10" y="0" on="1"/>
      </contour>
      <contour>
        <pt x="420" y="283" on="1"/>
        <pt x="318" y="587" on="1"/>
        <pt x="281" y="701" on="1"/>
        <pt x="279" y="701" on="1"/>
        <pt x="242" y="587" on="1"/>
        <pt x="141" y="283" on="1"/>
      </contour>
      <contour>
        <pt x="152" y="861" on="1"/>
        <pt x="281" y="933" on="1"/>
        <pt x="410" y="861" on="1"/>
        <pt x="410" y="819" on="1"/>
        <pt x="281" y="891" on="1"/>
        <pt x="152" y="819" on="1"/>
      </contour>
    </TTGlyph>
    <TTGlyph name="Acircumflex.sc" xMin="16" yMin="0" xMax="487" yMax="730">
      <contour>
        <pt x="16" y="5" on="1"/>
        <pt x="227" y="577" on="1"/>
        <pt x="277" y="577" on="1"/>
        <pt x="487" y="5" on="1"/>
        <pt x="487" y="0" on="1"/>
        <pt x="451" y="0" on="1"/>
        <pt x="381" y="189" on="1"/>
        <pt x="122" y="189" on="1"/>
        <pt x="52" y="0" on="1"/>
        <pt x="16" y="0" on="1"/>
      </contour>
      <contour>
        <pt x="370" y="222" on="1"/>
        <pt x="285" y="453" on="1"/>
        <pt x="253" y="542" on="1"/>
        <pt x="249" y="542" on="1"/>
        <pt x="219" y="453" on="1"/>
        <pt x="132" y="222" on="1"/>
      </contour>
      <contour>
        <pt x="139" y="674" on="1"/>
        <pt x="252" y="730" on="1"/>
        <pt x="365" y="674" on="1"/>
        <pt x="365" y="637" on="1"/>
        <pt x="251" y="693" on="1"/>
        <pt x="139" y="637" on="1"/>
      </contour>
    </TTGlyph>
    <TTGlyph name="Adblgrave" xMin="10" yMin="0" xMax="551" yMax="913">
      <contour>
        <pt x="10" y="6" on="1"/>
        <pt x="256" y="740" on="1"/>
        <pt x="305" y="740" on="1"/>
        <pt x="551" y="6" on="1"/>
        <pt x="551" y="0" on="1"/>
        <pt x="515" y="0" on="1"/>
        <pt x="432" y="248" on="1"/>
        <pt x="129" y="248" on="1"/>
        <pt x="46" y="0" on="1"/>
        <pt x="10" y="0" on="1"/>
      </contour>
      <contour>
        <pt x="420" y="283" on="1"/>
        <pt x="318" y="587" on="1"/>
        <pt x="281" y="701" on="1"/>
        <pt x="279" y="701" on="1"/>
        <pt x="242" y="587" on="1"/>
        <pt x="141" y="283" on="1"/>
      </contour>
      <contour>
        <pt x="201" y="787" on="1"/>
        <pt x="116" y="913" on="1"/>
        <pt x="155" y="913" on="1"/>
        <pt x="234" y="801" on="1"/>
      </contour>
      <contour>
        <pt x="329" y="787" on="1"/>
        <pt x="244" y="913" on="1"/>
        <pt x="283" y="913" on="1"/>
        <pt x="362" y="801" on="1"/>
      </contour>
    </TTGlyph>
    <TTGlyph name="Adblgrave.sc" xMin="16" yMin="0" xMax="487" yMax="717">
      <contour>
        <pt x="16" y="5" on="1"/>
        <pt x="227" y="577" on="1"/>
        <pt x="277" y="577" on="1"/>
        <pt x="487" y="5" on="1"/>
        <pt x="487" y="0" on="1"/>
        <pt x="451" y="0" on="1"/>
        <pt x="381" y="189" on="1"/>
        <pt x="122" y="189" on="1"/>
        <pt x="52" y="0" on="1"/>
        <pt x="16" y="0" on="1"/>
      </contour>
      <contour>
        <pt x="370" y="222" on="1"/>
        <pt x="285" y="453" on="1"/>
        <pt x="253" y="542" on="1"/>
        <pt x="249" y="542" on="1"/>
        <pt x="219" y="453" on="1"/>
        <pt x="132" y="222" on="1"/>
      </contour>
      <contour>
        <pt x="108" y="717" on="1"/>
        <pt x="146" y="717" on="1"/>
        <pt x="213" y="625" on="1"/>
        <pt x="182" y="614" on="1"/>
      </contour>
      <contour>
        <pt x="220" y="717" on="1"/>
        <pt x="257" y="717" on="1"/>
        <pt x="324" y="625" on="1"/>
        <pt x="294" y="614" on="1"/>
      </contour>
    </TTGlyph>
    <TTGlyph name="Adieresis" xMin="10" yMin="0" xMax="551" yMax="881">
      <contour>
        <pt x="10" y="6" on="1"/>
        <pt x="256" y="740" on="1"/>
        <pt x="305" y="740" on="1"/>
        <pt x="551" y="6" on="1"/>
        <pt x="551" y="0" on="1"/>
        <pt x="515" y="0" on="1"/>
        <pt x="432" y="248" on="1"/>
        <pt x="129" y="248" on="1"/>
        <pt x="46" y="0" on="1"/>
        <pt x="10" y="0" on="1"/>
      </contour>
      <contour>
        <pt x="420" y="283" on="1"/>
        <pt x="318" y="587" on="1"/>
        <pt x="281" y="701" on="1"/>
        <pt x="279" y="701" on="1"/>
        <pt x="242" y="587" on="1"/>
        <pt x="141" y="283" on="1"/>
      </contour>
      <contour>
        <pt x="184" y="819" on="1"/>
        <pt x="170" y="819" on="0"/>
        <pt x="153" y="833" on="0"/>
        <pt x="153" y="850" on="1"/>
        <pt x="153" y="867" on="0"/>
        <pt x="170" y="881" on="0"/>
        <pt x="184" y="881" on="1"/>
        <pt x="197" y="881" on="0"/>
        <pt x="216" y="866" on="0"/>
        <pt x="216" y="850" on="1"/>
        <pt x="216" y="833" on="0"/>
        <pt x="197" y="819" on="0"/>
      </contour>
      <contour>
        <pt x="377" y="819" on="1"/>
        <pt x="363" y="819" on="0"/>
        <pt x="345" y="833" on="0"/>
        <pt x="345" y="850" on="1"/>
        <pt x="345" y="867" on="0"/>
        <pt x="363" y="881" on="0"/>
        <pt x="377" y="881" on="1"/>
        <pt x="389" y="881" on="0"/>
        <pt x="408" y="866" on="0"/>
        <pt x="408" y="850" on="1"/>
        <pt x="408" y="833" on="0"/>
        <pt x="389" y="819" on="0"/>
      </contour>
    </TTGlyph>
    <TTGlyph name="Adieresis.sc" xMin="16" yMin="0" xMax="487" yMax="694">
      <contour>
        <pt x="166" y="638" on="1"/>
        <pt x="154" y="638" on="0"/>
        <pt x="137" y="652" on="0"/>
        <pt x="137" y="666" on="1"/>
        <pt x="137" y="681" on="0"/>
        <pt x="154" y="694" on="0"/>
        <pt x="166" y="694" on="1"/>
        <pt x="179" y="694" on="0"/>
        <pt x="196" y="680" on="0"/>
        <pt x="196" y="666" on="1"/>
        <pt x="196" y="652" on="0"/>
        <pt x="179" y="638" on="0"/>
      </contour>
      <contour>
        <pt x="337" y="638" on="1"/>
        <pt x="324" y="638" on="0"/>
        <pt x="307" y="652" on="0"/>
        <pt x="307" y="666" on="1"/>
        <pt x="307" y="681" on="0"/>
        <pt x="324" y="694" on="0"/>
        <pt x="337" y="694" on="1"/>
        <pt x="349" y="694" on="0"/>
        <pt x="366" y="680" on="0"/>
        <pt x="366" y="666" on="1"/>
        <pt x="366" y="652" on="0"/>
        <pt x="349" y="638" on="0"/>
      </contour>
      <contour>
        <pt x="16" y="5" on="1"/>
        <pt x="227" y="577" on="1"/>
        <pt x="277" y="577" on="1"/>
        <pt x="487" y="5" on="1"/>
        <pt x="487" y="0" on="1"/>
        <pt x="451" y="0" on="1"/>
        <pt x="381" y="189" on="1"/>
        <pt x="122" y="189" on="1"/>
        <pt x="52" y="0" on="1"/>
        <pt x="16" y="0" on="1"/>
      </contour>
      <contour>
        <pt x="370" y="222" on="1"/>
        <pt x="285" y="453" on="1"/>
        <pt x="253" y="542" on="1"/>
        <pt x="249" y="542" on="1"/>
        <pt x="219" y="453" on="1"/>
        <pt x="132" y="222" on="1"/>
      </contour>
    </TTGlyph>
    <TTGlyph name="Agrave" xMin="10" yMin="0" xMax="551" yMax="916">
      <contour>
        <pt x="10" y="6" on="1"/>
        <pt x="256" y="740" on="1"/>
        <pt x="305" y="740" on="1"/>
        <pt x="551" y="6" on="1"/>
        <pt x="551" y="0" on="1"/>
        <pt x="515" y="0" on="1"/>
        <pt x="432" y="248" on="1"/>
        <pt x="129" y="248" on="1"/>
        <pt x="46" y="0" on="1"/>
        <pt x="10" y="0" on="1"/>
      </contour>
      <contour>
        <pt x="420" y="283" on="1"/>
        <pt x="318" y="587" on="1"/>
        <pt x="281" y="701" on="1"/>
        <pt x="279" y="701" on="1"/>
        <pt x="242" y="587" on="1"/>
        <pt x="141" y="283" on="1"/>
      </contour>
      <contour>
        <pt x="262" y="789" on="1"/>
        <pt x="177" y="916" on="1"/>
        <pt x="217" y="916" on="1"/>
        <pt x="295" y="803" on="1"/>
      </contour>
    </TTGlyph>
    <TTGlyph name="Agrave.sc" xMin="16" yMin="0" xMax="487" yMax="719">
      <contour>
        <pt x="16" y="5" on="1"/>
        <pt x="227" y="577" on="1"/>
        <pt x="277" y="577" on="1"/>
        <pt x="487" y="5" on="1"/>
        <pt x="487" y="0" on="1"/>
        <pt x="451" y="0" on="1"/>
        <pt x="381" y="189" on="1"/>
        <pt x="122" y="189" on="1"/>
        <pt x="52" y="0" on="1"/>
        <pt x="16" y="0" on="1"/>
      </contour>
      <contour>
        <pt x="370" y="222" on="1"/>
        <pt x="285" y="453" on="1"/>
        <pt x="253" y="542" on="1"/>
        <pt x="249" y="542" on="1"/>
        <pt x="219" y="453" on="1"/>
        <pt x="132" y="222" on="1"/>
      </contour>
      <contour>
        <pt x="234" y="617" on="1"/>
        <pt x="160" y="719" on="1"/>
        <pt x="200" y="719" on="1"/>
        <pt x="266" y="627" on="1"/>
      </contour>
    </TTGlyph>
    <TTGlyph name="Ainvertedbreve" xMin="10" yMin="0" xMax="551" yMax="956">
      <contour>
        <pt x="10" y="6" on="1"/>
        <pt x="256" y="740" on="1"/>
        <pt x="305" y="740" on="1"/>
        <pt x="551" y="6" on="1"/>
        <pt x="551" y="0" on="1"/>
        <pt x="515" y="0" on="1"/>
        <pt x="432" y="248" on="1"/>
        <pt x="129" y="248" on="1"/>
        <pt x="46" y="0" on="1"/>
        <pt x="10" y="0" on="1"/>
      </contour>
      <contour>
        <pt x="420" y="283" on="1"/>
        <pt x="318" y="587" on="1"/>
        <pt x="281" y="701" on="1"/>
        <pt x="279" y="701" on="1"/>
        <pt x="242" y="587" on="1"/>
        <pt x="141" y="283" on="1"/>
      </contour>
      <contour>
        <pt x="388" y="823" on="1"/>
        <pt x="388" y="869" on="0"/>
        <pt x="331" y="921" on="0"/>
        <pt x="280" y="921" on="1"/>
        <pt x="229" y="921" on="0"/>
        <pt x="172" y="869" on="0"/>
        <pt x="172" y="823" on="1"/>
        <pt x="137" y="823" on="1"/>
        <pt x="137" y="886" on="0"/>
        <pt x="213" y="956" on="0"/>
        <pt x="280" y="956" on="1"/>
        <pt x="348" y="956" on="0"/>
        <pt x="424" y="886" on="0"/>
        <pt x="424" y="823" on="1"/>
      </contour>
    </TTGlyph>
    <TTGlyph name="Ainvertedbreve.sc" xMin="16" yMin="0" xMax="487" yMax="747">
      <contour>
        <pt x="127" y="641" on="1"/>
        <pt x="127" y="690" on="0"/>
        <pt x="192" y="747" on="0"/>
        <pt x="251" y="747" on="1"/>
        <pt x="311" y="747" on="0"/>
        <pt x="376" y="690" on="0"/>
        <pt x="376" y="641" on="1"/>
        <pt x="343" y="641" on="1"/>
        <pt x="343" y="677" on="0"/>
        <pt x="295" y="717" on="0"/>
        <pt x="251" y="717" on="1"/>
        <pt x="208" y="717" on="0"/>
        <pt x="160" y="677" on="0"/>
        <pt x="160" y="641" on="1"/>
      </contour>
      <contour>
        <pt x="16" y="5" on="1"/>
        <pt x="227" y="577" on="1"/>
        <pt x="277" y="577" on="1"/>
        <pt x="487" y="5" on="1"/>
        <pt x="487" y="0" on="1"/>
        <pt x="451" y="0" on="1"/>
        <pt x="381" y="189" on="1"/>
        <pt x="122" y="189" on="1"/>
        <pt x="52" y="0" on="1"/>
        <pt x="16" y="0" on="1"/>
      </contour>
      <contour>
        <pt x="370" y="222" on="1"/>
        <pt x="285" y="453" on="1"/>
        <pt x="253" y="542" on="1"/>
        <pt x="249" y="542" on="1"/>
        <pt x="219" y="453" on="1"/>
        <pt x="132" y="222" on="1"/>
      </contour>
    </TTGlyph>
    <TTGlyph name="Amacron" xMin="10" yMin="0" xMax="551" yMax="877">
      <contour>
        <pt x="10" y="6" on="1"/>
        <pt x="256" y="740" on="1"/>
        <pt x="305" y="740" on="1"/>
        <pt x="551" y="6" on="1"/>
        <pt x="551" y="0" on="1"/>
        <pt x="515" y="0" on="1"/>
        <pt x="432" y="248" on="1"/>
        <pt x="129" y="248" on="1"/>
        <pt x="46" y="0" on="1"/>
        <pt x="10" y="0" on="1"/>
      </contour>
      <contour>
        <pt x="420" y="283" on="1"/>
        <pt x="318" y="587" on="1"/>
        <pt x="281" y="701" on="1"/>
        <pt x="279" y="701" on="1"/>
        <pt x="242" y="587" on="1"/>
        <pt x="141" y="283" on="1"/>
      </contour>
      <contour>
        <pt x="157" y="877" on="1"/>
        <pt x="390" y="877" on="1"/>
        <pt x="390" y="842" on="1"/>
        <pt x="157" y="842" on="1"/>
      </contour>
    </TTGlyph>
    <TTGlyph name="Amacron.sc" xMin="16" yMin="0" xMax="487" yMax="688">
      <contour>
        <pt x="16" y="5" on="1"/>
        <pt x="227" y="577" on="1"/>
        <pt x="277" y="577" on="1"/>
        <pt x="487" y="5" on="1"/>
        <pt x="487" y="0" on="1"/>
        <pt x="451" y="0" on="1"/>
        <pt x="381" y="189" on="1"/>
        <pt x="122" y="189" on="1"/>
        <pt x="52" y="0" on="1"/>
        <pt x="16" y="0" on="1"/>
      </contour>
      <contour>
        <pt x="370" y="222" on="1"/>
        <pt x="285" y="453" on="1"/>
        <pt x="253" y="542" on="1"/>
        <pt x="249" y="542" on="1"/>
        <pt x="219" y="453" on="1"/>
        <pt x="132" y="222" on="1"/>
      </contour>
      <contour>
        <pt x="143" y="688" on="1"/>
        <pt x="350" y="688" on="1"/>
        <pt x="350" y="656" on="1"/>
        <pt x="143" y="656" on="1"/>
      </contour>
    </TTGlyph>
    <TTGlyph name="Aogonek" xMin="10" yMin="-220" xMax="551" yMax="740">
      <contour>
        <pt x="497" y="-220" on="1"/>
        <pt x="459" y="-220" on="0"/>
        <pt x="418" y="-178" on="0"/>
        <pt x="418" y="-140" on="1"/>
        <pt x="418" y="-100" on="0"/>
        <pt x="467" y="-32" on="0"/>
        <pt x="521" y="0" on="1"/>
        <pt x="515" y="0" on="1"/>
        <pt x="432" y="248" on="1"/>
        <pt x="129" y="248" on="1"/>
        <pt x="46" y="0" on="1"/>
        <pt x="10" y="0" on="1"/>
        <pt x="10" y="6" on="1"/>
        <pt x="256" y="740" on="1"/>
        <pt x="305" y="740" on="1"/>
        <pt x="551" y="6" on="1"/>
        <pt x="551" y="-20" on="1"/>
        <pt x="498" y="-47" on="0"/>
        <pt x="453" y="-102" on="0"/>
        <pt x="453" y="-138" on="1"/>
        <pt x="453" y="-164" on="0"/>
        <pt x="477" y="-186" on="0"/>
        <pt x="503" y="-186" on="1"/>
        <pt x="529" y="-186" on="0"/>
        <pt x="550" y="-176" on="1"/>
        <pt x="550" y="-208" on="1"/>
        <pt x="527" y="-220" on="0"/>
      </contour>
      <contour>
        <pt x="420" y="283" on="1"/>
        <pt x="318" y="587" on="1"/>
        <pt x="281" y="701" on="1"/>
        <pt x="279" y="701" on="1"/>
        <pt x="242" y="587" on="1"/>
        <pt x="141" y="283" on="1"/>
      </contour>
    </TTGlyph>
    <TTGlyph name="Aogonek.sc" xMin="15" yMin="-170" xMax="486" yMax="577">
      <contour>
        <pt x="439" y="-170" on="1"/>
        <pt x="368" y="-170" on="0"/>
        <pt x="368" y="-106" on="1"/>
        <pt x="368" y="-76" on="0"/>
        <pt x="407" y="-26" on="0"/>
        <pt x="452" y="0" on="1"/>
        <pt x="450" y="0" on="1"/>
        <pt x="380" y="189" on="1"/>
        <pt x="121" y="189" on="1"/>
        <pt x="51" y="0" on="1"/>
        <pt x="15" y="0" on="1"/>
        <pt x="15" y="5" on="1"/>
        <pt x="226" y="577" on="1"/>
        <pt x="276" y="577" on="1"/>
        <pt x="486" y="5" on="1"/>
        <pt x="486" y="-14" on="1"/>
        <pt x="447" y="-29" on="0"/>
        <pt x="401" y="-76" on="0"/>
        <pt x="401" y="-105" on="1"/>
        <pt x="401" y="-140" on="0"/>
        <pt x="443" y="-140" on="1"/>
        <pt x="468" y="-140" on="0"/>
        <pt x="485" y="-132" on="1"/>
        <pt x="485" y="-161" on="1"/>
        <pt x="465" y="-170" on="0"/>
      </contour>
      <contour>
        <pt x="369" y="222" on="1"/>
        <pt x="284" y="458" on="1"/>
        <pt x="252" y="542" on="1"/>
        <pt x="248" y="542" on="1"/>
        <pt x="218" y="458" on="1"/>
        <pt x="131" y="222" on="1"/>
      </contour>
    </TTGlyph>
    <TTGlyph name="Aring" xMin="10" yMin="0" xMax="551" yMax="934">
      <contour>
        <pt x="10" y="6" on="1"/>
        <pt x="254" y="734" on="1"/>
        <pt x="221" y="743" on="0"/>
        <pt x="185" y="797" on="0"/>
        <pt x="185" y="832" on="1"/>
        <pt x="185" y="875" on="0"/>
        <pt x="236" y="934" on="0"/>
        <pt x="281" y="934" on="1"/>
        <pt x="327" y="934" on="0"/>
        <pt x="378" y="875" on="0"/>
        <pt x="378" y="832" on="1"/>
        <pt x="378" y="796" on="0"/>
        <pt x="340" y="742" on="0"/>
        <pt x="307" y="734" on="1"/>
        <pt x="551" y="6" on="1"/>
        <pt x="551" y="0" on="1"/>
        <pt x="515" y="0" on="1"/>
        <pt x="432" y="248" on="1"/>
        <pt x="129" y="248" on="1"/>
        <pt x="46" y="0" on="1"/>
        <pt x="10" y="0" on="1"/>
      </contour>
      <contour>
        <pt x="420" y="283" on="1"/>
        <pt x="318" y="587" on="1"/>
        <pt x="281" y="701" on="1"/>
        <pt x="279" y="701" on="1"/>
        <pt x="242" y="587" on="1"/>
        <pt x="141" y="283" on="1"/>
      </contour>
      <contour>
        <pt x="281" y="765" on="1"/>
        <pt x="310" y="765" on="0"/>
        <pt x="343" y="803" on="0"/>
        <pt x="343" y="832" on="1"/>
        <pt x="343" y="861" on="0"/>
        <pt x="311" y="900" on="0"/>
        <pt x="281" y="900" on="1"/>
        <pt x="251" y="900" on="0"/>
        <pt x="220" y="861" on="0"/>
        <pt x="220" y="832" on="1"/>
        <pt x="220" y="803" on="0"/>
        <pt x="252" y="765" on="0"/>
      </contour>
    </TTGlyph>
    <TTGlyph name="Aring.sc" xMin="16" yMin="0" xMax="487" yMax="777">
      <contour>
        <pt x="16" y="5" on="1"/>
        <pt x="227" y="577" on="1"/>
        <pt x="277" y="577" on="1"/>
        <pt x="487" y="5" on="1"/>
        <pt x="487" y="0" on="1"/>
        <pt x="451" y="0" on="1"/>
        <pt x="381" y="189" on="1"/>
        <pt x="122" y="189" on="1"/>
        <pt x="52" y="0" on="1"/>
        <pt x="16" y="0" on="1"/>
      </contour>
      <contour>
        <pt x="370" y="222" on="1"/>
        <pt x="285" y="453" on="1"/>
        <pt x="253" y="542" on="1"/>
        <pt x="249" y="542" on="1"/>
        <pt x="219" y="453" on="1"/>
        <pt x="132" y="222" on="1"/>
      </contour>
      <contour>
        <pt x="251" y="617" on="1"/>
        <pt x="212" y="617" on="0"/>
        <pt x="167" y="664" on="0"/>
        <pt x="167" y="697" on="1"/>
        <pt x="167" y="731" on="0"/>
        <pt x="211" y="777" on="0"/>
        <pt x="251" y="777" on="1"/>
        <pt x="290" y="777" on="0"/>
        <pt x="335" y="731" on="0"/>
        <pt x="335" y="697" on="1"/>
        <pt x="335" y="664" on="0"/>
        <pt x="290" y="617" on="0"/>
      </contour>
      <contour>
        <pt x="251" y="645" on="1"/>
        <pt x="277" y="645" on="0"/>
        <pt x="305" y="674" on="0"/>
        <pt x="305" y="697" on="1"/>
        <pt x="305" y="720" on="0"/>
        <pt x="277" y="749" on="0"/>
        <pt x="251" y="749" on="1"/>
        <pt x="225" y="749" on="0"/>
        <pt x="197" y="720" on="0"/>
        <pt x="197" y="697" on="1"/>
        <pt x="197" y="674" on="0"/>
        <pt x="225" y="645" on="0"/>
      </contour>
    </TTGlyph>
    <TTGlyph name="Aringacute" xMin="11" yMin="0" xMax="551" yMax="924">
      <contour>
        <pt x="11" y="6" on="1"/>
        <pt x="225" y="641" on="1"/>
        <pt x="205" y="655" on="0"/>
        <pt x="183" y="700" on="0"/>
        <pt x="183" y="727" on="1"/>
        <pt x="183" y="766" on="0"/>
        <pt x="225" y="824" on="0"/>
        <pt x="265" y="829" on="1"/>
        <pt x="332" y="924" on="1"/>
        <pt x="372" y="924" on="1"/>
        <pt x="305" y="826" on="1"/>
        <pt x="340" y="818" on="0"/>
        <pt x="377" y="763" on="0"/>
        <pt x="377" y="727" on="1"/>
        <pt x="377" y="672" on="0"/>
        <pt x="337" y="643" on="1"/>
        <pt x="551" y="6" on="1"/>
        <pt x="551" y="0" on="1"/>
        <pt x="516" y="0" on="1"/>
        <pt x="433" y="248" on="1"/>
        <pt x="130" y="248" on="1"/>
        <pt x="47" y="0" on="1"/>
        <pt x="11" y="0" on="1"/>
      </contour>
      <contour>
        <pt x="280" y="660" on="1"/>
        <pt x="309" y="660" on="0"/>
        <pt x="342" y="698" on="0"/>
        <pt x="342" y="727" on="1"/>
        <pt x="342" y="756" on="0"/>
        <pt x="310" y="795" on="0"/>
        <pt x="280" y="795" on="1"/>
        <pt x="250" y="795" on="0"/>
        <pt x="218" y="756" on="0"/>
        <pt x="218" y="727" on="1"/>
        <pt x="218" y="698" on="0"/>
        <pt x="250" y="660" on="0"/>
      </contour>
      <contour>
        <pt x="420" y="283" on="1"/>
        <pt x="319" y="587" on="1"/>
        <pt x="306" y="628" on="1"/>
        <pt x="257" y="628" on="1"/>
        <pt x="243" y="587" on="1"/>
        <pt x="142" y="283" on="1"/>
      </contour>
    </TTGlyph>
    <TTGlyph name="Aringacute.sc" xMin="16" yMin="0" xMax="487" yMax="728">
      <contour>
        <pt x="16" y="5" on="1"/>
        <pt x="200" y="503" on="1"/>
        <pt x="182" y="514" on="0"/>
        <pt x="164" y="549" on="0"/>
        <pt x="164" y="570" on="1"/>
        <pt x="164" y="602" on="0"/>
        <pt x="201" y="647" on="0"/>
        <pt x="236" y="652" on="1"/>
        <pt x="293" y="728" on="1"/>
        <pt x="332" y="728" on="1"/>
        <pt x="274" y="649" on="1"/>
        <pt x="304" y="642" on="0"/>
        <pt x="337" y="599" on="0"/>
        <pt x="337" y="570" on="1"/>
        <pt x="337" y="527" on="0"/>
        <pt x="303" y="504" on="1"/>
        <pt x="487" y="5" on="1"/>
        <pt x="487" y="0" on="1"/>
        <pt x="451" y="0" on="1"/>
        <pt x="381" y="189" on="1"/>
        <pt x="122" y="189" on="1"/>
        <pt x="52" y="0" on="1"/>
        <pt x="16" y="0" on="1"/>
      </contour>
      <contour>
        <pt x="250" y="518" on="1"/>
        <pt x="276" y="518" on="0"/>
        <pt x="305" y="547" on="0"/>
        <pt x="305" y="570" on="1"/>
        <pt x="305" y="593" on="0"/>
        <pt x="276" y="623" on="0"/>
        <pt x="250" y="623" on="1"/>
        <pt x="224" y="623" on="0"/>
        <pt x="196" y="593" on="0"/>
        <pt x="196" y="570" on="1"/>
        <pt x="196" y="547" on="0"/>
        <pt x="224" y="518" on="0"/>
      </contour>
      <contour>
        <pt x="370" y="222" on="1"/>
        <pt x="285" y="453" on="1"/>
        <pt x="272" y="490" on="1"/>
        <pt x="231" y="489" on="1"/>
        <pt x="219" y="453" on="1"/>
        <pt x="132" y="222" on="1"/>
      </contour>
    </TTGlyph>
    <TTGlyph name="Atilde" xMin="10" yMin="0" xMax="551" yMax="904">
      <contour>
        <pt x="10" y="6" on="1"/>
        <pt x="256" y="740" on="1"/>
        <pt x="305" y="740" on="1"/>
        <pt x="551" y="6" on="1"/>
        <pt x="551" y="0" on="1"/>
        <pt x="515" y="0" on="1"/>
        <pt x="432" y="248" on="1"/>
        <pt x="129" y="248" on="1"/>
        <pt x="46" y="0" on="1"/>
        <pt x="10" y="0" on="1"/>
      </contour>
      <contour>
        <pt x="420" y="283" on="1"/>
        <pt x="318" y="587" on="1"/>
        <pt x="281" y="701" on="1"/>
        <pt x="279" y="701" on="1"/>
        <pt x="242" y="587" on="1"/>
        <pt x="141" y="283" on="1"/>
      </contour>
      <contour>
        <pt x="128" y="854" on="1"/>
        <pt x="145" y="874" on="0"/>
        <pt x="195" y="904" on="0"/>
        <pt x="220" y="904" on="1"/>
        <pt x="240" y="904" on="0"/>
        <pt x="272" y="891" on="0"/>
        <pt x="302" y="874" on="0"/>
        <pt x="332" y="861" on="0"/>
        <pt x="350" y="861" on="1"/>
        <pt x="368" y="861" on="0"/>
        <pt x="401" y="882" on="0"/>
        <pt x="413" y="900" on="1"/>
        <pt x="440" y="879" on="1"/>
        <pt x="426" y="856" on="0"/>
        <pt x="375" y="826" on="0"/>
        <pt x="349" y="826" on="1"/>
        <pt x="330" y="826" on="0"/>
        <pt x="297" y="839" on="0"/>
        <pt x="267" y="856" on="0"/>
        <pt x="237" y="869" on="0"/>
        <pt x="220" y="869" on="1"/>
        <pt x="202" y="869" on="0"/>
        <pt x="166" y="847" on="0"/>
        <pt x="152" y="830" on="1"/>
      </contour>
    </TTGlyph>
    <TTGlyph name="Atilde.sc" xMin="16" yMin="0" xMax="487" yMax="709">
      <contour>
        <pt x="16" y="5" on="1"/>
        <pt x="227" y="577" on="1"/>
        <pt x="277" y="577" on="1"/>
        <pt x="487" y="5" on="1"/>
        <pt x="487" y="0" on="1"/>
        <pt x="451" y="0" on="1"/>
        <pt x="381" y="189" on="1"/>
        <pt x="122" y="189" on="1"/>
        <pt x="52" y="0" on="1"/>
        <pt x="16" y="0" on="1"/>
      </contour>
      <contour>
        <pt x="370" y="222" on="1"/>
        <pt x="285" y="453" on="1"/>
        <pt x="253" y="542" on="1"/>
        <pt x="249" y="542" on="1"/>
        <pt x="219" y="453" on="1"/>
        <pt x="132" y="222" on="1"/>
      </contour>
      <contour>
        <pt x="118" y="666" on="1"/>
        <pt x="134" y="684" on="0"/>
        <pt x="178" y="709" on="0"/>
        <pt x="200" y="709" on="1"/>
        <pt x="217" y="709" on="0"/>
        <pt x="246" y="699" on="0"/>
        <pt x="272" y="686" on="0"/>
        <pt x="299" y="676" on="0"/>
        <pt x="314" y="676" on="1"/>
        <pt x="346" y="676" on="0"/>
        <pt x="370" y="706" on="1"/>
        <pt x="393" y="690" on="1"/>
        <pt x="379" y="669" on="0"/>
        <pt x="334" y="644" on="0"/>
        <pt x="311" y="644" on="1"/>
        <pt x="295" y="644" on="0"/>
        <pt x="267" y="655" on="0"/>
        <pt x="240" y="667" on="0"/>
        <pt x="214" y="678" on="0"/>
        <pt x="199" y="678" on="1"/>
        <pt x="182" y="678" on="0"/>
        <pt x="152" y="661" on="0"/>
        <pt x="139" y="647" on="1"/>
      </contour>
    </TTGlyph>
    <TTGlyph name="B" xMin="87" yMin="-10" xMax="523" yMax="750">
      <contour>
        <pt x="282" y="-10" on="1"/>
        <pt x="260" y="-10" on="0"/>
        <pt x="207" y="-8" on="0"/>
        <pt x="155" y="-4" on="0"/>
        <pt x="106" y="2" on="0"/>
        <pt x="87" y="5" on="1"/>
        <pt x="87" y="736" on="1"/>
        <pt x="120" y="740" on="0"/>
        <pt x="171" y="745" on="0"/>
        <pt x="213" y="748" on="0"/>
        <pt x="249" y="750" on="0"/>
        <pt x="268" y="750" on="1"/>
        <pt x="388" y="750" on="0"/>
        <pt x="498" y="656" on="0"/>
        <pt x="498" y="554" on="1"/>
        <pt x="498" y="482" on="0"/>
        <pt x="433" y="390" on="0"/>
        <pt x="375" y="379" on="1"/>
        <pt x="375" y="375" on="1"/>
        <pt x="444" y="364" on="0"/>
        <pt x="523" y="268" on="0"/>
        <pt x="523" y="191" on="1"/>
        <pt x="523" y="-10" on="0"/>
      </contour>
      <contour>
        <pt x="282" y="22" on="1"/>
        <pt x="385" y="23" on="0"/>
        <pt x="485" y="105" on="0"/>
        <pt x="485" y="191" on="1"/>
        <pt x="485" y="279" on="0"/>
        <pt x="384" y="357" on="0"/>
        <pt x="272" y="357" on="1"/>
        <pt x="123" y="357" on="1"/>
        <pt x="123" y="34" on="1"/>
        <pt x="133" y="32" on="0"/>
        <pt x="169" y="27" on="0"/>
        <pt x="213" y="24" on="0"/>
        <pt x="261" y="22" on="0"/>
      </contour>
      <contour>
        <pt x="271" y="393" on="1"/>
        <pt x="323" y="393" on="0"/>
        <pt x="395" y="410" on="0"/>
        <pt x="440" y="448" on="0"/>
        <pt x="461" y="510" on="0"/>
        <pt x="461" y="554" on="1"/>
        <pt x="461" y="638" on="0"/>
        <pt x="369" y="716" on="0"/>
        <pt x="268" y="716" on="1"/>
        <pt x="226" y="716" on="0"/>
        <pt x="158" y="711" on="0"/>
        <pt x="123" y="706" on="1"/>
        <pt x="123" y="393" on="1"/>
      </contour>
    </TTGlyph>
    <TTGlyph name="B.sc" xMin="81" yMin="-8" xMax="460" yMax="585">
      <contour>
        <pt x="249" y="-8" on="1"/>
        <pt x="211" y="-8" on="0"/>
        <pt x="116" y="-1" on="0"/>
        <pt x="81" y="4" on="1"/>
        <pt x="81" y="574" on="1"/>
        <pt x="110" y="577" on="0"/>
        <pt x="154" y="581" on="0"/>
        <pt x="190" y="584" on="0"/>
        <pt x="222" y="585" on="0"/>
        <pt x="238" y="585" on="1"/>
        <pt x="344" y="585" on="0"/>
        <pt x="439" y="511" on="0"/>
        <pt x="439" y="431" on="1"/>
        <pt x="439" y="376" on="0"/>
        <pt x="384" y="304" on="0"/>
        <pt x="334" y="296" on="1"/>
        <pt x="334" y="293" on="1"/>
        <pt x="394" y="284" on="0"/>
        <pt x="460" y="210" on="0"/>
        <pt x="460" y="150" on="1"/>
        <pt x="460" y="-8" on="0"/>
      </contour>
      <contour>
        <pt x="250" y="23" on="1"/>
        <pt x="422" y="23" on="0"/>
        <pt x="422" y="150" on="1"/>
        <pt x="422" y="216" on="0"/>
        <pt x="338" y="276" on="0"/>
        <pt x="244" y="276" on="1"/>
        <pt x="117" y="276" on="1"/>
        <pt x="117" y="32" on="1"/>
        <pt x="126" y="30" on="0"/>
        <pt x="156" y="27" on="0"/>
        <pt x="192" y="24" on="0"/>
        <pt x="232" y="23" on="0"/>
      </contour>
      <contour>
        <pt x="244" y="309" on="1"/>
        <pt x="330" y="309" on="0"/>
        <pt x="402" y="364" on="0"/>
        <pt x="402" y="431" on="1"/>
        <pt x="402" y="494" on="0"/>
        <pt x="325" y="552" on="0"/>
        <pt x="239" y="552" on="1"/>
        <pt x="204" y="552" on="0"/>
        <pt x="147" y="549" on="0"/>
        <pt x="117" y="545" on="1"/>
        <pt x="117" y="309" on="1"/>
      </contour>
    </TTGlyph>
    <TTGlyph name="C" xMin="52" yMin="-9" xMax="478" yMax="748">
      <contour>
        <pt x="359" y="-9" on="1"/>
        <pt x="200" y="-8" on="0"/>
        <pt x="52" y="175" on="0"/>
        <pt x="52" y="369" on="1"/>
        <pt x="52" y="469" on="0"/>
        <pt x="87" y="613" on="0"/>
        <pt x="162" y="705" on="0"/>
        <pt x="279" y="748" on="0"/>
        <pt x="360" y="748" on="1"/>
        <pt x="385" y="748" on="0"/>
        <pt x="447" y="742" on="0"/>
        <pt x="478" y="737" on="1"/>
        <pt x="478" y="701" on="1"/>
        <pt x="455" y="706" on="0"/>
        <pt x="393" y="713" on="0"/>
        <pt x="364" y="713" on="1"/>
        <pt x="292" y="713" on="0"/>
        <pt x="188" y="674" on="0"/>
        <pt x="121" y="590" on="0"/>
        <pt x="90" y="460" on="0"/>
        <pt x="90" y="369" on="1"/>
        <pt x="90" y="193" on="0"/>
        <pt x="220" y="26" on="0"/>
        <pt x="357" y="26" on="1"/>
        <pt x="366" y="26" on="0"/>
        <pt x="396" y="28" on="0"/>
        <pt x="430" y="31" on="0"/>
        <pt x="464" y="36" on="0"/>
        <pt x="478" y="38" on="1"/>
        <pt x="478" y="4" on="1"/>
        <pt x="452" y="-2" on="0"/>
        <pt x="392" y="-9" on="0"/>
      </contour>
    </TTGlyph>
    <TTGlyph name="C.sc" xMin="51" yMin="-8" xMax="419" yMax="584">
      <contour>
        <pt x="313" y="-8" on="1"/>
        <pt x="178" y="-7" on="0"/>
        <pt x="51" y="136" on="0"/>
        <pt x="51" y="288" on="1"/>
        <pt x="51" y="443" on="0"/>
        <pt x="177" y="584" on="0"/>
        <pt x="314" y="584" on="1"/>
        <pt x="337" y="584" on="0"/>
        <pt x="392" y="579" on="0"/>
        <pt x="419" y="574" on="1"/>
        <pt x="419" y="541" on="1"/>
        <pt x="397" y="545" on="0"/>
        <pt x="343" y="550" on="0"/>
        <pt x="318" y="550" on="1"/>
        <pt x="198" y="550" on="0"/>
        <pt x="89" y="426" on="0"/>
        <pt x="89" y="288" on="1"/>
        <pt x="89" y="153" on="0"/>
        <pt x="198" y="27" on="0"/>
        <pt x="313" y="27" on="1"/>
        <pt x="322" y="27" on="0"/>
        <pt x="348" y="29" on="0"/>
        <pt x="378" y="31" on="0"/>
        <pt x="407" y="34" on="0"/>
        <pt x="419" y="36" on="1"/>
        <pt x="419" y="4" on="1"/>
        <pt x="396" y="-1" on="0"/>
        <pt x="342" y="-8" on="0"/>
      </contour>
    </TTGlyph>
    <TTGlyph name="Cacute" xMin="52" yMin="-9" xMax="478" yMax="916">
      <contour>
        <pt x="359" y="-9" on="1"/>
        <pt x="200" y="-8" on="0"/>
        <pt x="52" y="175" on="0"/>
        <pt x="52" y="369" on="1"/>
        <pt x="52" y="469" on="0"/>
        <pt x="87" y="613" on="0"/>
        <pt x="162" y="705" on="0"/>
        <pt x="279" y="748" on="0"/>
        <pt x="360" y="748" on="1"/>
        <pt x="385" y="748" on="0"/>
        <pt x="447" y="742" on="0"/>
        <pt x="478" y="737" on="1"/>
        <pt x="478" y="701" on="1"/>
        <pt x="455" y="706" on="0"/>
        <pt x="393" y="713" on="0"/>
        <pt x="364" y="713" on="1"/>
        <pt x="292" y="713" on="0"/>
        <pt x="188" y="674" on="0"/>
        <pt x="121" y="590" on="0"/>
        <pt x="90" y="460" on="0"/>
        <pt x="90" y="369" on="1"/>
        <pt x="90" y="193" on="0"/>
        <pt x="220" y="26" on="0"/>
        <pt x="357" y="26" on="1"/>
        <pt x="366" y="26" on="0"/>
        <pt x="396" y="28" on="0"/>
        <pt x="430" y="31" on="0"/>
        <pt x="464" y="36" on="0"/>
        <pt x="478" y="38" on="1"/>
        <pt x="478" y="4" on="1"/>
        <pt x="452" y="-2" on="0"/>
        <pt x="392" y="-9" on="0"/>
      </contour>
      <contour>
        <pt x="296" y="793" on="1"/>
        <pt x="375" y="916" on="1"/>
        <pt x="415" y="916" on="1"/>
        <pt x="329" y="789" on="1"/>
      </contour>
    </TTGlyph>
    <TTGlyph name="Cacute.sc" xMin="51" yMin="-8" xMax="419" yMax="719">
      <contour>
        <pt x="313" y="-8" on="1"/>
        <pt x="178" y="-7" on="0"/>
        <pt x="51" y="136" on="0"/>
        <pt x="51" y="288" on="1"/>
        <pt x="51" y="443" on="0"/>
        <pt x="177" y="584" on="0"/>
        <pt x="314" y="584" on="1"/>
        <pt x="337" y="584" on="0"/>
        <pt x="392" y="579" on="0"/>
        <pt x="419" y="574" on="1"/>
        <pt x="419" y="541" on="1"/>
        <pt x="397" y="545" on="0"/>
        <pt x="343" y="550" on="0"/>
        <pt x="318" y="550" on="1"/>
        <pt x="198" y="550" on="0"/>
        <pt x="89" y="426" on="0"/>
        <pt x="89" y="288" on="1"/>
        <pt x="89" y="153" on="0"/>
        <pt x="198" y="27" on="0"/>
        <pt x="313" y="27" on="1"/>
        <pt x="322" y="27" on="0"/>
        <pt x="348" y="29" on="0"/>
        <pt x="378" y="31" on="0"/>
        <pt x="407" y="34" on="0"/>
        <pt x="419" y="36" on="1"/>
        <pt x="419" y="4" on="1"/>
        <pt x="396" y="-1" on="0"/>
        <pt x="342" y="-8" on="0"/>
      </contour>
      <contour>
        <pt x="259" y="620" on="1"/>
        <pt x="326" y="719" on="1"/>
        <pt x="365" y="719" on="1"/>
        <pt x="291" y="617" on="1"/>
      </contour>
    </TTGlyph>
    <TTGlyph name="Ccaron" xMin="52" yMin="-9" xMax="478" yMax="918">
      <contour>
        <pt x="359" y="-9" on="1"/>
        <pt x="200" y="-8" on="0"/>
        <pt x="52" y="175" on="0"/>
        <pt x="52" y="369" on="1"/>
        <pt x="52" y="469" on="0"/>
        <pt x="87" y="613" on="0"/>
        <pt x="162" y="705" on="0"/>
        <pt x="279" y="748" on="0"/>
        <pt x="360" y="748" on="1"/>
        <pt x="385" y="748" on="0"/>
        <pt x="447" y="742" on="0"/>
        <pt x="478" y="737" on="1"/>
        <pt x="478" y="701" on="1"/>
        <pt x="455" y="706" on="0"/>
        <pt x="393" y="713" on="0"/>
        <pt x="364" y="713" on="1"/>
        <pt x="292" y="713" on="0"/>
        <pt x="188" y="674" on="0"/>
        <pt x="121" y="590" on="0"/>
        <pt x="90" y="460" on="0"/>
        <pt x="90" y="369" on="1"/>
        <pt x="90" y="193" on="0"/>
        <pt x="220" y="26" on="0"/>
        <pt x="357" y="26" on="1"/>
        <pt x="366" y="26" on="0"/>
        <pt x="396" y="28" on="0"/>
        <pt x="430" y="31" on="0"/>
        <pt x="464" y="36" on="0"/>
        <pt x="478" y="38" on="1"/>
        <pt x="478" y="4" on="1"/>
        <pt x="452" y="-2" on="0"/>
        <pt x="392" y="-9" on="0"/>
      </contour>
      <contour>
        <pt x="191" y="918" on="1"/>
        <pt x="320" y="846" on="1"/>
        <pt x="449" y="918" on="1"/>
        <pt x="449" y="876" on="1"/>
        <pt x="320" y="804" on="1"/>
        <pt x="191" y="876" on="1"/>
      </contour>
    </TTGlyph>
    <TTGlyph name="Ccaron.sc" xMin="51" yMin="-8" xMax="419" yMax="720">
      <contour>
        <pt x="313" y="-8" on="1"/>
        <pt x="178" y="-7" on="0"/>
        <pt x="51" y="136" on="0"/>
        <pt x="51" y="288" on="1"/>
        <pt x="51" y="443" on="0"/>
        <pt x="177" y="584" on="0"/>
        <pt x="314" y="584" on="1"/>
        <pt x="337" y="584" on="0"/>
        <pt x="392" y="579" on="0"/>
        <pt x="419" y="574" on="1"/>
        <pt x="419" y="541" on="1"/>
        <pt x="397" y="545" on="0"/>
        <pt x="343" y="550" on="0"/>
        <pt x="318" y="550" on="1"/>
        <pt x="198" y="550" on="0"/>
        <pt x="89" y="426" on="0"/>
        <pt x="89" y="288" on="1"/>
        <pt x="89" y="153" on="0"/>
        <pt x="198" y="27" on="0"/>
        <pt x="313" y="27" on="1"/>
        <pt x="322" y="27" on="0"/>
        <pt x="348" y="29" on="0"/>
        <pt x="378" y="31" on="0"/>
        <pt x="407" y="34" on="0"/>
        <pt x="419" y="36" on="1"/>
        <pt x="419" y="4" on="1"/>
        <pt x="396" y="-1" on="0"/>
        <pt x="342" y="-8" on="0"/>
      </contour>
      <contour>
        <pt x="169" y="720" on="1"/>
        <pt x="281" y="664" on="1"/>
        <pt x="394" y="720" on="1"/>
        <pt x="394" y="684" on="1"/>
        <pt x="281" y="627" on="1"/>
        <pt x="169" y="684" on="1"/>
      </contour>
    </TTGlyph>
    <TTGlyph name="Ccedilla" xMin="52" yMin="-220" xMax="478" yMax="748">
      <contour>
        <pt x="274" y="-220" on="1"/>
        <pt x="240" y="-220" on="0"/>
        <pt x="209" y="-209" on="1"/>
        <pt x="209" y="-173" on="1"/>
        <pt x="242" y="-185" on="0"/>
        <pt x="270" y="-185" on="1"/>
        <pt x="309" y="-185" on="0"/>
        <pt x="345" y="-148" on="0"/>
        <pt x="345" y="-109" on="1"/>
        <pt x="345" y="-63" on="0"/>
        <pt x="316" y="-7" on="1"/>
        <pt x="179" y="6" on="0"/>
        <pt x="52" y="188" on="0"/>
        <pt x="52" y="369" on="1"/>
        <pt x="52" y="469" on="0"/>
        <pt x="87" y="613" on="0"/>
        <pt x="162" y="705" on="0"/>
        <pt x="279" y="748" on="0"/>
        <pt x="360" y="748" on="1"/>
        <pt x="385" y="748" on="0"/>
        <pt x="447" y="742" on="0"/>
        <pt x="478" y="737" on="1"/>
        <pt x="478" y="701" on="1"/>
        <pt x="455" y="706" on="0"/>
        <pt x="393" y="713" on="0"/>
        <pt x="364" y="713" on="1"/>
        <pt x="292" y="713" on="0"/>
        <pt x="188" y="674" on="0"/>
        <pt x="121" y="590" on="0"/>
        <pt x="90" y="460" on="0"/>
        <pt x="90" y="369" on="1"/>
        <pt x="90" y="193" on="0"/>
        <pt x="220" y="26" on="0"/>
        <pt x="357" y="26" on="1"/>
        <pt x="366" y="26" on="0"/>
        <pt x="396" y="28" on="0"/>
        <pt x="430" y="31" on="0"/>
        <pt x="464" y="36" on="0"/>
        <pt x="478" y="38" on="1"/>
        <pt x="478" y="4" on="1"/>
        <pt x="452" y="-2" on="0"/>
        <pt x="392" y="-9" on="0"/>
        <pt x="359" y="-9" on="1"/>
        <pt x="355" y="-9" on="1"/>
        <pt x="381" y="-65" on="0"/>
        <pt x="381" y="-109" on="1"/>
        <pt x="381" y="-163" on="0"/>
        <pt x="327" y="-220" on="0"/>
      </contour>
    </TTGlyph>
    <TTGlyph name="Ccedilla.sc" xMin="51" yMin="-172" xMax="419" yMax="584">
      <contour>
        <pt x="242" y="-172" on="1"/>
        <pt x="229" y="-172" on="0"/>
        <pt x="199" y="-168" on="0"/>
        <pt x="185" y="-163" on="1"/>
        <pt x="185" y="-131" on="1"/>
        <pt x="210" y="-140" on="0"/>
        <pt x="238" y="-140" on="1"/>
        <pt x="272" y="-140" on="0"/>
        <pt x="301" y="-112" on="0"/>
        <pt x="301" y="-82" on="1"/>
        <pt x="301" y="-65" on="0"/>
        <pt x="290" y="-28" on="0"/>
        <pt x="277" y="-5" on="1"/>
        <pt x="160" y="4" on="0"/>
        <pt x="51" y="146" on="0"/>
        <pt x="51" y="288" on="1"/>
        <pt x="51" y="443" on="0"/>
        <pt x="177" y="584" on="0"/>
        <pt x="314" y="584" on="1"/>
        <pt x="337" y="584" on="0"/>
        <pt x="392" y="579" on="0"/>
        <pt x="419" y="574" on="1"/>
        <pt x="419" y="541" on="1"/>
        <pt x="397" y="545" on="0"/>
        <pt x="343" y="550" on="0"/>
        <pt x="318" y="550" on="1"/>
        <pt x="198" y="550" on="0"/>
        <pt x="89" y="426" on="0"/>
        <pt x="89" y="288" on="1"/>
        <pt x="89" y="153" on="0"/>
        <pt x="198" y="27" on="0"/>
        <pt x="313" y="27" on="1"/>
        <pt x="322" y="27" on="0"/>
        <pt x="348" y="29" on="0"/>
        <pt x="378" y="31" on="0"/>
        <pt x="407" y="34" on="0"/>
        <pt x="419" y="36" on="1"/>
        <pt x="419" y="4" on="1"/>
        <pt x="396" y="-1" on="0"/>
        <pt x="338" y="-8" on="0"/>
        <pt x="312" y="-7" on="1"/>
        <pt x="335" y="-50" on="0"/>
        <pt x="335" y="-85" on="1"/>
        <pt x="335" y="-127" on="0"/>
        <pt x="288" y="-172" on="0"/>
      </contour>
    </TTGlyph>
    <TTGlyph name="Ccircumflex" xMin="52" yMin="-9" xMax="478" yMax="933">
      <contour>
        <pt x="359" y="-9" on="1"/>
        <pt x="200" y="-8" on="0"/>
        <pt x="52" y="175" on="0"/>
        <pt x="52" y="369" on="1"/>
        <pt x="52" y="469" on="0"/>
        <pt x="87" y="613" on="0"/>
        <pt x="162" y="705" on="0"/>
        <pt x="279" y="748" on="0"/>
        <pt x="360" y="748" on="1"/>
        <pt x="385" y="748" on="0"/>
        <pt x="447" y="742" on="0"/>
        <pt x="478" y="737" on="1"/>
        <pt x="478" y="701" on="1"/>
        <pt x="455" y="706" on="0"/>
        <pt x="393" y="713" on="0"/>
        <pt x="364" y="713" on="1"/>
        <pt x="292" y="713" on="0"/>
        <pt x="188" y="674" on="0"/>
        <pt x="121" y="590" on="0"/>
        <pt x="90" y="460" on="0"/>
        <pt x="90" y="369" on="1"/>
        <pt x="90" y="193" on="0"/>
        <pt x="220" y="26" on="0"/>
        <pt x="357" y="26" on="1"/>
        <pt x="366" y="26" on="0"/>
        <pt x="396" y="28" on="0"/>
        <pt x="430" y="31" on="0"/>
        <pt x="464" y="36" on="0"/>
        <pt x="478" y="38" on="1"/>
        <pt x="478" y="4" on="1"/>
        <pt x="452" y="-2" on="0"/>
        <pt x="392" y="-9" on="0"/>
      </contour>
      <contour>
        <pt x="188" y="861" on="1"/>
        <pt x="317" y="933" on="1"/>
        <pt x="446" y="861" on="1"/>
        <pt x="446" y="819" on="1"/>
        <pt x="317" y="891" on="1"/>
        <pt x="188" y="819" on="1"/>
      </contour>
    </TTGlyph>
    <TTGlyph name="Ccircumflex.sc" xMin="51" yMin="-8" xMax="419" yMax="730">
      <contour>
        <pt x="313" y="-8" on="1"/>
        <pt x="178" y="-7" on="0"/>
        <pt x="51" y="136" on="0"/>
        <pt x="51" y="288" on="1"/>
        <pt x="51" y="443" on="0"/>
        <pt x="177" y="584" on="0"/>
        <pt x="314" y="584" on="1"/>
        <pt x="337" y="584" on="0"/>
        <pt x="392" y="579" on="0"/>
        <pt x="419" y="574" on="1"/>
        <pt x="419" y="541" on="1"/>
        <pt x="397" y="545" on="0"/>
        <pt x="343" y="550" on="0"/>
        <pt x="318" y="550" on="1"/>
        <pt x="198" y="550" on="0"/>
        <pt x="89" y="426" on="0"/>
        <pt x="89" y="288" on="1"/>
        <pt x="89" y="153" on="0"/>
        <pt x="198" y="27" on="0"/>
        <pt x="313" y="27" on="1"/>
        <pt x="322" y="27" on="0"/>
        <pt x="348" y="29" on="0"/>
        <pt x="378" y="31" on="0"/>
        <pt x="407" y="34" on="0"/>
        <pt x="419" y="36" on="1"/>
        <pt x="419" y="4" on="1"/>
        <pt x="396" y="-1" on="0"/>
        <pt x="342" y="-8" on="0"/>
      </contour>
      <contour>
        <pt x="166" y="674" on="1"/>
        <pt x="279" y="730" on="1"/>
        <pt x="392" y="674" on="1"/>
        <pt x="392" y="637" on="1"/>
        <pt x="279" y="693" on="1"/>
        <pt x="166" y="637" on="1"/>
      </contour>
    </TTGlyph>
    <TTGlyph name="Cdotaccent" xMin="52" yMin="-9" xMax="478" yMax="869">
      <contour>
        <pt x="317" y="806" on="1"/>
        <pt x="304" y="806" on="0"/>
        <pt x="286" y="821" on="0"/>
        <pt x="286" y="837" on="1"/>
        <pt x="286" y="854" on="0"/>
        <pt x="304" y="869" on="0"/>
        <pt x="317" y="869" on="1"/>
        <pt x="330" y="869" on="0"/>
        <pt x="349" y="854" on="0"/>
        <pt x="349" y="837" on="1"/>
        <pt x="349" y="820" on="0"/>
        <pt x="330" y="806" on="0"/>
      </contour>
      <contour>
        <pt x="359" y="-9" on="1"/>
        <pt x="200" y="-8" on="0"/>
        <pt x="52" y="175" on="0"/>
        <pt x="52" y="369" on="1"/>
        <pt x="52" y="469" on="0"/>
        <pt x="87" y="613" on="0"/>
        <pt x="162" y="705" on="0"/>
        <pt x="279" y="748" on="0"/>
        <pt x="360" y="748" on="1"/>
        <pt x="385" y="748" on="0"/>
        <pt x="447" y="742" on="0"/>
        <pt x="478" y="737" on="1"/>
        <pt x="478" y="701" on="1"/>
        <pt x="455" y="706" on="0"/>
        <pt x="393" y="713" on="0"/>
        <pt x="364" y="713" on="1"/>
        <pt x="292" y="713" on="0"/>
        <pt x="188" y="674" on="0"/>
        <pt x="121" y="590" on="0"/>
        <pt x="90" y="460" on="0"/>
        <pt x="90" y="369" on="1"/>
        <pt x="90" y="193" on="0"/>
        <pt x="220" y="26" on="0"/>
        <pt x="357" y="26" on="1"/>
        <pt x="366" y="26" on="0"/>
        <pt x="396" y="28" on="0"/>
        <pt x="430" y="31" on="0"/>
        <pt x="464" y="36" on="0"/>
        <pt x="478" y="38" on="1"/>
        <pt x="478" y="4" on="1"/>
        <pt x="452" y="-2" on="0"/>
        <pt x="392" y="-9" on="0"/>
      </contour>
    </TTGlyph>
    <TTGlyph name="Cdotaccent.sc" xMin="51" yMin="-8" xMax="419" yMax="685">
      <contour>
        <pt x="313" y="-8" on="1"/>
        <pt x="178" y="-7" on="0"/>
        <pt x="51" y="136" on="0"/>
        <pt x="51" y="288" on="1"/>
        <pt x="51" y="443" on="0"/>
        <pt x="177" y="584" on="0"/>
        <pt x="314" y="584" on="1"/>
        <pt x="337" y="584" on="0"/>
        <pt x="392" y="579" on="0"/>
        <pt x="419" y="574" on="1"/>
        <pt x="419" y="541" on="1"/>
        <pt x="397" y="545" on="0"/>
        <pt x="343" y="550" on="0"/>
        <pt x="318" y="550" on="1"/>
        <pt x="198" y="550" on="0"/>
        <pt x="89" y="426" on="0"/>
        <pt x="89" y="288" on="1"/>
        <pt x="89" y="153" on="0"/>
        <pt x="198" y="27" on="0"/>
        <pt x="313" y="27" on="1"/>
        <pt x="322" y="27" on="0"/>
        <pt x="348" y="29" on="0"/>
        <pt x="378" y="31" on="0"/>
        <pt x="407" y="34" on="0"/>
        <pt x="419" y="36" on="1"/>
        <pt x="419" y="4" on="1"/>
        <pt x="396" y="-1" on="0"/>
        <pt x="342" y="-8" on="0"/>
      </contour>
      <contour>
        <pt x="279" y="629" on="1"/>
        <pt x="266" y="629" on="0"/>
        <pt x="250" y="643" on="0"/>
        <pt x="250" y="658" on="1"/>
        <pt x="250" y="672" on="0"/>
        <pt x="266" y="685" on="0"/>
        <pt x="279" y="685" on="1"/>
        <pt x="291" y="685" on="0"/>
        <pt x="309" y="672" on="0"/>
        <pt x="309" y="658" on="1"/>
        <pt x="309" y="643" on="0"/>
        <pt x="291" y="629" on="0"/>
      </contour>
    </TTGlyph>
    <TTGlyph name="D" xMin="87" yMin="-16" xMax="557" yMax="750">
      <contour>
        <pt x="211" y="-16" on="1"/>
        <pt x="175" y="-16" on="0"/>
        <pt x="111" y="-11" on="0"/>
        <pt x="87" y="-6" on="1"/>
        <pt x="87" y="734" on="1"/>
        <pt x="128" y="742" on="0"/>
        <pt x="212" y="750" on="0"/>
        <pt x="243" y="750" on="1"/>
        <pt x="404" y="750" on="0"/>
        <pt x="557" y="564" on="0"/>
        <pt x="557" y="369" on="1"/>
        <pt x="557" y="171" on="0"/>
        <pt x="389" y="-16" on="0"/>
      </contour>
      <contour>
        <pt x="215" y="21" on="1"/>
        <pt x="519" y="21" on="0"/>
        <pt x="519" y="369" on="1"/>
        <pt x="519" y="547" on="0"/>
        <pt x="384" y="714" on="0"/>
        <pt x="240" y="714" on="1"/>
        <pt x="214" y="714" on="0"/>
        <pt x="151" y="709" on="0"/>
        <pt x="123" y="704" on="1"/>
        <pt x="123" y="27" on="1"/>
        <pt x="150" y="24" on="0"/>
        <pt x="192" y="21" on="0"/>
      </contour>
    </TTGlyph>
    <TTGlyph name="D.sc" xMin="81" yMin="-11" xMax="492" yMax="585">
      <contour>
        <pt x="194" y="-11" on="1"/>
        <pt x="161" y="-11" on="0"/>
        <pt x="103" y="-8" on="0"/>
        <pt x="81" y="-3" on="1"/>
        <pt x="81" y="573" on="1"/>
        <pt x="117" y="578" on="0"/>
        <pt x="191" y="585" on="0"/>
        <pt x="219" y="585" on="1"/>
        <pt x="359" y="585" on="0"/>
        <pt x="492" y="441" on="0"/>
        <pt x="492" y="288" on="1"/>
        <pt x="492" y="133" on="0"/>
        <pt x="348" y="-11" on="0"/>
      </contour>
      <contour>
        <pt x="198" y="23" on="1"/>
        <pt x="329" y="23" on="0"/>
        <pt x="454" y="153" on="0"/>
        <pt x="454" y="288" on="1"/>
        <pt x="454" y="425" on="0"/>
        <pt x="341" y="551" on="0"/>
        <pt x="217" y="551" on="1"/>
        <pt x="195" y="551" on="0"/>
        <pt x="141" y="547" on="0"/>
        <pt x="117" y="543" on="1"/>
        <pt x="117" y="28" on="1"/>
        <pt x="142" y="25" on="0"/>
        <pt x="178" y="23" on="0"/>
      </contour>
    </TTGlyph>
    <TTGlyph name="Dcaron" xMin="87" yMin="-16" xMax="557" yMax="918">
      <contour>
        <pt x="146" y="918" on="1"/>
        <pt x="275" y="846" on="1"/>
        <pt x="404" y="918" on="1"/>
        <pt x="404" y="876" on="1"/>
        <pt x="275" y="804" on="1"/>
        <pt x="146" y="876" on="1"/>
      </contour>
      <contour>
        <pt x="211" y="-16" on="1"/>
        <pt x="175" y="-16" on="0"/>
        <pt x="111" y="-11" on="0"/>
        <pt x="87" y="-6" on="1"/>
        <pt x="87" y="734" on="1"/>
        <pt x="128" y="742" on="0"/>
        <pt x="212" y="750" on="0"/>
        <pt x="243" y="750" on="1"/>
        <pt x="404" y="750" on="0"/>
        <pt x="557" y="564" on="0"/>
        <pt x="557" y="369" on="1"/>
        <pt x="557" y="171" on="0"/>
        <pt x="389" y="-16" on="0"/>
      </contour>
      <contour>
        <pt x="215" y="21" on="1"/>
        <pt x="519" y="21" on="0"/>
        <pt x="519" y="369" on="1"/>
        <pt x="519" y="547" on="0"/>
        <pt x="384" y="714" on="0"/>
        <pt x="240" y="714" on="1"/>
        <pt x="214" y="714" on="0"/>
        <pt x="151" y="709" on="0"/>
        <pt x="123" y="704" on="1"/>
        <pt x="123" y="27" on="1"/>
        <pt x="150" y="24" on="0"/>
        <pt x="192" y="21" on="0"/>
      </contour>
    </TTGlyph>
    <TTGlyph name="Dcaron.sc" xMin="81" yMin="-11" xMax="492" yMax="720">
      <contour>
        <pt x="194" y="-11" on="1"/>
        <pt x="161" y="-11" on="0"/>
        <pt x="103" y="-8" on="0"/>
        <pt x="81" y="-3" on="1"/>
        <pt x="81" y="573" on="1"/>
        <pt x="117" y="578" on="0"/>
        <pt x="191" y="585" on="0"/>
        <pt x="219" y="585" on="1"/>
        <pt x="359" y="585" on="0"/>
        <pt x="492" y="441" on="0"/>
        <pt x="492" y="288" on="1"/>
        <pt x="492" y="133" on="0"/>
        <pt x="348" y="-11" on="0"/>
      </contour>
      <contour>
        <pt x="198" y="23" on="1"/>
        <pt x="329" y="23" on="0"/>
        <pt x="454" y="153" on="0"/>
        <pt x="454" y="288" on="1"/>
        <pt x="454" y="425" on="0"/>
        <pt x="341" y="551" on="0"/>
        <pt x="217" y="551" on="1"/>
        <pt x="195" y="551" on="0"/>
        <pt x="141" y="547" on="0"/>
        <pt x="117" y="543" on="1"/>
        <pt x="117" y="28" on="1"/>
        <pt x="142" y="25" on="0"/>
        <pt x="178" y="23" on="0"/>
      </contour>
      <contour>
        <pt x="134" y="684" on="1"/>
        <pt x="134" y="720" on="1"/>
        <pt x="247" y="664" on="1"/>
        <pt x="359" y="720" on="1"/>
        <pt x="359" y="684" on="1"/>
        <pt x="247" y="627" on="1"/>
      </contour>
    </TTGlyph>
    <TTGlyph name="Dcroat" xMin="2" yMin="-16" xMax="565" yMax="750">
      <contour>
        <pt x="2" y="386" on="1"/>
        <pt x="95" y="386" on="1"/>
        <pt x="95" y="734" on="1"/>
        <pt x="136" y="742" on="0"/>
        <pt x="220" y="750" on="0"/>
        <pt x="251" y="750" on="1"/>
        <pt x="412" y="750" on="0"/>
        <pt x="565" y="564" on="0"/>
        <pt x="565" y="369" on="1"/>
        <pt x="565" y="171" on="0"/>
        <pt x="397" y="-16" on="0"/>
        <pt x="219" y="-16" on="1"/>
        <pt x="183" y="-16" on="0"/>
        <pt x="119" y="-11" on="0"/>
        <pt x="95" y="-6" on="1"/>
        <pt x="95" y="350" on="1"/>
        <pt x="2" y="350" on="1"/>
      </contour>
      <contour>
        <pt x="223" y="21" on="1"/>
        <pt x="527" y="21" on="0"/>
        <pt x="527" y="369" on="1"/>
        <pt x="527" y="547" on="0"/>
        <pt x="392" y="714" on="0"/>
        <pt x="248" y="714" on="1"/>
        <pt x="222" y="714" on="0"/>
        <pt x="159" y="709" on="0"/>
        <pt x="131" y="704" on="1"/>
        <pt x="131" y="386" on="1"/>
        <pt x="311" y="386" on="1"/>
        <pt x="311" y="350" on="1"/>
        <pt x="131" y="350" on="1"/>
        <pt x="131" y="27" on="1"/>
        <pt x="158" y="24" on="0"/>
        <pt x="200" y="21" on="0"/>
      </contour>
    </TTGlyph>
    <TTGlyph name="Dcroat.sc" xMin="8" yMin="-11" xMax="498" yMax="585">
      <contour>
        <pt x="8" y="304" on="1"/>
        <pt x="88" y="304" on="1"/>
        <pt x="88" y="573" on="1"/>
        <pt x="123" y="578" on="0"/>
        <pt x="198" y="585" on="0"/>
        <pt x="225" y="585" on="1"/>
        <pt x="366" y="585" on="0"/>
        <pt x="498" y="441" on="0"/>
        <pt x="498" y="288" on="1"/>
        <pt x="498" y="132" on="0"/>
        <pt x="355" y="-11" on="0"/>
        <pt x="200" y="-11" on="1"/>
        <pt x="168" y="-11" on="0"/>
        <pt x="109" y="-8" on="0"/>
        <pt x="88" y="-3" on="1"/>
        <pt x="88" y="270" on="1"/>
        <pt x="8" y="270" on="1"/>
      </contour>
      <contour>
        <pt x="205" y="23" on="1"/>
        <pt x="335" y="23" on="0"/>
        <pt x="461" y="153" on="0"/>
        <pt x="461" y="288" on="1"/>
        <pt x="461" y="425" on="0"/>
        <pt x="347" y="551" on="0"/>
        <pt x="224" y="551" on="1"/>
        <pt x="201" y="551" on="0"/>
        <pt x="147" y="547" on="0"/>
        <pt x="124" y="543" on="1"/>
        <pt x="124" y="304" on="1"/>
        <pt x="276" y="304" on="1"/>
        <pt x="276" y="270" on="1"/>
        <pt x="124" y="270" on="1"/>
        <pt x="124" y="28" on="1"/>
        <pt x="148" y="25" on="0"/>
        <pt x="185" y="23" on="0"/>
      </contour>
    </TTGlyph>
    <TTGlyph name="Ddotbelow" xMin="87" yMin="-163" xMax="557" yMax="750">
      <contour>
        <pt x="279" y="-163" on="1"/>
        <pt x="262" y="-163" on="0"/>
        <pt x="243" y="-147" on="0"/>
        <pt x="243" y="-127" on="1"/>
        <pt x="243" y="-107" on="0"/>
        <pt x="262" y="-91" on="0"/>
        <pt x="279" y="-91" on="1"/>
        <pt x="295" y="-91" on="0"/>
        <pt x="315" y="-107" on="0"/>
        <pt x="315" y="-127" on="1"/>
        <pt x="315" y="-147" on="0"/>
        <pt x="295" y="-163" on="0"/>
      </contour>
      <contour>
        <pt x="211" y="-16" on="1"/>
        <pt x="175" y="-16" on="0"/>
        <pt x="111" y="-11" on="0"/>
        <pt x="87" y="-6" on="1"/>
        <pt x="87" y="734" on="1"/>
        <pt x="128" y="742" on="0"/>
        <pt x="212" y="750" on="0"/>
        <pt x="243" y="750" on="1"/>
        <pt x="404" y="750" on="0"/>
        <pt x="557" y="564" on="0"/>
        <pt x="557" y="369" on="1"/>
        <pt x="557" y="171" on="0"/>
        <pt x="389" y="-16" on="0"/>
      </contour>
      <contour>
        <pt x="215" y="21" on="1"/>
        <pt x="519" y="21" on="0"/>
        <pt x="519" y="369" on="1"/>
        <pt x="519" y="547" on="0"/>
        <pt x="384" y="714" on="0"/>
        <pt x="240" y="714" on="1"/>
        <pt x="214" y="714" on="0"/>
        <pt x="151" y="709" on="0"/>
        <pt x="123" y="704" on="1"/>
        <pt x="123" y="27" on="1"/>
        <pt x="150" y="24" on="0"/>
        <pt x="192" y="21" on="0"/>
      </contour>
    </TTGlyph>
    <TTGlyph name="Ddotbelow.sc" xMin="81" yMin="-130" xMax="492" yMax="585">
      <contour>
        <pt x="194" y="-11" on="1"/>
        <pt x="161" y="-11" on="0"/>
        <pt x="103" y="-8" on="0"/>
        <pt x="81" y="-3" on="1"/>
        <pt x="81" y="573" on="1"/>
        <pt x="117" y="578" on="0"/>
        <pt x="191" y="585" on="0"/>
        <pt x="219" y="585" on="1"/>
        <pt x="359" y="585" on="0"/>
        <pt x="492" y="441" on="0"/>
        <pt x="492" y="288" on="1"/>
        <pt x="492" y="133" on="0"/>
        <pt x="348" y="-11" on="0"/>
      </contour>
      <contour>
        <pt x="198" y="23" on="1"/>
        <pt x="329" y="23" on="0"/>
        <pt x="454" y="153" on="0"/>
        <pt x="454" y="288" on="1"/>
        <pt x="454" y="425" on="0"/>
        <pt x="341" y="551" on="0"/>
        <pt x="217" y="551" on="1"/>
        <pt x="195" y="551" on="0"/>
        <pt x="141" y="547" on="0"/>
        <pt x="117" y="543" on="1"/>
        <pt x="117" y="28" on="1"/>
        <pt x="142" y="25" on="0"/>
        <pt x="178" y="23" on="0"/>
      </contour>
      <contour>
        <pt x="251" y="-130" on="1"/>
        <pt x="236" y="-130" on="0"/>
        <pt x="219" y="-117" on="0"/>
        <pt x="219" y="-100" on="1"/>
        <pt x="219" y="-69" on="0"/>
        <pt x="251" y="-69" on="1"/>
        <pt x="265" y="-69" on="0"/>
        <pt x="283" y="-84" on="0"/>
        <pt x="283" y="-100" on="1"/>
        <pt x="283" y="-117" on="0"/>
        <pt x="265" y="-130" on="0"/>
      </contour>
    </TTGlyph>
    <TTGlyph name="Delta" xMin="23" yMin="0" xMax="573" yMax="740">
      <contour>
        <pt x="274" y="740" on="1"/>
        <pt x="322" y="740" on="1"/>
        <pt x="573" y="0" on="1"/>
        <pt x="23" y="0" on="1"/>
      </contour>
      <contour>
        <pt x="523" y="36" on="1"/>
        <pt x="297" y="697" on="1"/>
        <pt x="72" y="36" on="1"/>
      </contour>
    </TTGlyph>
    <TTGlyph name="E" xMin="87" yMin="0" xMax="478" yMax="740">
      <contour>
        <pt x="87" y="740" on="1"/>
        <pt x="469" y="740" on="1"/>
        <pt x="469" y="704" on="1"/>
        <pt x="123" y="704" on="1"/>
        <pt x="123" y="394" on="1"/>
        <pt x="440" y="394" on="1"/>
        <pt x="440" y="359" on="1"/>
        <pt x="123" y="359" on="1"/>
        <pt x="123" y="36" on="1"/>
        <pt x="478" y="36" on="1"/>
        <pt x="478" y="0" on="1"/>
        <pt x="87" y="0" on="1"/>
      </contour>
    </TTGlyph>
    <TTGlyph name="E.sc" xMin="82" yMin="0" xMax="422" yMax="577">
      <contour>
        <pt x="82" y="577" on="1"/>
        <pt x="415" y="577" on="1"/>
        <pt x="415" y="544" on="1"/>
        <pt x="118" y="544" on="1"/>
        <pt x="118" y="310" on="1"/>
        <pt x="390" y="310" on="1"/>
        <pt x="390" y="277" on="1"/>
        <pt x="118" y="277" on="1"/>
        <pt x="118" y="34" on="1"/>
        <pt x="422" y="34" on="1"/>
        <pt x="422" y="0" on="1"/>
        <pt x="82" y="0" on="1"/>
      </contour>
    </TTGlyph>
    <TTGlyph name="Eacute" xMin="87" yMin="0" xMax="478" yMax="916">
      <contour>
        <pt x="256" y="793" on="1"/>
        <pt x="335" y="916" on="1"/>
        <pt x="375" y="916" on="1"/>
        <pt x="289" y="789" on="1"/>
      </contour>
      <contour>
        <pt x="87" y="740" on="1"/>
        <pt x="469" y="740" on="1"/>
        <pt x="469" y="704" on="1"/>
        <pt x="123" y="704" on="1"/>
        <pt x="123" y="394" on="1"/>
        <pt x="440" y="394" on="1"/>
        <pt x="440" y="359" on="1"/>
        <pt x="123" y="359" on="1"/>
        <pt x="123" y="36" on="1"/>
        <pt x="478" y="36" on="1"/>
        <pt x="478" y="0" on="1"/>
        <pt x="87" y="0" on="1"/>
      </contour>
    </TTGlyph>
    <TTGlyph name="Eacute.sc" xMin="82" yMin="0" xMax="422" yMax="719">
      <contour>
        <pt x="82" y="577" on="1"/>
        <pt x="415" y="577" on="1"/>
        <pt x="415" y="544" on="1"/>
        <pt x="118" y="544" on="1"/>
        <pt x="118" y="310" on="1"/>
        <pt x="390" y="310" on="1"/>
        <pt x="390" y="277" on="1"/>
        <pt x="118" y="277" on="1"/>
        <pt x="118" y="34" on="1"/>
        <pt x="422" y="34" on="1"/>
        <pt x="422" y="0" on="1"/>
        <pt x="82" y="0" on="1"/>
      </contour>
      <contour>
        <pt x="229" y="620" on="1"/>
        <pt x="295" y="719" on="1"/>
        <pt x="334" y="719" on="1"/>
        <pt x="260" y="617" on="1"/>
      </contour>
    </TTGlyph>
    <TTGlyph name="Ebreve" xMin="87" yMin="0" xMax="478" yMax="948">
      <contour>
        <pt x="277" y="816" on="1"/>
        <pt x="210" y="816" on="0"/>
        <pt x="134" y="886" on="0"/>
        <pt x="134" y="948" on="1"/>
        <pt x="169" y="948" on="1"/>
        <pt x="169" y="902" on="0"/>
        <pt x="226" y="850" on="0"/>
        <pt x="277" y="850" on="1"/>
        <pt x="328" y="850" on="0"/>
        <pt x="385" y="902" on="0"/>
        <pt x="385" y="948" on="1"/>
        <pt x="421" y="948" on="1"/>
        <pt x="421" y="886" on="0"/>
        <pt x="345" y="816" on="0"/>
      </contour>
      <contour>
        <pt x="87" y="740" on="1"/>
        <pt x="469" y="740" on="1"/>
        <pt x="469" y="704" on="1"/>
        <pt x="123" y="704" on="1"/>
        <pt x="123" y="394" on="1"/>
        <pt x="440" y="394" on="1"/>
        <pt x="440" y="359" on="1"/>
        <pt x="123" y="359" on="1"/>
        <pt x="123" y="36" on="1"/>
        <pt x="478" y="36" on="1"/>
        <pt x="478" y="0" on="1"/>
        <pt x="87" y="0" on="1"/>
      </contour>
    </TTGlyph>
    <TTGlyph name="Ebreve.sc" xMin="82" yMin="0" xMax="422" yMax="742">
      <contour>
        <pt x="249" y="635" on="1"/>
        <pt x="190" y="635" on="0"/>
        <pt x="124" y="692" on="0"/>
        <pt x="124" y="742" on="1"/>
        <pt x="157" y="742" on="1"/>
        <pt x="157" y="705" on="0"/>
        <pt x="206" y="665" on="0"/>
        <pt x="249" y="665" on="1"/>
        <pt x="292" y="665" on="0"/>
        <pt x="341" y="705" on="0"/>
        <pt x="341" y="742" on="1"/>
        <pt x="374" y="742" on="1"/>
        <pt x="374" y="692" on="0"/>
        <pt x="308" y="635" on="0"/>
      </contour>
      <contour>
        <pt x="82" y="577" on="1"/>
        <pt x="415" y="577" on="1"/>
        <pt x="415" y="544" on="1"/>
        <pt x="118" y="544" on="1"/>
        <pt x="118" y="310" on="1"/>
        <pt x="390" y="310" on="1"/>
        <pt x="390" y="277" on="1"/>
        <pt x="118" y="277" on="1"/>
        <pt x="118" y="34" on="1"/>
        <pt x="422" y="34" on="1"/>
        <pt x="422" y="0" on="1"/>
        <pt x="82" y="0" on="1"/>
      </contour>
    </TTGlyph>
    <TTGlyph name="Ecaron" xMin="87" yMin="0" xMax="478" yMax="918">
      <contour>
        <pt x="151" y="918" on="1"/>
        <pt x="280" y="846" on="1"/>
        <pt x="409" y="918" on="1"/>
        <pt x="409" y="876" on="1"/>
        <pt x="280" y="804" on="1"/>
        <pt x="151" y="876" on="1"/>
      </contour>
      <contour>
        <pt x="87" y="740" on="1"/>
        <pt x="469" y="740" on="1"/>
        <pt x="469" y="704" on="1"/>
        <pt x="123" y="704" on="1"/>
        <pt x="123" y="394" on="1"/>
        <pt x="440" y="394" on="1"/>
        <pt x="440" y="359" on="1"/>
        <pt x="123" y="359" on="1"/>
        <pt x="123" y="36" on="1"/>
        <pt x="478" y="36" on="1"/>
        <pt x="478" y="0" on="1"/>
        <pt x="87" y="0" on="1"/>
      </contour>
    </TTGlyph>
    <TTGlyph name="Ecaron.sc" xMin="82" yMin="0" xMax="422" yMax="720">
      <contour>
        <pt x="82" y="577" on="1"/>
        <pt x="415" y="577" on="1"/>
        <pt x="415" y="544" on="1"/>
        <pt x="118" y="544" on="1"/>
        <pt x="118" y="310" on="1"/>
        <pt x="390" y="310" on="1"/>
        <pt x="390" y="277" on="1"/>
        <pt x="118" y="277" on="1"/>
        <pt x="118" y="34" on="1"/>
        <pt x="422" y="34" on="1"/>
        <pt x="422" y="0" on="1"/>
        <pt x="82" y="0" on="1"/>
      </contour>
      <contour>
        <pt x="138" y="684" on="1"/>
        <pt x="138" y="720" on="1"/>
        <pt x="251" y="664" on="1"/>
        <pt x="364" y="720" on="1"/>
        <pt x="364" y="684" on="1"/>
        <pt x="251" y="627" on="1"/>
      </contour>
    </TTGlyph>
    <TTGlyph name="Ecircumflex" xMin="87" yMin="0" xMax="478" yMax="933">
      <contour>
        <pt x="87" y="740" on="1"/>
        <pt x="469" y="740" on="1"/>
        <pt x="469" y="704" on="1"/>
        <pt x="123" y="704" on="1"/>
        <pt x="123" y="394" on="1"/>
        <pt x="440" y="394" on="1"/>
        <pt x="440" y="359" on="1"/>
        <pt x="123" y="359" on="1"/>
        <pt x="123" y="36" on="1"/>
        <pt x="478" y="36" on="1"/>
        <pt x="478" y="0" on="1"/>
        <pt x="87" y="0" on="1"/>
      </contour>
      <contour>
        <pt x="148" y="861" on="1"/>
        <pt x="277" y="933" on="1"/>
        <pt x="406" y="861" on="1"/>
        <pt x="406" y="819" on="1"/>
        <pt x="277" y="891" on="1"/>
        <pt x="148" y="819" on="1"/>
      </contour>
    </TTGlyph>
    <TTGlyph name="Ecircumflex.sc" xMin="82" yMin="0" xMax="422" yMax="730">
      <contour>
        <pt x="82" y="577" on="1"/>
        <pt x="415" y="577" on="1"/>
        <pt x="415" y="544" on="1"/>
        <pt x="118" y="544" on="1"/>
        <pt x="118" y="310" on="1"/>
        <pt x="390" y="310" on="1"/>
        <pt x="390" y="277" on="1"/>
        <pt x="118" y="277" on="1"/>
        <pt x="118" y="34" on="1"/>
        <pt x="422" y="34" on="1"/>
        <pt x="422" y="0" on="1"/>
        <pt x="82" y="0" on="1"/>
      </contour>
      <contour>
        <pt x="135" y="674" on="1"/>
        <pt x="248" y="730" on="1"/>
        <pt x="362" y="674" on="1"/>
        <pt x="362" y="637" on="1"/>
        <pt x="248" y="693" on="1"/>
        <pt x="135" y="637" on="1"/>
      </contour>
    </TTGlyph>
    <TTGlyph name="Edblgrave" xMin="87" yMin="0" xMax="478" yMax="913">
      <contour>
        <pt x="87" y="740" on="1"/>
        <pt x="469" y="740" on="1"/>
        <pt x="469" y="704" on="1"/>
        <pt x="123" y="704" on="1"/>
        <pt x="123" y="394" on="1"/>
        <pt x="440" y="394" on="1"/>
        <pt x="440" y="359" on="1"/>
        <pt x="123" y="359" on="1"/>
        <pt x="123" y="36" on="1"/>
        <pt x="478" y="36" on="1"/>
        <pt x="478" y="0" on="1"/>
        <pt x="87" y="0" on="1"/>
      </contour>
      <contour>
        <pt x="198" y="787" on="1"/>
        <pt x="113" y="913" on="1"/>
        <pt x="152" y="913" on="1"/>
        <pt x="231" y="801" on="1"/>
      </contour>
      <contour>
        <pt x="326" y="787" on="1"/>
        <pt x="241" y="913" on="1"/>
        <pt x="280" y="913" on="1"/>
        <pt x="359" y="801" on="1"/>
      </contour>
    </TTGlyph>
    <TTGlyph name="Edblgrave.sc" xMin="82" yMin="0" xMax="422" yMax="717">
      <contour>
        <pt x="82" y="577" on="1"/>
        <pt x="415" y="577" on="1"/>
        <pt x="415" y="544" on="1"/>
        <pt x="118" y="544" on="1"/>
        <pt x="118" y="310" on="1"/>
        <pt x="390" y="310" on="1"/>
        <pt x="390" y="277" on="1"/>
        <pt x="118" y="277" on="1"/>
        <pt x="118" y="34" on="1"/>
        <pt x="422" y="34" on="1"/>
        <pt x="422" y="0" on="1"/>
        <pt x="82" y="0" on="1"/>
      </contour>
      <contour>
        <pt x="105" y="717" on="1"/>
        <pt x="142" y="717" on="1"/>
        <pt x="209" y="625" on="1"/>
        <pt x="179" y="614" on="1"/>
      </contour>
      <contour>
        <pt x="216" y="717" on="1"/>
        <pt x="254" y="717" on="1"/>
        <pt x="321" y="625" on="1"/>
        <pt x="290" y="614" on="1"/>
      </contour>
    </TTGlyph>
    <TTGlyph name="Edieresis" xMin="87" yMin="0" xMax="478" yMax="881">
      <contour>
        <pt x="181" y="819" on="1"/>
        <pt x="167" y="819" on="0"/>
        <pt x="150" y="833" on="0"/>
        <pt x="150" y="850" on="1"/>
        <pt x="150" y="867" on="0"/>
        <pt x="167" y="881" on="0"/>
        <pt x="181" y="881" on="1"/>
        <pt x="194" y="881" on="0"/>
        <pt x="213" y="866" on="0"/>
        <pt x="213" y="850" on="1"/>
        <pt x="213" y="833" on="0"/>
        <pt x="194" y="819" on="0"/>
      </contour>
      <contour>
        <pt x="374" y="819" on="1"/>
        <pt x="360" y="819" on="0"/>
        <pt x="342" y="833" on="0"/>
        <pt x="342" y="850" on="1"/>
        <pt x="342" y="867" on="0"/>
        <pt x="360" y="881" on="0"/>
        <pt x="374" y="881" on="1"/>
        <pt x="386" y="881" on="0"/>
        <pt x="405" y="866" on="0"/>
        <pt x="405" y="850" on="1"/>
        <pt x="405" y="833" on="0"/>
        <pt x="386" y="819" on="0"/>
      </contour>
      <contour>
        <pt x="87" y="740" on="1"/>
        <pt x="469" y="740" on="1"/>
        <pt x="469" y="704" on="1"/>
        <pt x="123" y="704" on="1"/>
        <pt x="123" y="394" on="1"/>
        <pt x="440" y="394" on="1"/>
        <pt x="440" y="359" on="1"/>
        <pt x="123" y="359" on="1"/>
        <pt x="123" y="36" on="1"/>
        <pt x="478" y="36" on="1"/>
        <pt x="478" y="0" on="1"/>
        <pt x="87" y="0" on="1"/>
      </contour>
    </TTGlyph>
    <TTGlyph name="Edieresis.sc" xMin="82" yMin="0" xMax="422" yMax="694">
      <contour>
        <pt x="163" y="638" on="1"/>
        <pt x="150" y="638" on="0"/>
        <pt x="134" y="652" on="0"/>
        <pt x="134" y="666" on="1"/>
        <pt x="134" y="681" on="0"/>
        <pt x="150" y="694" on="0"/>
        <pt x="163" y="694" on="1"/>
        <pt x="175" y="694" on="0"/>
        <pt x="193" y="680" on="0"/>
        <pt x="193" y="666" on="1"/>
        <pt x="193" y="652" on="0"/>
        <pt x="175" y="638" on="0"/>
      </contour>
      <contour>
        <pt x="334" y="638" on="1"/>
        <pt x="321" y="638" on="0"/>
        <pt x="304" y="652" on="0"/>
        <pt x="304" y="666" on="1"/>
        <pt x="304" y="681" on="0"/>
        <pt x="321" y="694" on="0"/>
        <pt x="334" y="694" on="1"/>
        <pt x="345" y="694" on="0"/>
        <pt x="363" y="680" on="0"/>
        <pt x="363" y="666" on="1"/>
        <pt x="363" y="652" on="0"/>
        <pt x="345" y="638" on="0"/>
      </contour>
      <contour>
        <pt x="82" y="577" on="1"/>
        <pt x="415" y="577" on="1"/>
        <pt x="415" y="544" on="1"/>
        <pt x="118" y="544" on="1"/>
        <pt x="118" y="310" on="1"/>
        <pt x="390" y="310" on="1"/>
        <pt x="390" y="277" on="1"/>
        <pt x="118" y="277" on="1"/>
        <pt x="118" y="34" on="1"/>
        <pt x="422" y="34" on="1"/>
        <pt x="422" y="0" on="1"/>
        <pt x="82" y="0" on="1"/>
      </contour>
    </TTGlyph>
    <TTGlyph name="Edotaccent" xMin="87" yMin="0" xMax="478" yMax="869">
      <contour>
        <pt x="277" y="806" on="1"/>
        <pt x="264" y="806" on="0"/>
        <pt x="246" y="821" on="0"/>
        <pt x="246" y="837" on="1"/>
        <pt x="246" y="854" on="0"/>
        <pt x="264" y="869" on="0"/>
        <pt x="277" y="869" on="1"/>
        <pt x="290" y="869" on="0"/>
        <pt x="309" y="854" on="0"/>
        <pt x="309" y="837" on="1"/>
        <pt x="309" y="820" on="0"/>
        <pt x="290" y="806" on="0"/>
      </contour>
      <contour>
        <pt x="87" y="740" on="1"/>
        <pt x="469" y="740" on="1"/>
        <pt x="469" y="704" on="1"/>
        <pt x="123" y="704" on="1"/>
        <pt x="123" y="394" on="1"/>
        <pt x="440" y="394" on="1"/>
        <pt x="440" y="359" on="1"/>
        <pt x="123" y="359" on="1"/>
        <pt x="123" y="36" on="1"/>
        <pt x="478" y="36" on="1"/>
        <pt x="478" y="0" on="1"/>
        <pt x="87" y="0" on="1"/>
      </contour>
    </TTGlyph>
    <TTGlyph name="Edotaccent.sc" xMin="82" yMin="0" xMax="422" yMax="685">
      <contour>
        <pt x="248" y="629" on="1"/>
        <pt x="235" y="629" on="0"/>
        <pt x="219" y="643" on="0"/>
        <pt x="219" y="658" on="1"/>
        <pt x="219" y="672" on="0"/>
        <pt x="235" y="685" on="0"/>
        <pt x="248" y="685" on="1"/>
        <pt x="260" y="685" on="0"/>
        <pt x="278" y="672" on="0"/>
        <pt x="278" y="658" on="1"/>
        <pt x="278" y="643" on="0"/>
        <pt x="260" y="629" on="0"/>
      </contour>
      <contour>
        <pt x="82" y="577" on="1"/>
        <pt x="415" y="577" on="1"/>
        <pt x="415" y="544" on="1"/>
        <pt x="118" y="544" on="1"/>
        <pt x="118" y="310" on="1"/>
        <pt x="390" y="310" on="1"/>
        <pt x="390" y="277" on="1"/>
        <pt x="118" y="277" on="1"/>
        <pt x="118" y="34" on="1"/>
        <pt x="422" y="34" on="1"/>
        <pt x="422" y="0" on="1"/>
        <pt x="82" y="0" on="1"/>
      </contour>
    </TTGlyph>
    <TTGlyph name="Edotbelow" xMin="87" yMin="-163" xMax="478" yMax="740">
      <contour>
        <pt x="87" y="740" on="1"/>
        <pt x="469" y="740" on="1"/>
        <pt x="469" y="704" on="1"/>
        <pt x="123" y="704" on="1"/>
        <pt x="123" y="394" on="1"/>
        <pt x="440" y="394" on="1"/>
        <pt x="440" y="359" on="1"/>
        <pt x="123" y="359" on="1"/>
        <pt x="123" y="36" on="1"/>
        <pt x="478" y="36" on="1"/>
        <pt x="478" y="0" on="1"/>
        <pt x="87" y="0" on="1"/>
      </contour>
      <contour>
        <pt x="296" y="-163" on="1"/>
        <pt x="279" y="-163" on="0"/>
        <pt x="260" y="-147" on="0"/>
        <pt x="260" y="-127" on="1"/>
        <pt x="260" y="-107" on="0"/>
        <pt x="279" y="-91" on="0"/>
        <pt x="296" y="-91" on="1"/>
        <pt x="312" y="-91" on="0"/>
        <pt x="332" y="-107" on="0"/>
        <pt x="332" y="-127" on="1"/>
        <pt x="332" y="-147" on="0"/>
        <pt x="312" y="-163" on="0"/>
      </contour>
    </TTGlyph>
    <TTGlyph name="Edotbelow.sc" xMin="82" yMin="-130" xMax="422" yMax="577">
      <contour>
        <pt x="264" y="-130" on="1"/>
        <pt x="249" y="-130" on="0"/>
        <pt x="232" y="-117" on="0"/>
        <pt x="232" y="-100" on="1"/>
        <pt x="232" y="-69" on="0"/>
        <pt x="264" y="-69" on="1"/>
        <pt x="278" y="-69" on="0"/>
        <pt x="297" y="-84" on="0"/>
        <pt x="297" y="-100" on="1"/>
        <pt x="297" y="-117" on="0"/>
        <pt x="278" y="-130" on="0"/>
      </contour>
      <contour>
        <pt x="82" y="577" on="1"/>
        <pt x="415" y="577" on="1"/>
        <pt x="415" y="544" on="1"/>
        <pt x="118" y="544" on="1"/>
        <pt x="118" y="310" on="1"/>
        <pt x="390" y="310" on="1"/>
        <pt x="390" y="277" on="1"/>
        <pt x="118" y="277" on="1"/>
        <pt x="118" y="34" on="1"/>
        <pt x="422" y="34" on="1"/>
        <pt x="422" y="0" on="1"/>
        <pt x="82" y="0" on="1"/>
      </contour>
    </TTGlyph>
    <TTGlyph name="Egrave" xMin="87" yMin="0" xMax="478" yMax="916">
      <contour>
        <pt x="258" y="789" on="1"/>
        <pt x="173" y="916" on="1"/>
        <pt x="213" y="916" on="1"/>
        <pt x="291" y="803" on="1"/>
      </contour>
      <contour>
        <pt x="87" y="740" on="1"/>
        <pt x="469" y="740" on="1"/>
        <pt x="469" y="704" on="1"/>
        <pt x="123" y="704" on="1"/>
        <pt x="123" y="394" on="1"/>
        <pt x="440" y="394" on="1"/>
        <pt x="440" y="359" on="1"/>
        <pt x="123" y="359" on="1"/>
        <pt x="123" y="36" on="1"/>
        <pt x="478" y="36" on="1"/>
        <pt x="478" y="0" on="1"/>
        <pt x="87" y="0" on="1"/>
      </contour>
    </TTGlyph>
    <TTGlyph name="Egrave.sc" xMin="82" yMin="0" xMax="422" yMax="719">
      <contour>
        <pt x="82" y="577" on="1"/>
        <pt x="415" y="577" on="1"/>
        <pt x="415" y="544" on="1"/>
        <pt x="118" y="544" on="1"/>
        <pt x="118" y="310" on="1"/>
        <pt x="390" y="310" on="1"/>
        <pt x="390" y="277" on="1"/>
        <pt x="118" y="277" on="1"/>
        <pt x="118" y="34" on="1"/>
        <pt x="422" y="34" on="1"/>
        <pt x="422" y="0" on="1"/>
        <pt x="82" y="0" on="1"/>
      </contour>
      <contour>
        <pt x="157" y="719" on="1"/>
        <pt x="196" y="719" on="1"/>
        <pt x="263" y="627" on="1"/>
        <pt x="231" y="617" on="1"/>
      </contour>
    </TTGlyph>
    <TTGlyph name="Einvertedbreve" xMin="87" yMin="0" xMax="478" yMax="956">
      <contour>
        <pt x="87" y="740" on="1"/>
        <pt x="469" y="740" on="1"/>
        <pt x="469" y="704" on="1"/>
        <pt x="123" y="704" on="1"/>
        <pt x="123" y="394" on="1"/>
        <pt x="440" y="394" on="1"/>
        <pt x="440" y="359" on="1"/>
        <pt x="123" y="359" on="1"/>
        <pt x="123" y="36" on="1"/>
        <pt x="478" y="36" on="1"/>
        <pt x="478" y="0" on="1"/>
        <pt x="87" y="0" on="1"/>
      </contour>
      <contour>
        <pt x="384" y="823" on="1"/>
        <pt x="384" y="869" on="0"/>
        <pt x="327" y="921" on="0"/>
        <pt x="276" y="921" on="1"/>
        <pt x="225" y="921" on="0"/>
        <pt x="168" y="869" on="0"/>
        <pt x="168" y="823" on="1"/>
        <pt x="133" y="823" on="1"/>
        <pt x="133" y="886" on="0"/>
        <pt x="209" y="956" on="0"/>
        <pt x="276" y="956" on="1"/>
        <pt x="344" y="956" on="0"/>
        <pt x="420" y="886" on="0"/>
        <pt x="420" y="823" on="1"/>
      </contour>
    </TTGlyph>
    <TTGlyph name="Einvertedbreve.sc" xMin="82" yMin="0" xMax="422" yMax="747">
      <contour>
        <pt x="123" y="641" on="1"/>
        <pt x="123" y="690" on="0"/>
        <pt x="188" y="747" on="0"/>
        <pt x="248" y="747" on="1"/>
        <pt x="307" y="747" on="0"/>
        <pt x="373" y="690" on="0"/>
        <pt x="373" y="641" on="1"/>
        <pt x="340" y="641" on="1"/>
        <pt x="340" y="677" on="0"/>
        <pt x="292" y="717" on="0"/>
        <pt x="248" y="717" on="1"/>
        <pt x="204" y="717" on="0"/>
        <pt x="156" y="677" on="0"/>
        <pt x="156" y="641" on="1"/>
      </contour>
      <contour>
        <pt x="82" y="577" on="1"/>
        <pt x="415" y="577" on="1"/>
        <pt x="415" y="544" on="1"/>
        <pt x="118" y="544" on="1"/>
        <pt x="118" y="310" on="1"/>
        <pt x="390" y="310" on="1"/>
        <pt x="390" y="277" on="1"/>
        <pt x="118" y="277" on="1"/>
        <pt x="118" y="34" on="1"/>
        <pt x="422" y="34" on="1"/>
        <pt x="422" y="0" on="1"/>
        <pt x="82" y="0" on="1"/>
      </contour>
    </TTGlyph>
    <TTGlyph name="Emacron" xMin="87" yMin="0" xMax="478" yMax="877">
      <contour>
        <pt x="153" y="877" on="1"/>
        <pt x="386" y="877" on="1"/>
        <pt x="386" y="842" on="1"/>
        <pt x="153" y="842" on="1"/>
      </contour>
      <contour>
        <pt x="87" y="740" on="1"/>
        <pt x="469" y="740" on="1"/>
        <pt x="469" y="704" on="1"/>
        <pt x="123" y="704" on="1"/>
        <pt x="123" y="394" on="1"/>
        <pt x="440" y="394" on="1"/>
        <pt x="440" y="359" on="1"/>
        <pt x="123" y="359" on="1"/>
        <pt x="123" y="36" on="1"/>
        <pt x="478" y="36" on="1"/>
        <pt x="478" y="0" on="1"/>
        <pt x="87" y="0" on="1"/>
      </contour>
    </TTGlyph>
    <TTGlyph name="Emacron.sc" xMin="82" yMin="0" xMax="422" yMax="688">
      <contour>
        <pt x="82" y="577" on="1"/>
        <pt x="415" y="577" on="1"/>
        <pt x="415" y="544" on="1"/>
        <pt x="118" y="544" on="1"/>
        <pt x="118" y="310" on="1"/>
        <pt x="390" y="310" on="1"/>
        <pt x="390" y="277" on="1"/>
        <pt x="118" y="277" on="1"/>
        <pt x="118" y="34" on="1"/>
        <pt x="422" y="34" on="1"/>
        <pt x="422" y="0" on="1"/>
        <pt x="82" y="0" on="1"/>
      </contour>
      <contour>
        <pt x="140" y="688" on="1"/>
        <pt x="346" y="688" on="1"/>
        <pt x="346" y="656" on="1"/>
        <pt x="140" y="656" on="1"/>
      </contour>
    </TTGlyph>
    <TTGlyph name="Eng" xMin="87" yMin="-178" xMax="593" yMax="740">
      <contour>
        <pt x="480" y="-170" on="1"/>
        <pt x="503" y="-126" on="0"/>
        <pt x="541" y="-33" on="0"/>
        <pt x="550" y="4" on="1"/>
        <pt x="179" y="589" on="1"/>
        <pt x="127" y="677" on="1"/>
        <pt x="123" y="676" on="1"/>
        <pt x="123" y="0" on="1"/>
        <pt x="87" y="0" on="1"/>
        <pt x="87" y="740" on="1"/>
        <pt x="127" y="740" on="1"/>
        <pt x="502" y="148" on="1"/>
        <pt x="553" y="62" on="1"/>
        <pt x="558" y="62" on="1"/>
        <pt x="558" y="740" on="1"/>
        <pt x="593" y="740" on="1"/>
        <pt x="593" y="53" on="1"/>
        <pt x="593" y="31" on="0"/>
        <pt x="580" y="-28" on="0"/>
        <pt x="558" y="-91" on="0"/>
        <pt x="528" y="-153" on="0"/>
        <pt x="511" y="-178" on="1"/>
      </contour>
    </TTGlyph>
    <TTGlyph name="Eng.sc" xMin="82" yMin="-141" xMax="521" yMax="577">
      <contour>
        <pt x="421" y="-133" on="1"/>
        <pt x="441" y="-98" on="0"/>
        <pt x="472" y="-23" on="0"/>
        <pt x="479" y="7" on="1"/>
        <pt x="165" y="447" on="1"/>
        <pt x="121" y="515" on="1"/>
        <pt x="117" y="515" on="1"/>
        <pt x="117" y="0" on="1"/>
        <pt x="82" y="0" on="1"/>
        <pt x="82" y="577" on="1"/>
        <pt x="120" y="577" on="1"/>
        <pt x="438" y="129" on="1"/>
        <pt x="482" y="61" on="1"/>
        <pt x="486" y="62" on="1"/>
        <pt x="486" y="577" on="1"/>
        <pt x="521" y="577" on="1"/>
        <pt x="521" y="47" on="1"/>
        <pt x="521" y="29" on="0"/>
        <pt x="510" y="-19" on="0"/>
        <pt x="490" y="-70" on="0"/>
        <pt x="465" y="-120" on="0"/>
        <pt x="450" y="-141" on="1"/>
      </contour>
    </TTGlyph>
    <TTGlyph name="Eogonek" xMin="87" yMin="-220" xMax="478" yMax="740">
      <contour>
        <pt x="87" y="740" on="1"/>
        <pt x="469" y="740" on="1"/>
        <pt x="469" y="704" on="1"/>
        <pt x="123" y="704" on="1"/>
        <pt x="123" y="394" on="1"/>
        <pt x="440" y="394" on="1"/>
        <pt x="440" y="359" on="1"/>
        <pt x="123" y="359" on="1"/>
        <pt x="123" y="36" on="1"/>
        <pt x="478" y="36" on="1"/>
        <pt x="478" y="-20" on="1"/>
        <pt x="425" y="-47" on="0"/>
        <pt x="380" y="-102" on="0"/>
        <pt x="380" y="-138" on="1"/>
        <pt x="380" y="-164" on="0"/>
        <pt x="404" y="-186" on="0"/>
        <pt x="430" y="-186" on="1"/>
        <pt x="456" y="-186" on="0"/>
        <pt x="477" y="-176" on="1"/>
        <pt x="477" y="-208" on="1"/>
        <pt x="454" y="-220" on="0"/>
        <pt x="424" y="-220" on="1"/>
        <pt x="386" y="-220" on="0"/>
        <pt x="345" y="-178" on="0"/>
        <pt x="345" y="-140" on="1"/>
        <pt x="345" y="-100" on="0"/>
        <pt x="394" y="-32" on="0"/>
        <pt x="448" y="0" on="1"/>
        <pt x="87" y="0" on="1"/>
      </contour>
    </TTGlyph>
    <TTGlyph name="Eogonek.sc" xMin="82" yMin="-172" xMax="422" yMax="577">
      <contour>
        <pt x="376" y="-172" on="1"/>
        <pt x="305" y="-172" on="0"/>
        <pt x="305" y="-108" on="1"/>
        <pt x="305" y="-77" on="0"/>
        <pt x="345" y="-26" on="0"/>
        <pt x="391" y="0" on="1"/>
        <pt x="82" y="0" on="1"/>
        <pt x="82" y="577" on="1"/>
        <pt x="415" y="577" on="1"/>
        <pt x="415" y="544" on="1"/>
        <pt x="118" y="544" on="1"/>
        <pt x="118" y="310" on="1"/>
        <pt x="390" y="310" on="1"/>
        <pt x="390" y="277" on="1"/>
        <pt x="118" y="277" on="1"/>
        <pt x="118" y="34" on="1"/>
        <pt x="422" y="34" on="1"/>
        <pt x="422" y="-15" on="1"/>
        <pt x="384" y="-30" on="0"/>
        <pt x="338" y="-78" on="0"/>
        <pt x="338" y="-107" on="1"/>
        <pt x="338" y="-142" on="0"/>
        <pt x="379" y="-142" on="1"/>
        <pt x="401" y="-142" on="0"/>
        <pt x="422" y="-134" on="1"/>
        <pt x="422" y="-162" on="1"/>
        <pt x="400" y="-172" on="0"/>
      </contour>
    </TTGlyph>
    <TTGlyph name="Eth" xMin="2" yMin="-16" xMax="565" yMax="750">
      <contour>
        <pt x="2" y="386" on="1"/>
        <pt x="95" y="386" on="1"/>
        <pt x="95" y="734" on="1"/>
        <pt x="136" y="742" on="0"/>
        <pt x="220" y="750" on="0"/>
        <pt x="251" y="750" on="1"/>
        <pt x="412" y="750" on="0"/>
        <pt x="565" y="564" on="0"/>
        <pt x="565" y="369" on="1"/>
        <pt x="565" y="171" on="0"/>
        <pt x="397" y="-16" on="0"/>
        <pt x="219" y="-16" on="1"/>
        <pt x="183" y="-16" on="0"/>
        <pt x="119" y="-11" on="0"/>
        <pt x="95" y="-6" on="1"/>
        <pt x="95" y="350" on="1"/>
        <pt x="2" y="350" on="1"/>
      </contour>
      <contour>
        <pt x="223" y="21" on="1"/>
        <pt x="527" y="21" on="0"/>
        <pt x="527" y="369" on="1"/>
        <pt x="527" y="547" on="0"/>
        <pt x="392" y="714" on="0"/>
        <pt x="248" y="714" on="1"/>
        <pt x="222" y="714" on="0"/>
        <pt x="159" y="709" on="0"/>
        <pt x="131" y="704" on="1"/>
        <pt x="131" y="386" on="1"/>
        <pt x="311" y="386" on="1"/>
        <pt x="311" y="350" on="1"/>
        <pt x="131" y="350" on="1"/>
        <pt x="131" y="27" on="1"/>
        <pt x="158" y="24" on="0"/>
        <pt x="200" y="21" on="0"/>
      </contour>
    </TTGlyph>
    <TTGlyph name="Eth.sc" xMin="8" yMin="-11" xMax="498" yMax="585">
      <contour>
        <pt x="8" y="304" on="1"/>
        <pt x="88" y="304" on="1"/>
        <pt x="88" y="573" on="1"/>
        <pt x="123" y="578" on="0"/>
        <pt x="198" y="585" on="0"/>
        <pt x="225" y="585" on="1"/>
        <pt x="366" y="585" on="0"/>
        <pt x="498" y="441" on="0"/>
        <pt x="498" y="288" on="1"/>
        <pt x="498" y="132" on="0"/>
        <pt x="355" y="-11" on="0"/>
        <pt x="200" y="-11" on="1"/>
        <pt x="168" y="-11" on="0"/>
        <pt x="109" y="-8" on="0"/>
        <pt x="88" y="-3" on="1"/>
        <pt x="88" y="270" on="1"/>
        <pt x="8" y="270" on="1"/>
      </contour>
      <contour>
        <pt x="205" y="23" on="1"/>
        <pt x="335" y="23" on="0"/>
        <pt x="461" y="153" on="0"/>
        <pt x="461" y="288" on="1"/>
        <pt x="461" y="425" on="0"/>
        <pt x="347" y="551" on="0"/>
        <pt x="224" y="551" on="1"/>
        <pt x="201" y="551" on="0"/>
        <pt x="147" y="547" on="0"/>
        <pt x="124" y="543" on="1"/>
        <pt x="124" y="304" on="1"/>
        <pt x="276" y="304" on="1"/>
        <pt x="276" y="270" on="1"/>
        <pt x="124" y="270" on="1"/>
        <pt x="124" y="28" on="1"/>
        <pt x="148" y="25" on="0"/>
        <pt x="185" y="23" on="0"/>
      </contour>
    </TTGlyph>
    <TTGlyph name="Etilde" xMin="87" yMin="0" xMax="478" yMax="904">
      <contour>
        <pt x="124" y="854" on="1"/>
        <pt x="141" y="874" on="0"/>
        <pt x="191" y="904" on="0"/>
        <pt x="216" y="904" on="1"/>
        <pt x="236" y="904" on="0"/>
        <pt x="268" y="891" on="0"/>
        <pt x="298" y="874" on="0"/>
        <pt x="328" y="861" on="0"/>
        <pt x="346" y="861" on="1"/>
        <pt x="364" y="861" on="0"/>
        <pt x="397" y="882" on="0"/>
        <pt x="409" y="900" on="1"/>
        <pt x="436" y="879" on="1"/>
        <pt x="422" y="856" on="0"/>
        <pt x="371" y="826" on="0"/>
        <pt x="345" y="826" on="1"/>
        <pt x="326" y="826" on="0"/>
        <pt x="293" y="839" on="0"/>
        <pt x="263" y="856" on="0"/>
        <pt x="233" y="869" on="0"/>
        <pt x="216" y="869" on="1"/>
        <pt x="198" y="869" on="0"/>
        <pt x="162" y="847" on="0"/>
        <pt x="148" y="830" on="1"/>
      </contour>
      <contour>
        <pt x="87" y="740" on="1"/>
        <pt x="469" y="740" on="1"/>
        <pt x="469" y="704" on="1"/>
        <pt x="123" y="704" on="1"/>
        <pt x="123" y="394" on="1"/>
        <pt x="440" y="394" on="1"/>
        <pt x="440" y="359" on="1"/>
        <pt x="123" y="359" on="1"/>
        <pt x="123" y="36" on="1"/>
        <pt x="478" y="36" on="1"/>
        <pt x="478" y="0" on="1"/>
        <pt x="87" y="0" on="1"/>
      </contour>
    </TTGlyph>
    <TTGlyph name="Etilde.sc" xMin="82" yMin="0" xMax="422" yMax="709">
      <contour>
        <pt x="115" y="666" on="1"/>
        <pt x="131" y="684" on="0"/>
        <pt x="174" y="709" on="0"/>
        <pt x="196" y="709" on="1"/>
        <pt x="214" y="709" on="0"/>
        <pt x="242" y="699" on="0"/>
        <pt x="268" y="686" on="0"/>
        <pt x="295" y="676" on="0"/>
        <pt x="310" y="676" on="1"/>
        <pt x="342" y="676" on="0"/>
        <pt x="367" y="706" on="1"/>
        <pt x="389" y="690" on="1"/>
        <pt x="375" y="669" on="0"/>
        <pt x="331" y="644" on="0"/>
        <pt x="308" y="644" on="1"/>
        <pt x="291" y="644" on="0"/>
        <pt x="263" y="655" on="0"/>
        <pt x="236" y="667" on="0"/>
        <pt x="210" y="678" on="0"/>
        <pt x="195" y="678" on="1"/>
        <pt x="179" y="678" on="0"/>
        <pt x="148" y="661" on="0"/>
        <pt x="135" y="647" on="1"/>
      </contour>
      <contour>
        <pt x="82" y="577" on="1"/>
        <pt x="415" y="577" on="1"/>
        <pt x="415" y="544" on="1"/>
        <pt x="118" y="544" on="1"/>
        <pt x="118" y="310" on="1"/>
        <pt x="390" y="310" on="1"/>
        <pt x="390" y="277" on="1"/>
        <pt x="118" y="277" on="1"/>
        <pt x="118" y="34" on="1"/>
        <pt x="422" y="34" on="1"/>
        <pt x="422" y="0" on="1"/>
        <pt x="82" y="0" on="1"/>
      </contour>
    </TTGlyph>
    <TTGlyph name="Euro" xMin="44" yMin="-10" xMax="479" yMax="748">
      <contour>
        <pt x="44" y="470" on="1"/>
        <pt x="124" y="470" on="1"/>
        <pt x="132" y="545" on="0"/>
        <pt x="174" y="650" on="0"/>
        <pt x="247" y="717" on="0"/>
        <pt x="351" y="748" on="0"/>
        <pt x="421" y="748" on="1"/>
        <pt x="441" y="748" on="0"/>
        <pt x="464" y="747" on="0"/>
        <pt x="479" y="746" on="1"/>
        <pt x="462" y="711" on="1"/>
        <pt x="455" y="712" on="0"/>
        <pt x="439" y="713" on="0"/>
        <pt x="425" y="713" on="1"/>
        <pt x="363" y="713" on="0"/>
        <pt x="271" y="686" on="0"/>
        <pt x="207" y="627" on="0"/>
        <pt x="170" y="535" on="0"/>
        <pt x="163" y="470" on="1"/>
        <pt x="401" y="470" on="1"/>
        <pt x="382" y="436" on="1"/>
        <pt x="160" y="436" on="1"/>
        <pt x="159" y="420" on="0"/>
        <pt x="158" y="386" on="0"/>
        <pt x="158" y="369" on="1"/>
        <pt x="158" y="351" on="0"/>
        <pt x="159" y="319" on="0"/>
        <pt x="160" y="303" on="1"/>
        <pt x="367" y="303" on="1"/>
        <pt x="348" y="269" on="1"/>
        <pt x="163" y="269" on="1"/>
        <pt x="179" y="143" on="0"/>
        <pt x="302" y="26" on="0"/>
        <pt x="420" y="26" on="1"/>
        <pt x="426" y="26" on="0"/>
        <pt x="449" y="27" on="0"/>
        <pt x="463" y="28" on="1"/>
        <pt x="463" y="-9" on="1"/>
        <pt x="455" y="-10" on="0"/>
        <pt x="438" y="-10" on="0"/>
        <pt x="423" y="-10" on="1"/>
        <pt x="286" y="-8" on="0"/>
        <pt x="141" y="124" on="0"/>
        <pt x="125" y="269" on="1"/>
        <pt x="44" y="269" on="1"/>
        <pt x="44" y="303" on="1"/>
        <pt x="122" y="303" on="1"/>
        <pt x="120" y="319" on="0"/>
        <pt x="120" y="352" on="0"/>
        <pt x="120" y="369" on="1"/>
        <pt x="120" y="386" on="0"/>
        <pt x="120" y="420" on="0"/>
        <pt x="122" y="436" on="1"/>
        <pt x="44" y="436" on="1"/>
      </contour>
    </TTGlyph>
    <TTGlyph name="Euro.tab" xMin="33" yMin="-10" xMax="467" yMax="748">
      <contour>
        <pt x="33" y="470" on="1"/>
        <pt x="114" y="470" on="1"/>
        <pt x="121" y="545" on="0"/>
        <pt x="163" y="650" on="0"/>
        <pt x="235" y="717" on="0"/>
        <pt x="339" y="748" on="0"/>
        <pt x="409" y="748" on="1"/>
        <pt x="429" y="748" on="0"/>
        <pt x="453" y="747" on="0"/>
        <pt x="467" y="746" on="1"/>
        <pt x="451" y="711" on="1"/>
        <pt x="444" y="712" on="0"/>
        <pt x="427" y="713" on="0"/>
        <pt x="413" y="713" on="1"/>
        <pt x="291" y="713" on="0"/>
        <pt x="166" y="600" on="0"/>
        <pt x="152" y="470" on="1"/>
        <pt x="390" y="470" on="1"/>
        <pt x="371" y="436" on="1"/>
        <pt x="149" y="436" on="1"/>
        <pt x="147" y="420" on="0"/>
        <pt x="147" y="387" on="0"/>
        <pt x="147" y="369" on="1"/>
        <pt x="147" y="352" on="0"/>
        <pt x="147" y="319" on="0"/>
        <pt x="149" y="303" on="1"/>
        <pt x="356" y="303" on="1"/>
        <pt x="337" y="269" on="1"/>
        <pt x="152" y="269" on="1"/>
        <pt x="168" y="142" on="0"/>
        <pt x="292" y="26" on="0"/>
        <pt x="409" y="26" on="1"/>
        <pt x="414" y="26" on="0"/>
        <pt x="438" y="27" on="0"/>
        <pt x="452" y="28" on="1"/>
        <pt x="452" y="-9" on="1"/>
        <pt x="444" y="-10" on="0"/>
        <pt x="427" y="-10" on="0"/>
        <pt x="411" y="-10" on="1"/>
        <pt x="274" y="-8" on="0"/>
        <pt x="131" y="124" on="0"/>
        <pt x="115" y="269" on="1"/>
        <pt x="33" y="269" on="1"/>
        <pt x="33" y="303" on="1"/>
        <pt x="111" y="303" on="1"/>
        <pt x="110" y="319" on="0"/>
        <pt x="109" y="352" on="0"/>
        <pt x="109" y="369" on="1"/>
        <pt x="109" y="386" on="0"/>
        <pt x="110" y="420" on="0"/>
        <pt x="111" y="436" on="1"/>
        <pt x="33" y="436" on="1"/>
      </contour>
    </TTGlyph>
    <TTGlyph name="F" xMin="87" yMin="0" xMax="454" yMax="740">
      <contour>
        <pt x="87" y="740" on="1"/>
        <pt x="454" y="740" on="1"/>
        <pt x="454" y="704" on="1"/>
        <pt x="123" y="704" on="1"/>
        <pt x="123" y="394" on="1"/>
        <pt x="433" y="394" on="1"/>
        <pt x="433" y="358" on="1"/>
        <pt x="123" y="358" on="1"/>
        <pt x="123" y="0" on="1"/>
        <pt x="87" y="0" on="1"/>
      </contour>
    </TTGlyph>
    <TTGlyph name="F.sc" xMin="82" yMin="0" xMax="404" yMax="577">
      <contour>
        <pt x="82" y="577" on="1"/>
        <pt x="404" y="577" on="1"/>
        <pt x="404" y="544" on="1"/>
        <pt x="118" y="544" on="1"/>
        <pt x="118" y="309" on="1"/>
        <pt x="384" y="309" on="1"/>
        <pt x="384" y="275" on="1"/>
        <pt x="118" y="275" on="1"/>
        <pt x="118" y="0" on="1"/>
        <pt x="82" y="0" on="1"/>
      </contour>
    </TTGlyph>
    <TTGlyph name="F_B.sc" xMin="82" yMin="-8" xMax="883" yMax="585">
      <contour>
        <pt x="82" y="577" on="1"/>
        <pt x="404" y="577" on="1"/>
        <pt x="404" y="544" on="1"/>
        <pt x="118" y="544" on="1"/>
        <pt x="118" y="309" on="1"/>
        <pt x="384" y="309" on="1"/>
        <pt x="384" y="275" on="1"/>
        <pt x="118" y="275" on="1"/>
        <pt x="118" y="0" on="1"/>
        <pt x="82" y="0" on="1"/>
      </contour>
      <contour>
        <pt x="672" y="-8" on="1"/>
        <pt x="634" y="-8" on="0"/>
        <pt x="539" y="-1" on="0"/>
        <pt x="504" y="4" on="1"/>
        <pt x="504" y="574" on="1"/>
        <pt x="533" y="577" on="0"/>
        <pt x="577" y="581" on="0"/>
        <pt x="613" y="584" on="0"/>
        <pt x="645" y="585" on="0"/>
        <pt x="661" y="585" on="1"/>
        <pt x="767" y="585" on="0"/>
        <pt x="862" y="511" on="0"/>
        <pt x="862" y="431" on="1"/>
        <pt x="862" y="376" on="0"/>
        <pt x="807" y="304" on="0"/>
        <pt x="757" y="296" on="1"/>
        <pt x="757" y="293" on="1"/>
        <pt x="817" y="284" on="0"/>
        <pt x="883" y="210" on="0"/>
        <pt x="883" y="150" on="1"/>
        <pt x="883" y="-8" on="0"/>
      </contour>
      <contour>
        <pt x="673" y="23" on="1"/>
        <pt x="845" y="23" on="0"/>
        <pt x="845" y="150" on="1"/>
        <pt x="845" y="216" on="0"/>
        <pt x="761" y="276" on="0"/>
        <pt x="667" y="276" on="1"/>
        <pt x="540" y="276" on="1"/>
        <pt x="540" y="32" on="1"/>
        <pt x="549" y="30" on="0"/>
        <pt x="579" y="27" on="0"/>
        <pt x="615" y="24" on="0"/>
        <pt x="655" y="23" on="0"/>
      </contour>
      <contour>
        <pt x="667" y="309" on="1"/>
        <pt x="753" y="309" on="0"/>
        <pt x="825" y="364" on="0"/>
        <pt x="825" y="431" on="1"/>
        <pt x="825" y="494" on="0"/>
        <pt x="748" y="552" on="0"/>
        <pt x="662" y="552" on="1"/>
        <pt x="627" y="552" on="0"/>
        <pt x="570" y="549" on="0"/>
        <pt x="540" y="545" on="1"/>
        <pt x="540" y="309" on="1"/>
      </contour>
    </TTGlyph>
    <TTGlyph name="F_F.sc" xMin="82" yMin="0" xMax="826" yMax="577">
      <contour>
        <pt x="82" y="577" on="1"/>
        <pt x="404" y="577" on="1"/>
        <pt x="404" y="544" on="1"/>
        <pt x="118" y="544" on="1"/>
        <pt x="118" y="309" on="1"/>
        <pt x="384" y="309" on="1"/>
        <pt x="384" y="275" on="1"/>
        <pt x="118" y="275" on="1"/>
        <pt x="118" y="0" on="1"/>
        <pt x="82" y="0" on="1"/>
      </contour>
      <contour>
        <pt x="504" y="577" on="1"/>
        <pt x="826" y="577" on="1"/>
        <pt x="826" y="544" on="1"/>
        <pt x="540" y="544" on="1"/>
        <pt x="540" y="309" on="1"/>
        <pt x="806" y="309" on="1"/>
        <pt x="806" y="275" on="1"/>
        <pt x="540" y="275" on="1"/>
        <pt x="540" y="0" on="1"/>
        <pt x="504" y="0" on="1"/>
      </contour>
    </TTGlyph>
    <TTGlyph name="F_F_B.sc" xMin="82" yMin="-8" xMax="1305" yMax="585">
      <contour>
        <pt x="82" y="577" on="1"/>
        <pt x="404" y="577" on="1"/>
        <pt x="404" y="544" on="1"/>
        <pt x="118" y="544" on="1"/>
        <pt x="118" y="309" on="1"/>
        <pt x="384" y="309" on="1"/>
        <pt x="384" y="275" on="1"/>
        <pt x="118" y="275" on="1"/>
        <pt x="118" y="0" on="1"/>
        <pt x="82" y="0" on="1"/>
      </contour>
      <contour>
        <pt x="504" y="577" on="1"/>
        <pt x="826" y="577" on="1"/>
        <pt x="826" y="544" on="1"/>
        <pt x="540" y="544" on="1"/>
        <pt x="540" y="309" on="1"/>
        <pt x="806" y="309" on="1"/>
        <pt x="806" y="275" on="1"/>
        <pt x="540" y="275" on="1"/>
        <pt x="540" y="0" on="1"/>
        <pt x="504" y="0" on="1"/>
      </contour>
      <contour>
        <pt x="1094" y="-8" on="1"/>
        <pt x="1056" y="-8" on="0"/>
        <pt x="961" y="-1" on="0"/>
        <pt x="926" y="4" on="1"/>
        <pt x="926" y="574" on="1"/>
        <pt x="955" y="577" on="0"/>
        <pt x="999" y="581" on="0"/>
        <pt x="1035" y="584" on="0"/>
        <pt x="1067" y="585" on="0"/>
        <pt x="1083" y="585" on="1"/>
        <pt x="1189" y="585" on="0"/>
        <pt x="1284" y="511" on="0"/>
        <pt x="1284" y="431" on="1"/>
        <pt x="1284" y="376" on="0"/>
        <pt x="1229" y="304" on="0"/>
        <pt x="1179" y="296" on="1"/>
        <pt x="1179" y="293" on="1"/>
        <pt x="1239" y="284" on="0"/>
        <pt x="1305" y="210" on="0"/>
        <pt x="1305" y="150" on="1"/>
        <pt x="1305" y="-8" on="0"/>
      </contour>
      <contour>
        <pt x="1095" y="23" on="1"/>
        <pt x="1267" y="23" on="0"/>
        <pt x="1267" y="150" on="1"/>
        <pt x="1267" y="216" on="0"/>
        <pt x="1183" y="276" on="0"/>
        <pt x="1089" y="276" on="1"/>
        <pt x="962" y="276" on="1"/>
        <pt x="962" y="32" on="1"/>
        <pt x="971" y="30" on="0"/>
        <pt x="1001" y="27" on="0"/>
        <pt x="1037" y="24" on="0"/>
        <pt x="1077" y="23" on="0"/>
      </contour>
      <contour>
        <pt x="1089" y="309" on="1"/>
        <pt x="1175" y="309" on="0"/>
        <pt x="1247" y="364" on="0"/>
        <pt x="1247" y="431" on="1"/>
        <pt x="1247" y="494" on="0"/>
        <pt x="1170" y="552" on="0"/>
        <pt x="1084" y="552" on="1"/>
        <pt x="1049" y="552" on="0"/>
        <pt x="992" y="549" on="0"/>
        <pt x="962" y="545" on="1"/>
        <pt x="962" y="309" on="1"/>
      </contour>
    </TTGlyph>
    <TTGlyph name="F_F_H.sc" xMin="82" yMin="0" xMax="1339" yMax="577">
      <contour>
        <pt x="82" y="577" on="1"/>
        <pt x="404" y="577" on="1"/>
        <pt x="404" y="544" on="1"/>
        <pt x="118" y="544" on="1"/>
        <pt x="118" y="309" on="1"/>
        <pt x="384" y="309" on="1"/>
        <pt x="384" y="275" on="1"/>
        <pt x="118" y="275" on="1"/>
        <pt x="118" y="0" on="1"/>
        <pt x="82" y="0" on="1"/>
      </contour>
      <contour>
        <pt x="504" y="577" on="1"/>
        <pt x="826" y="577" on="1"/>
        <pt x="826" y="544" on="1"/>
        <pt x="540" y="544" on="1"/>
        <pt x="540" y="309" on="1"/>
        <pt x="806" y="309" on="1"/>
        <pt x="806" y="275" on="1"/>
        <pt x="540" y="275" on="1"/>
        <pt x="540" y="0" on="1"/>
        <pt x="504" y="0" on="1"/>
      </contour>
      <contour>
        <pt x="926" y="577" on="1"/>
        <pt x="962" y="577" on="1"/>
        <pt x="962" y="312" on="1"/>
        <pt x="1303" y="312" on="1"/>
        <pt x="1303" y="577" on="1"/>
        <pt x="1339" y="577" on="1"/>
        <pt x="1339" y="0" on="1"/>
        <pt x="1303" y="0" on="1"/>
        <pt x="1303" y="278" on="1"/>
        <pt x="962" y="278" on="1"/>
        <pt x="962" y="0" on="1"/>
        <pt x="926" y="0" on="1"/>
      </contour>
    </TTGlyph>
    <TTGlyph name="F_F_I.sc" xMin="82" yMin="0" xMax="962" yMax="577">
      <contour>
        <pt x="82" y="577" on="1"/>
        <pt x="404" y="577" on="1"/>
        <pt x="404" y="544" on="1"/>
        <pt x="118" y="544" on="1"/>
        <pt x="118" y="309" on="1"/>
        <pt x="384" y="309" on="1"/>
        <pt x="384" y="275" on="1"/>
        <pt x="118" y="275" on="1"/>
        <pt x="118" y="0" on="1"/>
        <pt x="82" y="0" on="1"/>
      </contour>
      <contour>
        <pt x="504" y="577" on="1"/>
        <pt x="826" y="577" on="1"/>
        <pt x="826" y="544" on="1"/>
        <pt x="540" y="544" on="1"/>
        <pt x="540" y="309" on="1"/>
        <pt x="806" y="309" on="1"/>
        <pt x="806" y="275" on="1"/>
        <pt x="540" y="275" on="1"/>
        <pt x="540" y="0" on="1"/>
        <pt x="504" y="0" on="1"/>
      </contour>
      <contour>
        <pt x="926" y="577" on="1"/>
        <pt x="962" y="577" on="1"/>
        <pt x="962" y="0" on="1"/>
        <pt x="926" y="0" on="1"/>
      </contour>
    </TTGlyph>
    <TTGlyph name="F_F_J.sc" xMin="82" yMin="-139" xMax="974" yMax="577">
      <contour>
        <pt x="82" y="577" on="1"/>
        <pt x="404" y="577" on="1"/>
        <pt x="404" y="544" on="1"/>
        <pt x="118" y="544" on="1"/>
        <pt x="118" y="309" on="1"/>
        <pt x="384" y="309" on="1"/>
        <pt x="384" y="275" on="1"/>
        <pt x="118" y="275" on="1"/>
        <pt x="118" y="0" on="1"/>
        <pt x="82" y="0" on="1"/>
      </contour>
      <contour>
        <pt x="504" y="577" on="1"/>
        <pt x="826" y="577" on="1"/>
        <pt x="826" y="544" on="1"/>
        <pt x="540" y="544" on="1"/>
        <pt x="540" y="309" on="1"/>
        <pt x="806" y="309" on="1"/>
        <pt x="806" y="275" on="1"/>
        <pt x="540" y="275" on="1"/>
        <pt x="540" y="0" on="1"/>
        <pt x="504" y="0" on="1"/>
      </contour>
      <contour>
        <pt x="868" y="-124" on="1"/>
        <pt x="889" y="-84" on="0"/>
        <pt x="916" y="-20" on="0"/>
        <pt x="932" y="40" on="0"/>
        <pt x="938" y="102" on="0"/>
        <pt x="938" y="141" on="1"/>
        <pt x="938" y="577" on="1"/>
        <pt x="974" y="577" on="1"/>
        <pt x="974" y="140" on="1"/>
        <pt x="974" y="103" on="0"/>
        <pt x="965" y="35" on="0"/>
        <pt x="946" y="-31" on="0"/>
        <pt x="916" y="-100" on="0"/>
        <pt x="894" y="-139" on="1"/>
      </contour>
    </TTGlyph>
    <TTGlyph name="F_F_K.sc" xMin="82" yMin="0" xMax="1337" yMax="577">
      <contour>
        <pt x="82" y="577" on="1"/>
        <pt x="404" y="577" on="1"/>
        <pt x="404" y="544" on="1"/>
        <pt x="118" y="544" on="1"/>
        <pt x="118" y="309" on="1"/>
        <pt x="384" y="309" on="1"/>
        <pt x="384" y="275" on="1"/>
        <pt x="118" y="275" on="1"/>
        <pt x="118" y="0" on="1"/>
        <pt x="82" y="0" on="1"/>
      </contour>
      <contour>
        <pt x="504" y="577" on="1"/>
        <pt x="826" y="577" on="1"/>
        <pt x="826" y="544" on="1"/>
        <pt x="540" y="544" on="1"/>
        <pt x="540" y="309" on="1"/>
        <pt x="806" y="309" on="1"/>
        <pt x="806" y="275" on="1"/>
        <pt x="540" y="275" on="1"/>
        <pt x="540" y="0" on="1"/>
        <pt x="504" y="0" on="1"/>
      </contour>
      <contour>
        <pt x="926" y="577" on="1"/>
        <pt x="962" y="577" on="1"/>
        <pt x="962" y="311" on="1"/>
        <pt x="1062" y="311" on="1"/>
        <pt x="1277" y="577" on="1"/>
        <pt x="1321" y="577" on="1"/>
        <pt x="1112" y="316" on="1"/>
        <pt x="1090" y="297" on="1"/>
        <pt x="1090" y="293" on="1"/>
        <pt x="1113" y="275" on="1"/>
        <pt x="1337" y="0" on="1"/>
        <pt x="1294" y="0" on="1"/>
        <pt x="1067" y="277" on="1"/>
        <pt x="962" y="277" on="1"/>
        <pt x="962" y="0" on="1"/>
        <pt x="926" y="0" on="1"/>
      </contour>
    </TTGlyph>
    <TTGlyph name="F_F_L.sc" xMin="82" yMin="0" xMax="1212" yMax="577">
      <contour>
        <pt x="926" y="577" on="1"/>
        <pt x="962" y="577" on="1"/>
        <pt x="962" y="34" on="1"/>
        <pt x="1212" y="34" on="1"/>
        <pt x="1212" y="0" on="1"/>
        <pt x="926" y="0" on="1"/>
      </contour>
      <contour>
        <pt x="82" y="577" on="1"/>
        <pt x="404" y="577" on="1"/>
        <pt x="404" y="544" on="1"/>
        <pt x="118" y="544" on="1"/>
        <pt x="118" y="309" on="1"/>
        <pt x="384" y="309" on="1"/>
        <pt x="384" y="275" on="1"/>
        <pt x="118" y="275" on="1"/>
        <pt x="118" y="0" on="1"/>
        <pt x="82" y="0" on="1"/>
      </contour>
      <contour>
        <pt x="504" y="577" on="1"/>
        <pt x="826" y="577" on="1"/>
        <pt x="826" y="544" on="1"/>
        <pt x="540" y="544" on="1"/>
        <pt x="540" y="309" on="1"/>
        <pt x="806" y="309" on="1"/>
        <pt x="806" y="275" on="1"/>
        <pt x="540" y="275" on="1"/>
        <pt x="540" y="0" on="1"/>
        <pt x="504" y="0" on="1"/>
      </contour>
    </TTGlyph>
    <TTGlyph name="F_F_T.sc" xMin="82" yMin="0" xMax="1252" yMax="577">
      <contour>
        <pt x="1033" y="543" on="1"/>
        <pt x="849" y="543" on="1"/>
        <pt x="849" y="577" on="1"/>
        <pt x="1252" y="577" on="1"/>
        <pt x="1252" y="543" on="1"/>
        <pt x="1069" y="543" on="1"/>
        <pt x="1069" y="0" on="1"/>
        <pt x="1033" y="0" on="1"/>
      </contour>
      <contour>
        <pt x="82" y="577" on="1"/>
        <pt x="404" y="577" on="1"/>
        <pt x="404" y="544" on="1"/>
        <pt x="118" y="544" on="1"/>
        <pt x="118" y="309" on="1"/>
        <pt x="384" y="309" on="1"/>
        <pt x="384" y="275" on="1"/>
        <pt x="118" y="275" on="1"/>
        <pt x="118" y="0" on="1"/>
        <pt x="82" y="0" on="1"/>
      </contour>
      <contour>
        <pt x="504" y="577" on="1"/>
        <pt x="826" y="577" on="1"/>
        <pt x="826" y="544" on="1"/>
        <pt x="540" y="544" on="1"/>
        <pt x="540" y="309" on="1"/>
        <pt x="806" y="309" on="1"/>
        <pt x="806" y="275" on="1"/>
        <pt x="540" y="275" on="1"/>
        <pt x="540" y="0" on="1"/>
        <pt x="504" y="0" on="1"/>
      </contour>
    </TTGlyph>
    <TTGlyph name="F_H.sc" xMin="82" yMin="0" xMax="917" yMax="577">
      <contour>
        <pt x="82" y="577" on="1"/>
        <pt x="404" y="577" on="1"/>
        <pt x="404" y="544" on="1"/>
        <pt x="118" y="544" on="1"/>
        <pt x="118" y="309" on="1"/>
        <pt x="384" y="309" on="1"/>
        <pt x="384" y="275" on="1"/>
        <pt x="118" y="275" on="1"/>
        <pt x="118" y="0" on="1"/>
        <pt x="82" y="0" on="1"/>
      </contour>
      <contour>
        <pt x="504" y="577" on="1"/>
        <pt x="540" y="577" on="1"/>
        <pt x="540" y="312" on="1"/>
        <pt x="881" y="312" on="1"/>
        <pt x="881" y="577" on="1"/>
        <pt x="917" y="577" on="1"/>
        <pt x="917" y="0" on="1"/>
        <pt x="881" y="0" on="1"/>
        <pt x="881" y="278" on="1"/>
        <pt x="540" y="278" on="1"/>
        <pt x="540" y="0" on="1"/>
        <pt x="504" y="0" on="1"/>
      </contour>
    </TTGlyph>
    <TTGlyph name="F_I.sc" xMin="82" yMin="0" xMax="540" yMax="577">
      <contour>
        <pt x="82" y="577" on="1"/>
        <pt x="404" y="577" on="1"/>
        <pt x="404" y="544" on="1"/>
        <pt x="118" y="544" on="1"/>
        <pt x="118" y="309" on="1"/>
        <pt x="384" y="309" on="1"/>
        <pt x="384" y="275" on="1"/>
        <pt x="118" y="275" on="1"/>
        <pt x="118" y="0" on="1"/>
        <pt x="82" y="0" on="1"/>
      </contour>
      <contour>
        <pt x="504" y="577" on="1"/>
        <pt x="540" y="577" on="1"/>
        <pt x="540" y="0" on="1"/>
        <pt x="504" y="0" on="1"/>
      </contour>
    </TTGlyph>
    <TTGlyph name="F_J.sc" xMin="82" yMin="-139" xMax="552" yMax="577">
      <contour>
        <pt x="82" y="577" on="1"/>
        <pt x="404" y="577" on="1"/>
        <pt x="404" y="544" on="1"/>
        <pt x="118" y="544" on="1"/>
        <pt x="118" y="309" on="1"/>
        <pt x="384" y="309" on="1"/>
        <pt x="384" y="275" on="1"/>
        <pt x="118" y="275" on="1"/>
        <pt x="118" y="0" on="1"/>
        <pt x="82" y="0" on="1"/>
      </contour>
      <contour>
        <pt x="446" y="-124" on="1"/>
        <pt x="467" y="-84" on="0"/>
        <pt x="494" y="-20" on="0"/>
        <pt x="510" y="40" on="0"/>
        <pt x="516" y="102" on="0"/>
        <pt x="516" y="141" on="1"/>
        <pt x="516" y="577" on="1"/>
        <pt x="552" y="577" on="1"/>
        <pt x="552" y="140" on="1"/>
        <pt x="552" y="103" on="0"/>
        <pt x="543" y="35" on="0"/>
        <pt x="524" y="-31" on="0"/>
        <pt x="494" y="-100" on="0"/>
        <pt x="472" y="-139" on="1"/>
      </contour>
    </TTGlyph>
    <TTGlyph name="F_K.sc" xMin="82" yMin="0" xMax="915" yMax="577">
      <contour>
        <pt x="82" y="577" on="1"/>
        <pt x="404" y="577" on="1"/>
        <pt x="404" y="544" on="1"/>
        <pt x="118" y="544" on="1"/>
        <pt x="118" y="309" on="1"/>
        <pt x="384" y="309" on="1"/>
        <pt x="384" y="275" on="1"/>
        <pt x="118" y="275" on="1"/>
        <pt x="118" y="0" on="1"/>
        <pt x="82" y="0" on="1"/>
      </contour>
      <contour>
        <pt x="504" y="577" on="1"/>
        <pt x="540" y="577" on="1"/>
        <pt x="540" y="311" on="1"/>
        <pt x="640" y="311" on="1"/>
        <pt x="855" y="577" on="1"/>
        <pt x="899" y="577" on="1"/>
        <pt x="690" y="316" on="1"/>
        <pt x="668" y="297" on="1"/>
        <pt x="668" y="293" on="1"/>
        <pt x="691" y="275" on="1"/>
        <pt x="915" y="0" on="1"/>
        <pt x="872" y="0" on="1"/>
        <pt x="645" y="277" on="1"/>
        <pt x="540" y="277" on="1"/>
        <pt x="540" y="0" on="1"/>
        <pt x="504" y="0" on="1"/>
      </contour>
    </TTGlyph>
    <TTGlyph name="F_L.sc" xMin="82" yMin="0" xMax="790" yMax="577">
      <contour>
        <pt x="504" y="577" on="1"/>
        <pt x="540" y="577" on="1"/>
        <pt x="540" y="34" on="1"/>
        <pt x="790" y="34" on="1"/>
        <pt x="790" y="0" on="1"/>
        <pt x="504" y="0" on="1"/>
      </contour>
      <contour>
        <pt x="82" y="577" on="1"/>
        <pt x="404" y="577" on="1"/>
        <pt x="404" y="544" on="1"/>
        <pt x="118" y="544" on="1"/>
        <pt x="118" y="309" on="1"/>
        <pt x="384" y="309" on="1"/>
        <pt x="384" y="275" on="1"/>
        <pt x="118" y="275" on="1"/>
        <pt x="118" y="0" on="1"/>
        <pt x="82" y="0" on="1"/>
      </contour>
    </TTGlyph>
    <TTGlyph name="F_T.sc" xMin="82" yMin="0" xMax="829" yMax="577">
      <contour>
        <pt x="610" y="543" on="1"/>
        <pt x="426" y="543" on="1"/>
        <pt x="426" y="577" on="1"/>
        <pt x="829" y="577" on="1"/>
        <pt x="829" y="543" on="1"/>
        <pt x="646" y="543" on="1"/>
        <pt x="646" y="0" on="1"/>
        <pt x="610" y="0" on="1"/>
      </contour>
      <contour>
        <pt x="82" y="577" on="1"/>
        <pt x="404" y="577" on="1"/>
        <pt x="404" y="544" on="1"/>
        <pt x="118" y="544" on="1"/>
        <pt x="118" y="309" on="1"/>
        <pt x="384" y="309" on="1"/>
        <pt x="384" y="275" on="1"/>
        <pt x="118" y="275" on="1"/>
        <pt x="118" y="0" on="1"/>
        <pt x="82" y="0" on="1"/>
      </contour>
    </TTGlyph>
    <TTGlyph name="G" xMin="52" yMin="-9" xMax="510" yMax="748">
      <contour>
        <pt x="363" y="-9" on="1"/>
        <pt x="202" y="-8" on="0"/>
        <pt x="52" y="175" on="0"/>
        <pt x="52" y="369" on="1"/>
        <pt x="52" y="469" on="0"/>
        <pt x="88" y="613" on="0"/>
        <pt x="164" y="705" on="0"/>
        <pt x="282" y="748" on="0"/>
        <pt x="364" y="748" on="1"/>
        <pt x="392" y="748" on="0"/>
        <pt x="472" y="739" on="0"/>
        <pt x="510" y="731" on="1"/>
        <pt x="510" y="695" on="1"/>
        <pt x="468" y="704" on="0"/>
        <pt x="400" y="713" on="0"/>
        <pt x="368" y="713" on="1"/>
        <pt x="295" y="713" on="0"/>
        <pt x="190" y="674" on="0"/>
        <pt x="122" y="590" on="0"/>
        <pt x="90" y="460" on="0"/>
        <pt x="90" y="369" on="1"/>
        <pt x="90" y="193" on="0"/>
        <pt x="222" y="26" on="0"/>
        <pt x="361" y="26" on="1"/>
        <pt x="379" y="26" on="0"/>
        <pt x="442" y="32" on="0"/>
        <pt x="474" y="37" on="1"/>
        <pt x="474" y="376" on="1"/>
        <pt x="510" y="376" on="1"/>
        <pt x="510" y="8" on="1"/>
        <pt x="468" y="0" on="0"/>
        <pt x="397" y="-9" on="0"/>
      </contour>
    </TTGlyph>
    <TTGlyph name="G.sc" xMin="51" yMin="-8" xMax="448" yMax="584">
      <contour>
        <pt x="317" y="-8" on="1"/>
        <pt x="179" y="-6" on="0"/>
        <pt x="51" y="136" on="0"/>
        <pt x="51" y="288" on="1"/>
        <pt x="51" y="442" on="0"/>
        <pt x="180" y="584" on="0"/>
        <pt x="321" y="584" on="1"/>
        <pt x="345" y="584" on="0"/>
        <pt x="414" y="577" on="0"/>
        <pt x="448" y="569" on="1"/>
        <pt x="448" y="535" on="1"/>
        <pt x="410" y="543" on="0"/>
        <pt x="352" y="550" on="0"/>
        <pt x="323" y="550" on="1"/>
        <pt x="200" y="550" on="0"/>
        <pt x="89" y="425" on="0"/>
        <pt x="89" y="288" on="1"/>
        <pt x="89" y="154" on="0"/>
        <pt x="200" y="27" on="0"/>
        <pt x="317" y="27" on="1"/>
        <pt x="333" y="27" on="0"/>
        <pt x="387" y="31" on="0"/>
        <pt x="413" y="36" on="1"/>
        <pt x="413" y="293" on="1"/>
        <pt x="448" y="293" on="1"/>
        <pt x="448" y="8" on="1"/>
        <pt x="412" y="0" on="0"/>
        <pt x="347" y="-8" on="0"/>
      </contour>
    </TTGlyph>
    <TTGlyph name="Gacute" xMin="52" yMin="-9" xMax="510" yMax="916">
      <contour>
        <pt x="316" y="793" on="1"/>
        <pt x="395" y="916" on="1"/>
        <pt x="435" y="916" on="1"/>
        <pt x="349" y="789" on="1"/>
      </contour>
      <contour>
        <pt x="363" y="-9" on="1"/>
        <pt x="202" y="-8" on="0"/>
        <pt x="52" y="175" on="0"/>
        <pt x="52" y="369" on="1"/>
        <pt x="52" y="469" on="0"/>
        <pt x="88" y="613" on="0"/>
        <pt x="164" y="705" on="0"/>
        <pt x="282" y="748" on="0"/>
        <pt x="364" y="748" on="1"/>
        <pt x="392" y="748" on="0"/>
        <pt x="472" y="739" on="0"/>
        <pt x="510" y="731" on="1"/>
        <pt x="510" y="695" on="1"/>
        <pt x="468" y="704" on="0"/>
        <pt x="400" y="713" on="0"/>
        <pt x="368" y="713" on="1"/>
        <pt x="295" y="713" on="0"/>
        <pt x="190" y="674" on="0"/>
        <pt x="122" y="590" on="0"/>
        <pt x="90" y="460" on="0"/>
        <pt x="90" y="369" on="1"/>
        <pt x="90" y="193" on="0"/>
        <pt x="222" y="26" on="0"/>
        <pt x="361" y="26" on="1"/>
        <pt x="379" y="26" on="0"/>
        <pt x="442" y="32" on="0"/>
        <pt x="474" y="37" on="1"/>
        <pt x="474" y="376" on="1"/>
        <pt x="510" y="376" on="1"/>
        <pt x="510" y="8" on="1"/>
        <pt x="468" y="0" on="0"/>
        <pt x="397" y="-9" on="0"/>
      </contour>
    </TTGlyph>
    <TTGlyph name="Gacute.sc" xMin="51" yMin="-8" xMax="448" yMax="719">
      <contour>
        <pt x="317" y="-8" on="1"/>
        <pt x="179" y="-6" on="0"/>
        <pt x="51" y="136" on="0"/>
        <pt x="51" y="288" on="1"/>
        <pt x="51" y="442" on="0"/>
        <pt x="180" y="584" on="0"/>
        <pt x="321" y="584" on="1"/>
        <pt x="345" y="584" on="0"/>
        <pt x="414" y="577" on="0"/>
        <pt x="448" y="569" on="1"/>
        <pt x="448" y="535" on="1"/>
        <pt x="410" y="543" on="0"/>
        <pt x="352" y="550" on="0"/>
        <pt x="323" y="550" on="1"/>
        <pt x="200" y="550" on="0"/>
        <pt x="89" y="425" on="0"/>
        <pt x="89" y="288" on="1"/>
        <pt x="89" y="154" on="0"/>
        <pt x="200" y="27" on="0"/>
        <pt x="317" y="27" on="1"/>
        <pt x="333" y="27" on="0"/>
        <pt x="387" y="31" on="0"/>
        <pt x="413" y="36" on="1"/>
        <pt x="413" y="293" on="1"/>
        <pt x="448" y="293" on="1"/>
        <pt x="448" y="8" on="1"/>
        <pt x="412" y="0" on="0"/>
        <pt x="347" y="-8" on="0"/>
      </contour>
      <contour>
        <pt x="276" y="620" on="1"/>
        <pt x="342" y="719" on="1"/>
        <pt x="381" y="719" on="1"/>
        <pt x="308" y="617" on="1"/>
      </contour>
    </TTGlyph>
    <TTGlyph name="Gbreve" xMin="52" yMin="-9" xMax="510" yMax="948">
      <contour>
        <pt x="338" y="816" on="1"/>
        <pt x="271" y="816" on="0"/>
        <pt x="195" y="886" on="0"/>
        <pt x="195" y="948" on="1"/>
        <pt x="230" y="948" on="1"/>
        <pt x="230" y="902" on="0"/>
        <pt x="287" y="850" on="0"/>
        <pt x="338" y="850" on="1"/>
        <pt x="389" y="850" on="0"/>
        <pt x="446" y="902" on="0"/>
        <pt x="446" y="948" on="1"/>
        <pt x="482" y="948" on="1"/>
        <pt x="482" y="886" on="0"/>
        <pt x="406" y="816" on="0"/>
      </contour>
      <contour>
        <pt x="363" y="-9" on="1"/>
        <pt x="202" y="-8" on="0"/>
        <pt x="52" y="175" on="0"/>
        <pt x="52" y="369" on="1"/>
        <pt x="52" y="469" on="0"/>
        <pt x="88" y="613" on="0"/>
        <pt x="164" y="705" on="0"/>
        <pt x="282" y="748" on="0"/>
        <pt x="364" y="748" on="1"/>
        <pt x="392" y="748" on="0"/>
        <pt x="472" y="739" on="0"/>
        <pt x="510" y="731" on="1"/>
        <pt x="510" y="695" on="1"/>
        <pt x="468" y="704" on="0"/>
        <pt x="400" y="713" on="0"/>
        <pt x="368" y="713" on="1"/>
        <pt x="295" y="713" on="0"/>
        <pt x="190" y="674" on="0"/>
        <pt x="122" y="590" on="0"/>
        <pt x="90" y="460" on="0"/>
        <pt x="90" y="369" on="1"/>
        <pt x="90" y="193" on="0"/>
        <pt x="222" y="26" on="0"/>
        <pt x="361" y="26" on="1"/>
        <pt x="379" y="26" on="0"/>
        <pt x="442" y="32" on="0"/>
        <pt x="474" y="37" on="1"/>
        <pt x="474" y="376" on="1"/>
        <pt x="510" y="376" on="1"/>
        <pt x="510" y="8" on="1"/>
        <pt x="468" y="0" on="0"/>
        <pt x="397" y="-9" on="0"/>
      </contour>
    </TTGlyph>
    <TTGlyph name="Gbreve.sc" xMin="51" yMin="-8" xMax="448" yMax="742">
      <contour>
        <pt x="317" y="-8" on="1"/>
        <pt x="179" y="-6" on="0"/>
        <pt x="51" y="136" on="0"/>
        <pt x="51" y="288" on="1"/>
        <pt x="51" y="442" on="0"/>
        <pt x="180" y="584" on="0"/>
        <pt x="321" y="584" on="1"/>
        <pt x="345" y="584" on="0"/>
        <pt x="414" y="577" on="0"/>
        <pt x="448" y="569" on="1"/>
        <pt x="448" y="535" on="1"/>
        <pt x="410" y="543" on="0"/>
        <pt x="352" y="550" on="0"/>
        <pt x="323" y="550" on="1"/>
        <pt x="200" y="550" on="0"/>
        <pt x="89" y="425" on="0"/>
        <pt x="89" y="288" on="1"/>
        <pt x="89" y="154" on="0"/>
        <pt x="200" y="27" on="0"/>
        <pt x="317" y="27" on="1"/>
        <pt x="333" y="27" on="0"/>
        <pt x="387" y="31" on="0"/>
        <pt x="413" y="36" on="1"/>
        <pt x="413" y="293" on="1"/>
        <pt x="448" y="293" on="1"/>
        <pt x="448" y="8" on="1"/>
        <pt x="412" y="0" on="0"/>
        <pt x="347" y="-8" on="0"/>
      </contour>
      <contour>
        <pt x="297" y="635" on="1"/>
        <pt x="238" y="635" on="0"/>
        <pt x="171" y="692" on="0"/>
        <pt x="171" y="742" on="1"/>
        <pt x="204" y="742" on="1"/>
        <pt x="204" y="705" on="0"/>
        <pt x="253" y="665" on="0"/>
        <pt x="297" y="665" on="1"/>
        <pt x="340" y="665" on="0"/>
        <pt x="389" y="705" on="0"/>
        <pt x="389" y="742" on="1"/>
        <pt x="422" y="742" on="1"/>
        <pt x="422" y="692" on="0"/>
        <pt x="355" y="635" on="0"/>
      </contour>
    </TTGlyph>
    <TTGlyph name="Gcircumflex" xMin="52" yMin="-9" xMax="510" yMax="933">
      <contour>
        <pt x="363" y="-9" on="1"/>
        <pt x="202" y="-8" on="0"/>
        <pt x="52" y="175" on="0"/>
        <pt x="52" y="369" on="1"/>
        <pt x="52" y="469" on="0"/>
        <pt x="88" y="613" on="0"/>
        <pt x="164" y="705" on="0"/>
        <pt x="282" y="748" on="0"/>
        <pt x="364" y="748" on="1"/>
        <pt x="392" y="748" on="0"/>
        <pt x="472" y="739" on="0"/>
        <pt x="510" y="731" on="1"/>
        <pt x="510" y="695" on="1"/>
        <pt x="468" y="704" on="0"/>
        <pt x="400" y="713" on="0"/>
        <pt x="368" y="713" on="1"/>
        <pt x="295" y="713" on="0"/>
        <pt x="190" y="674" on="0"/>
        <pt x="122" y="590" on="0"/>
        <pt x="90" y="460" on="0"/>
        <pt x="90" y="369" on="1"/>
        <pt x="90" y="193" on="0"/>
        <pt x="222" y="26" on="0"/>
        <pt x="361" y="26" on="1"/>
        <pt x="379" y="26" on="0"/>
        <pt x="442" y="32" on="0"/>
        <pt x="474" y="37" on="1"/>
        <pt x="474" y="376" on="1"/>
        <pt x="510" y="376" on="1"/>
        <pt x="510" y="8" on="1"/>
        <pt x="468" y="0" on="0"/>
        <pt x="397" y="-9" on="0"/>
      </contour>
      <contour>
        <pt x="208" y="861" on="1"/>
        <pt x="337" y="933" on="1"/>
        <pt x="466" y="861" on="1"/>
        <pt x="466" y="819" on="1"/>
        <pt x="337" y="891" on="1"/>
        <pt x="208" y="819" on="1"/>
      </contour>
    </TTGlyph>
    <TTGlyph name="Gcircumflex.sc" xMin="51" yMin="-8" xMax="448" yMax="730">
      <contour>
        <pt x="317" y="-8" on="1"/>
        <pt x="179" y="-6" on="0"/>
        <pt x="51" y="136" on="0"/>
        <pt x="51" y="288" on="1"/>
        <pt x="51" y="442" on="0"/>
        <pt x="180" y="584" on="0"/>
        <pt x="321" y="584" on="1"/>
        <pt x="345" y="584" on="0"/>
        <pt x="414" y="577" on="0"/>
        <pt x="448" y="569" on="1"/>
        <pt x="448" y="535" on="1"/>
        <pt x="410" y="543" on="0"/>
        <pt x="352" y="550" on="0"/>
        <pt x="323" y="550" on="1"/>
        <pt x="200" y="550" on="0"/>
        <pt x="89" y="425" on="0"/>
        <pt x="89" y="288" on="1"/>
        <pt x="89" y="154" on="0"/>
        <pt x="200" y="27" on="0"/>
        <pt x="317" y="27" on="1"/>
        <pt x="333" y="27" on="0"/>
        <pt x="387" y="31" on="0"/>
        <pt x="413" y="36" on="1"/>
        <pt x="413" y="293" on="1"/>
        <pt x="448" y="293" on="1"/>
        <pt x="448" y="8" on="1"/>
        <pt x="412" y="0" on="0"/>
        <pt x="347" y="-8" on="0"/>
      </contour>
      <contour>
        <pt x="183" y="674" on="1"/>
        <pt x="296" y="730" on="1"/>
        <pt x="408" y="674" on="1"/>
        <pt x="408" y="637" on="1"/>
        <pt x="296" y="693" on="1"/>
        <pt x="183" y="637" on="1"/>
      </contour>
    </TTGlyph>
    <TTGlyph name="Gcommaaccent" xMin="52" yMin="-220" xMax="510" yMax="748">
      <contour>
        <pt x="331" y="-67" on="1"/>
        <pt x="369" y="-67" on="1"/>
        <pt x="316" y="-220" on="1"/>
        <pt x="279" y="-220" on="1"/>
      </contour>
      <contour>
        <pt x="363" y="-9" on="1"/>
        <pt x="202" y="-8" on="0"/>
        <pt x="52" y="175" on="0"/>
        <pt x="52" y="369" on="1"/>
        <pt x="52" y="469" on="0"/>
        <pt x="88" y="613" on="0"/>
        <pt x="164" y="705" on="0"/>
        <pt x="282" y="748" on="0"/>
        <pt x="364" y="748" on="1"/>
        <pt x="392" y="748" on="0"/>
        <pt x="472" y="739" on="0"/>
        <pt x="510" y="731" on="1"/>
        <pt x="510" y="695" on="1"/>
        <pt x="468" y="704" on="0"/>
        <pt x="400" y="713" on="0"/>
        <pt x="368" y="713" on="1"/>
        <pt x="295" y="713" on="0"/>
        <pt x="190" y="674" on="0"/>
        <pt x="122" y="590" on="0"/>
        <pt x="90" y="460" on="0"/>
        <pt x="90" y="369" on="1"/>
        <pt x="90" y="193" on="0"/>
        <pt x="222" y="26" on="0"/>
        <pt x="361" y="26" on="1"/>
        <pt x="379" y="26" on="0"/>
        <pt x="442" y="32" on="0"/>
        <pt x="474" y="37" on="1"/>
        <pt x="474" y="376" on="1"/>
        <pt x="510" y="376" on="1"/>
        <pt x="510" y="8" on="1"/>
        <pt x="468" y="0" on="0"/>
        <pt x="397" y="-9" on="0"/>
      </contour>
    </TTGlyph>
    <TTGlyph name="Gcommaaccent.sc" xMin="51" yMin="-172" xMax="448" yMax="584">
      <contour>
        <pt x="317" y="-8" on="1"/>
        <pt x="179" y="-6" on="0"/>
        <pt x="51" y="136" on="0"/>
        <pt x="51" y="288" on="1"/>
        <pt x="51" y="442" on="0"/>
        <pt x="180" y="584" on="0"/>
        <pt x="321" y="584" on="1"/>
        <pt x="345" y="584" on="0"/>
        <pt x="414" y="577" on="0"/>
        <pt x="448" y="569" on="1"/>
        <pt x="448" y="535" on="1"/>
        <pt x="410" y="543" on="0"/>
        <pt x="352" y="550" on="0"/>
        <pt x="323" y="550" on="1"/>
        <pt x="200" y="550" on="0"/>
        <pt x="89" y="425" on="0"/>
        <pt x="89" y="288" on="1"/>
        <pt x="89" y="154" on="0"/>
        <pt x="200" y="27" on="0"/>
        <pt x="317" y="27" on="1"/>
        <pt x="333" y="27" on="0"/>
        <pt x="387" y="31" on="0"/>
        <pt x="413" y="36" on="1"/>
        <pt x="413" y="293" on="1"/>
        <pt x="448" y="293" on="1"/>
        <pt x="448" y="8" on="1"/>
        <pt x="412" y="0" on="0"/>
        <pt x="347" y="-8" on="0"/>
      </contour>
      <contour>
        <pt x="287" y="-53" on="1"/>
        <pt x="325" y="-53" on="1"/>
        <pt x="279" y="-172" on="1"/>
        <pt x="244" y="-172" on="1"/>
      </contour>
    </TTGlyph>
    <TTGlyph name="Gdotaccent" xMin="52" yMin="-9" xMax="510" yMax="869">
      <contour>
        <pt x="337" y="806" on="1"/>
        <pt x="324" y="806" on="0"/>
        <pt x="306" y="821" on="0"/>
        <pt x="306" y="837" on="1"/>
        <pt x="306" y="854" on="0"/>
        <pt x="324" y="869" on="0"/>
        <pt x="337" y="869" on="1"/>
        <pt x="350" y="869" on="0"/>
        <pt x="369" y="854" on="0"/>
        <pt x="369" y="837" on="1"/>
        <pt x="369" y="820" on="0"/>
        <pt x="350" y="806" on="0"/>
      </contour>
      <contour>
        <pt x="363" y="-9" on="1"/>
        <pt x="202" y="-8" on="0"/>
        <pt x="52" y="175" on="0"/>
        <pt x="52" y="369" on="1"/>
        <pt x="52" y="469" on="0"/>
        <pt x="88" y="613" on="0"/>
        <pt x="164" y="705" on="0"/>
        <pt x="282" y="748" on="0"/>
        <pt x="364" y="748" on="1"/>
        <pt x="392" y="748" on="0"/>
        <pt x="472" y="739" on="0"/>
        <pt x="510" y="731" on="1"/>
        <pt x="510" y="695" on="1"/>
        <pt x="468" y="704" on="0"/>
        <pt x="400" y="713" on="0"/>
        <pt x="368" y="713" on="1"/>
        <pt x="295" y="713" on="0"/>
        <pt x="190" y="674" on="0"/>
        <pt x="122" y="590" on="0"/>
        <pt x="90" y="460" on="0"/>
        <pt x="90" y="369" on="1"/>
        <pt x="90" y="193" on="0"/>
        <pt x="222" y="26" on="0"/>
        <pt x="361" y="26" on="1"/>
        <pt x="379" y="26" on="0"/>
        <pt x="442" y="32" on="0"/>
        <pt x="474" y="37" on="1"/>
        <pt x="474" y="376" on="1"/>
        <pt x="510" y="376" on="1"/>
        <pt x="510" y="8" on="1"/>
        <pt x="468" y="0" on="0"/>
        <pt x="397" y="-9" on="0"/>
      </contour>
    </TTGlyph>
    <TTGlyph name="Gdotaccent.sc" xMin="51" yMin="-8" xMax="448" yMax="685">
      <contour>
        <pt x="317" y="-8" on="1"/>
        <pt x="179" y="-6" on="0"/>
        <pt x="51" y="136" on="0"/>
        <pt x="51" y="288" on="1"/>
        <pt x="51" y="442" on="0"/>
        <pt x="180" y="584" on="0"/>
        <pt x="321" y="584" on="1"/>
        <pt x="345" y="584" on="0"/>
        <pt x="414" y="577" on="0"/>
        <pt x="448" y="569" on="1"/>
        <pt x="448" y="535" on="1"/>
        <pt x="410" y="543" on="0"/>
        <pt x="352" y="550" on="0"/>
        <pt x="323" y="550" on="1"/>
        <pt x="200" y="550" on="0"/>
        <pt x="89" y="425" on="0"/>
        <pt x="89" y="288" on="1"/>
        <pt x="89" y="154" on="0"/>
        <pt x="200" y="27" on="0"/>
        <pt x="317" y="27" on="1"/>
        <pt x="333" y="27" on="0"/>
        <pt x="387" y="31" on="0"/>
        <pt x="413" y="36" on="1"/>
        <pt x="413" y="293" on="1"/>
        <pt x="448" y="293" on="1"/>
        <pt x="448" y="8" on="1"/>
        <pt x="412" y="0" on="0"/>
        <pt x="347" y="-8" on="0"/>
      </contour>
      <contour>
        <pt x="296" y="629" on="1"/>
        <pt x="283" y="629" on="0"/>
        <pt x="267" y="643" on="0"/>
        <pt x="267" y="658" on="1"/>
        <pt x="267" y="672" on="0"/>
        <pt x="283" y="685" on="0"/>
        <pt x="296" y="685" on="1"/>
        <pt x="308" y="685" on="0"/>
        <pt x="326" y="672" on="0"/>
        <pt x="326" y="658" on="1"/>
        <pt x="326" y="643" on="0"/>
        <pt x="308" y="629" on="0"/>
      </contour>
    </TTGlyph>
    <TTGlyph name="H" xMin="87" yMin="0" xMax="560" yMax="740">
      <contour>
        <pt x="87" y="740" on="1"/>
        <pt x="123" y="740" on="1"/>
        <pt x="123" y="396" on="1"/>
        <pt x="524" y="396" on="1"/>
        <pt x="524" y="740" on="1"/>
        <pt x="560" y="740" on="1"/>
        <pt x="560" y="0" on="1"/>
        <pt x="524" y="0" on="1"/>
        <pt x="524" y="360" on="1"/>
        <pt x="123" y="360" on="1"/>
        <pt x="123" y="0" on="1"/>
        <pt x="87" y="0" on="1"/>
      </contour>
    </TTGlyph>
    <TTGlyph name="H.sc" xMin="82" yMin="0" xMax="495" yMax="577">
      <contour>
        <pt x="82" y="577" on="1"/>
        <pt x="118" y="577" on="1"/>
        <pt x="118" y="312" on="1"/>
        <pt x="459" y="312" on="1"/>
        <pt x="459" y="577" on="1"/>
        <pt x="495" y="577" on="1"/>
        <pt x="495" y="0" on="1"/>
        <pt x="459" y="0" on="1"/>
        <pt x="459" y="278" on="1"/>
        <pt x="118" y="278" on="1"/>
        <pt x="118" y="0" on="1"/>
        <pt x="82" y="0" on="1"/>
      </contour>
    </TTGlyph>
    <TTGlyph name="Hbar" xMin="3" yMin="0" xMax="674" yMax="740">
      <contour>
        <pt x="3" y="578" on="1"/>
        <pt x="102" y="578" on="1"/>
        <pt x="102" y="740" on="1"/>
        <pt x="138" y="740" on="1"/>
        <pt x="138" y="578" on="1"/>
        <pt x="539" y="578" on="1"/>
        <pt x="539" y="740" on="1"/>
        <pt x="575" y="740" on="1"/>
        <pt x="575" y="578" on="1"/>
        <pt x="674" y="578" on="1"/>
        <pt x="674" y="550" on="1"/>
        <pt x="575" y="550" on="1"/>
        <pt x="575" y="0" on="1"/>
        <pt x="539" y="0" on="1"/>
        <pt x="539" y="360" on="1"/>
        <pt x="138" y="360" on="1"/>
        <pt x="138" y="0" on="1"/>
        <pt x="102" y="0" on="1"/>
        <pt x="102" y="550" on="1"/>
        <pt x="3" y="550" on="1"/>
      </contour>
      <contour>
        <pt x="539" y="396" on="1"/>
        <pt x="539" y="550" on="1"/>
        <pt x="138" y="550" on="1"/>
        <pt x="138" y="396" on="1"/>
      </contour>
    </TTGlyph>
    <TTGlyph name="Hbar.sc" xMin="9" yMin="0" xMax="588" yMax="577">
      <contour>
        <pt x="9" y="453" on="1"/>
        <pt x="92" y="453" on="1"/>
        <pt x="92" y="577" on="1"/>
        <pt x="128" y="577" on="1"/>
        <pt x="128" y="453" on="1"/>
        <pt x="469" y="453" on="1"/>
        <pt x="469" y="577" on="1"/>
        <pt x="505" y="577" on="1"/>
        <pt x="505" y="453" on="1"/>
        <pt x="588" y="453" on="1"/>
        <pt x="588" y="428" on="1"/>
        <pt x="505" y="428" on="1"/>
        <pt x="505" y="0" on="1"/>
        <pt x="469" y="0" on="1"/>
        <pt x="469" y="278" on="1"/>
        <pt x="128" y="278" on="1"/>
        <pt x="128" y="0" on="1"/>
        <pt x="92" y="0" on="1"/>
        <pt x="92" y="428" on="1"/>
        <pt x="9" y="428" on="1"/>
      </contour>
      <contour>
        <pt x="469" y="312" on="1"/>
        <pt x="469" y="428" on="1"/>
        <pt x="128" y="428" on="1"/>
        <pt x="128" y="312" on="1"/>
      </contour>
    </TTGlyph>
    <TTGlyph name="Hcircumflex" xMin="87" yMin="0" xMax="560" yMax="933">
      <contour>
        <pt x="87" y="740" on="1"/>
        <pt x="123" y="740" on="1"/>
        <pt x="123" y="396" on="1"/>
        <pt x="524" y="396" on="1"/>
        <pt x="524" y="740" on="1"/>
        <pt x="560" y="740" on="1"/>
        <pt x="560" y="0" on="1"/>
        <pt x="524" y="0" on="1"/>
        <pt x="524" y="360" on="1"/>
        <pt x="123" y="360" on="1"/>
        <pt x="123" y="0" on="1"/>
        <pt x="87" y="0" on="1"/>
      </contour>
      <contour>
        <pt x="183" y="861" on="1"/>
        <pt x="312" y="933" on="1"/>
        <pt x="441" y="861" on="1"/>
        <pt x="441" y="819" on="1"/>
        <pt x="312" y="891" on="1"/>
        <pt x="183" y="819" on="1"/>
      </contour>
    </TTGlyph>
    <TTGlyph name="Hcircumflex.sc" xMin="82" yMin="0" xMax="495" yMax="730">
      <contour>
        <pt x="82" y="577" on="1"/>
        <pt x="118" y="577" on="1"/>
        <pt x="118" y="312" on="1"/>
        <pt x="459" y="312" on="1"/>
        <pt x="459" y="577" on="1"/>
        <pt x="495" y="577" on="1"/>
        <pt x="495" y="0" on="1"/>
        <pt x="459" y="0" on="1"/>
        <pt x="459" y="278" on="1"/>
        <pt x="118" y="278" on="1"/>
        <pt x="118" y="0" on="1"/>
        <pt x="82" y="0" on="1"/>
      </contour>
      <contour>
        <pt x="167" y="674" on="1"/>
        <pt x="280" y="730" on="1"/>
        <pt x="393" y="674" on="1"/>
        <pt x="393" y="637" on="1"/>
        <pt x="280" y="693" on="1"/>
        <pt x="167" y="637" on="1"/>
      </contour>
    </TTGlyph>
    <TTGlyph name="Hdotbelow" xMin="87" yMin="-163" xMax="560" yMax="740">
      <contour>
        <pt x="87" y="740" on="1"/>
        <pt x="123" y="740" on="1"/>
        <pt x="123" y="396" on="1"/>
        <pt x="524" y="396" on="1"/>
        <pt x="524" y="740" on="1"/>
        <pt x="560" y="740" on="1"/>
        <pt x="560" y="0" on="1"/>
        <pt x="524" y="0" on="1"/>
        <pt x="524" y="360" on="1"/>
        <pt x="123" y="360" on="1"/>
        <pt x="123" y="0" on="1"/>
        <pt x="87" y="0" on="1"/>
      </contour>
      <contour>
        <pt x="332" y="-163" on="1"/>
        <pt x="315" y="-163" on="0"/>
        <pt x="296" y="-147" on="0"/>
        <pt x="296" y="-127" on="1"/>
        <pt x="296" y="-107" on="0"/>
        <pt x="315" y="-91" on="0"/>
        <pt x="332" y="-91" on="1"/>
        <pt x="348" y="-91" on="0"/>
        <pt x="368" y="-107" on="0"/>
        <pt x="368" y="-127" on="1"/>
        <pt x="368" y="-147" on="0"/>
        <pt x="348" y="-163" on="0"/>
      </contour>
    </TTGlyph>
    <TTGlyph name="Hdotbelow.sc" xMin="82" yMin="-130" xMax="495" yMax="577">
      <contour>
        <pt x="82" y="577" on="1"/>
        <pt x="118" y="577" on="1"/>
        <pt x="118" y="312" on="1"/>
        <pt x="459" y="312" on="1"/>
        <pt x="459" y="577" on="1"/>
        <pt x="495" y="577" on="1"/>
        <pt x="495" y="0" on="1"/>
        <pt x="459" y="0" on="1"/>
        <pt x="459" y="278" on="1"/>
        <pt x="118" y="278" on="1"/>
        <pt x="118" y="0" on="1"/>
        <pt x="82" y="0" on="1"/>
      </contour>
      <contour>
        <pt x="296" y="-130" on="1"/>
        <pt x="281" y="-130" on="0"/>
        <pt x="264" y="-117" on="0"/>
        <pt x="264" y="-100" on="1"/>
        <pt x="264" y="-69" on="0"/>
        <pt x="296" y="-69" on="1"/>
        <pt x="310" y="-69" on="0"/>
        <pt x="328" y="-84" on="0"/>
        <pt x="328" y="-100" on="1"/>
        <pt x="328" y="-117" on="0"/>
        <pt x="310" y="-130" on="0"/>
      </contour>
    </TTGlyph>
    <TTGlyph name="I" xMin="87" yMin="0" xMax="123" yMax="740">
      <contour>
        <pt x="87" y="740" on="1"/>
        <pt x="123" y="740" on="1"/>
        <pt x="123" y="0" on="1"/>
        <pt x="87" y="0" on="1"/>
      </contour>
    </TTGlyph>
    <TTGlyph name="I.sc" xMin="82" yMin="0" xMax="118" yMax="577">
      <contour>
        <pt x="82" y="577" on="1"/>
        <pt x="118" y="577" on="1"/>
        <pt x="118" y="0" on="1"/>
        <pt x="82" y="0" on="1"/>
      </contour>
    </TTGlyph>
    <TTGlyph name="IJ" xMin="87" yMin="-176" xMax="335" yMax="740">
      <contour>
        <pt x="87" y="740" on="1"/>
        <pt x="123" y="740" on="1"/>
        <pt x="123" y="0" on="1"/>
        <pt x="87" y="0" on="1"/>
      </contour>
      <contour>
        <pt x="215" y="-159" on="1"/>
        <pt x="240" y="-107" on="0"/>
        <pt x="273" y="-24" on="0"/>
        <pt x="292" y="52" on="0"/>
        <pt x="299" y="131" on="0"/>
        <pt x="299" y="180" on="1"/>
        <pt x="299" y="740" on="1"/>
        <pt x="335" y="740" on="1"/>
        <pt x="335" y="180" on="1"/>
        <pt x="335" y="133" on="0"/>
        <pt x="324" y="46" on="0"/>
        <pt x="302" y="-40" on="0"/>
        <pt x="267" y="-128" on="0"/>
        <pt x="242" y="-176" on="1"/>
      </contour>
    </TTGlyph>
    <TTGlyph name="Iacute" xMin="87" yMin="0" xMax="206" yMax="916">
      <contour>
        <pt x="87" y="740" on="1"/>
        <pt x="123" y="740" on="1"/>
        <pt x="123" y="0" on="1"/>
        <pt x="87" y="0" on="1"/>
      </contour>
      <contour>
        <pt x="87" y="793" on="1"/>
        <pt x="166" y="916" on="1"/>
        <pt x="206" y="916" on="1"/>
        <pt x="120" y="789" on="1"/>
      </contour>
    </TTGlyph>
    <TTGlyph name="Iacute.sc" xMin="82" yMin="0" xMax="188" yMax="719">
      <contour>
        <pt x="82" y="577" on="1"/>
        <pt x="118" y="577" on="1"/>
        <pt x="118" y="0" on="1"/>
        <pt x="82" y="0" on="1"/>
      </contour>
      <contour>
        <pt x="82" y="620" on="1"/>
        <pt x="149" y="719" on="1"/>
        <pt x="188" y="719" on="1"/>
        <pt x="115" y="617" on="1"/>
      </contour>
    </TTGlyph>
    <TTGlyph name="Ibreve" xMin="-35" yMin="0" xMax="252" yMax="948">
      <contour>
        <pt x="87" y="740" on="1"/>
        <pt x="123" y="740" on="1"/>
        <pt x="123" y="0" on="1"/>
        <pt x="87" y="0" on="1"/>
      </contour>
      <contour>
        <pt x="108" y="816" on="1"/>
        <pt x="41" y="816" on="0"/>
        <pt x="-35" y="886" on="0"/>
        <pt x="-35" y="948" on="1"/>
        <pt x="0" y="948" on="1"/>
        <pt x="0" y="902" on="0"/>
        <pt x="57" y="850" on="0"/>
        <pt x="108" y="850" on="1"/>
        <pt x="159" y="850" on="0"/>
        <pt x="216" y="902" on="0"/>
        <pt x="216" y="948" on="1"/>
        <pt x="252" y="948" on="1"/>
        <pt x="252" y="886" on="0"/>
        <pt x="176" y="816" on="0"/>
      </contour>
    </TTGlyph>
    <TTGlyph name="Ibreve.sc" xMin="-22" yMin="0" xMax="228" yMax="742">
      <contour>
        <pt x="82" y="577" on="1"/>
        <pt x="118" y="577" on="1"/>
        <pt x="118" y="0" on="1"/>
        <pt x="82" y="0" on="1"/>
      </contour>
      <contour>
        <pt x="103" y="635" on="1"/>
        <pt x="44" y="635" on="0"/>
        <pt x="-22" y="692" on="0"/>
        <pt x="-22" y="742" on="1"/>
        <pt x="11" y="742" on="1"/>
        <pt x="11" y="705" on="0"/>
        <pt x="59" y="665" on="0"/>
        <pt x="103" y="665" on="1"/>
        <pt x="147" y="665" on="0"/>
        <pt x="195" y="705" on="0"/>
        <pt x="195" y="742" on="1"/>
        <pt x="228" y="742" on="1"/>
        <pt x="228" y="692" on="0"/>
        <pt x="162" y="635" on="0"/>
      </contour>
    </TTGlyph>
    <TTGlyph name="Icircumflex" xMin="-22" yMin="0" xMax="236" yMax="933">
      <contour>
        <pt x="87" y="740" on="1"/>
        <pt x="123" y="740" on="1"/>
        <pt x="123" y="0" on="1"/>
        <pt x="87" y="0" on="1"/>
      </contour>
      <contour>
        <pt x="-22" y="861" on="1"/>
        <pt x="107" y="933" on="1"/>
        <pt x="236" y="861" on="1"/>
        <pt x="236" y="819" on="1"/>
        <pt x="107" y="891" on="1"/>
        <pt x="-22" y="819" on="1"/>
      </contour>
    </TTGlyph>
    <TTGlyph name="Icircumflex.sc" xMin="-10" yMin="0" xMax="215" yMax="730">
      <contour>
        <pt x="82" y="577" on="1"/>
        <pt x="118" y="577" on="1"/>
        <pt x="118" y="0" on="1"/>
        <pt x="82" y="0" on="1"/>
      </contour>
      <contour>
        <pt x="-10" y="674" on="1"/>
        <pt x="103" y="730" on="1"/>
        <pt x="215" y="674" on="1"/>
        <pt x="215" y="637" on="1"/>
        <pt x="103" y="693" on="1"/>
        <pt x="-10" y="637" on="1"/>
      </contour>
    </TTGlyph>
    <TTGlyph name="Idblgrave" xMin="-57" yMin="0" xMax="189" yMax="913">
      <contour>
        <pt x="87" y="740" on="1"/>
        <pt x="123" y="740" on="1"/>
        <pt x="123" y="0" on="1"/>
        <pt x="87" y="0" on="1"/>
      </contour>
      <contour>
        <pt x="28" y="787" on="1"/>
        <pt x="-57" y="913" on="1"/>
        <pt x="-18" y="913" on="1"/>
        <pt x="61" y="801" on="1"/>
      </contour>
      <contour>
        <pt x="156" y="787" on="1"/>
        <pt x="71" y="913" on="1"/>
        <pt x="110" y="913" on="1"/>
        <pt x="189" y="801" on="1"/>
      </contour>
    </TTGlyph>
    <TTGlyph name="Idblgrave.sc" xMin="-41" yMin="0" xMax="175" yMax="717">
      <contour>
        <pt x="82" y="577" on="1"/>
        <pt x="118" y="577" on="1"/>
        <pt x="118" y="0" on="1"/>
        <pt x="82" y="0" on="1"/>
      </contour>
      <contour>
        <pt x="33" y="614" on="1"/>
        <pt x="-41" y="717" on="1"/>
        <pt x="-3" y="717" on="1"/>
        <pt x="64" y="625" on="1"/>
      </contour>
      <contour>
        <pt x="145" y="614" on="1"/>
        <pt x="70" y="717" on="1"/>
        <pt x="109" y="717" on="1"/>
        <pt x="175" y="625" on="1"/>
      </contour>
    </TTGlyph>
    <TTGlyph name="Idieresis" xMin="-20" yMin="0" xMax="235" yMax="881">
      <contour>
        <pt x="87" y="740" on="1"/>
        <pt x="123" y="740" on="1"/>
        <pt x="123" y="0" on="1"/>
        <pt x="87" y="0" on="1"/>
      </contour>
      <contour>
        <pt x="11" y="819" on="1"/>
        <pt x="-3" y="819" on="0"/>
        <pt x="-20" y="833" on="0"/>
        <pt x="-20" y="850" on="1"/>
        <pt x="-20" y="867" on="0"/>
        <pt x="-3" y="881" on="0"/>
        <pt x="11" y="881" on="1"/>
        <pt x="24" y="881" on="0"/>
        <pt x="43" y="866" on="0"/>
        <pt x="43" y="850" on="1"/>
        <pt x="43" y="833" on="0"/>
        <pt x="24" y="819" on="0"/>
      </contour>
      <contour>
        <pt x="204" y="819" on="1"/>
        <pt x="190" y="819" on="0"/>
        <pt x="172" y="833" on="0"/>
        <pt x="172" y="850" on="1"/>
        <pt x="172" y="867" on="0"/>
        <pt x="190" y="881" on="0"/>
        <pt x="204" y="881" on="1"/>
        <pt x="216" y="881" on="0"/>
        <pt x="235" y="866" on="0"/>
        <pt x="235" y="850" on="1"/>
        <pt x="235" y="833" on="0"/>
        <pt x="216" y="819" on="0"/>
      </contour>
    </TTGlyph>
    <TTGlyph name="Idieresis.sc" xMin="-12" yMin="0" xMax="217" yMax="694">
      <contour>
        <pt x="82" y="577" on="1"/>
        <pt x="118" y="577" on="1"/>
        <pt x="118" y="0" on="1"/>
        <pt x="82" y="0" on="1"/>
      </contour>
      <contour>
        <pt x="17" y="638" on="1"/>
        <pt x="4" y="638" on="0"/>
        <pt x="-12" y="652" on="0"/>
        <pt x="-12" y="666" on="1"/>
        <pt x="-12" y="681" on="0"/>
        <pt x="4" y="694" on="0"/>
        <pt x="17" y="694" on="1"/>
        <pt x="30" y="694" on="0"/>
        <pt x="47" y="680" on="0"/>
        <pt x="47" y="666" on="1"/>
        <pt x="47" y="652" on="0"/>
        <pt x="30" y="638" on="0"/>
      </contour>
      <contour>
        <pt x="188" y="638" on="1"/>
        <pt x="175" y="638" on="0"/>
        <pt x="158" y="652" on="0"/>
        <pt x="158" y="666" on="1"/>
        <pt x="158" y="681" on="0"/>
        <pt x="175" y="694" on="0"/>
        <pt x="188" y="694" on="1"/>
        <pt x="200" y="694" on="0"/>
        <pt x="217" y="680" on="0"/>
        <pt x="217" y="666" on="1"/>
        <pt x="217" y="652" on="0"/>
        <pt x="200" y="638" on="0"/>
      </contour>
    </TTGlyph>
    <TTGlyph name="Idotaccent" xMin="76" yMin="0" xMax="139" yMax="869">
      <contour>
        <pt x="87" y="740" on="1"/>
        <pt x="123" y="740" on="1"/>
        <pt x="123" y="0" on="1"/>
        <pt x="87" y="0" on="1"/>
      </contour>
      <contour>
        <pt x="107" y="806" on="1"/>
        <pt x="94" y="806" on="0"/>
        <pt x="76" y="821" on="0"/>
        <pt x="76" y="837" on="1"/>
        <pt x="76" y="854" on="0"/>
        <pt x="94" y="869" on="0"/>
        <pt x="107" y="869" on="1"/>
        <pt x="120" y="869" on="0"/>
        <pt x="139" y="854" on="0"/>
        <pt x="139" y="837" on="1"/>
        <pt x="139" y="820" on="0"/>
        <pt x="120" y="806" on="0"/>
      </contour>
    </TTGlyph>
    <TTGlyph name="Idotaccent.sc" xMin="73" yMin="0" xMax="132" yMax="685">
      <contour>
        <pt x="82" y="577" on="1"/>
        <pt x="118" y="577" on="1"/>
        <pt x="118" y="0" on="1"/>
        <pt x="82" y="0" on="1"/>
      </contour>
      <contour>
        <pt x="102" y="629" on="1"/>
        <pt x="89" y="629" on="0"/>
        <pt x="73" y="643" on="0"/>
        <pt x="73" y="658" on="1"/>
        <pt x="73" y="672" on="0"/>
        <pt x="89" y="685" on="0"/>
        <pt x="102" y="685" on="1"/>
        <pt x="115" y="685" on="0"/>
        <pt x="132" y="672" on="0"/>
        <pt x="132" y="658" on="1"/>
        <pt x="132" y="643" on="0"/>
        <pt x="115" y="629" on="0"/>
      </contour>
    </TTGlyph>
    <TTGlyph name="Idotbelow" xMin="71" yMin="-163" xMax="143" yMax="740">
      <contour>
        <pt x="87" y="740" on="1"/>
        <pt x="123" y="740" on="1"/>
        <pt x="123" y="0" on="1"/>
        <pt x="87" y="0" on="1"/>
      </contour>
      <contour>
        <pt x="107" y="-163" on="1"/>
        <pt x="90" y="-163" on="0"/>
        <pt x="71" y="-147" on="0"/>
        <pt x="71" y="-127" on="1"/>
        <pt x="71" y="-107" on="0"/>
        <pt x="90" y="-91" on="0"/>
        <pt x="107" y="-91" on="1"/>
        <pt x="123" y="-91" on="0"/>
        <pt x="143" y="-107" on="0"/>
        <pt x="143" y="-127" on="1"/>
        <pt x="143" y="-147" on="0"/>
        <pt x="123" y="-163" on="0"/>
      </contour>
    </TTGlyph>
    <TTGlyph name="Idotbelow.sc" xMin="70" yMin="-130" xMax="135" yMax="577">
      <contour>
        <pt x="82" y="577" on="1"/>
        <pt x="118" y="577" on="1"/>
        <pt x="118" y="0" on="1"/>
        <pt x="82" y="0" on="1"/>
      </contour>
      <contour>
        <pt x="102" y="-130" on="1"/>
        <pt x="87" y="-130" on="0"/>
        <pt x="70" y="-117" on="0"/>
        <pt x="70" y="-100" on="1"/>
        <pt x="70" y="-69" on="0"/>
        <pt x="102" y="-69" on="1"/>
        <pt x="116" y="-69" on="0"/>
        <pt x="135" y="-84" on="0"/>
        <pt x="135" y="-100" on="1"/>
        <pt x="135" y="-117" on="0"/>
        <pt x="116" y="-130" on="0"/>
      </contour>
    </TTGlyph>
    <TTGlyph name="Igrave" xMin="4" yMin="0" xMax="123" yMax="916">
      <contour>
        <pt x="87" y="740" on="1"/>
        <pt x="123" y="740" on="1"/>
        <pt x="123" y="0" on="1"/>
        <pt x="87" y="0" on="1"/>
      </contour>
      <contour>
        <pt x="89" y="789" on="1"/>
        <pt x="4" y="916" on="1"/>
        <pt x="44" y="916" on="1"/>
        <pt x="122" y="803" on="1"/>
      </contour>
    </TTGlyph>
    <TTGlyph name="Igrave.sc" xMin="12" yMin="0" xMax="119" yMax="719">
      <contour>
        <pt x="82" y="577" on="1"/>
        <pt x="119" y="577" on="1"/>
        <pt x="119" y="0" on="1"/>
        <pt x="82" y="0" on="1"/>
      </contour>
      <contour>
        <pt x="85" y="617" on="1"/>
        <pt x="12" y="719" on="1"/>
        <pt x="50" y="719" on="1"/>
        <pt x="117" y="627" on="1"/>
      </contour>
    </TTGlyph>
    <TTGlyph name="Iinvertedbreve" xMin="-36" yMin="0" xMax="251" yMax="956">
      <contour>
        <pt x="87" y="740" on="1"/>
        <pt x="123" y="740" on="1"/>
        <pt x="123" y="0" on="1"/>
        <pt x="87" y="0" on="1"/>
      </contour>
      <contour>
        <pt x="215" y="823" on="1"/>
        <pt x="215" y="869" on="0"/>
        <pt x="158" y="921" on="0"/>
        <pt x="107" y="921" on="1"/>
        <pt x="56" y="921" on="0"/>
        <pt x="-1" y="869" on="0"/>
        <pt x="-1" y="823" on="1"/>
        <pt x="-36" y="823" on="1"/>
        <pt x="-36" y="886" on="0"/>
        <pt x="40" y="956" on="0"/>
        <pt x="107" y="956" on="1"/>
        <pt x="175" y="956" on="0"/>
        <pt x="251" y="886" on="0"/>
        <pt x="251" y="823" on="1"/>
      </contour>
    </TTGlyph>
    <TTGlyph name="Iinvertedbreve.sc" xMin="-23" yMin="0" xMax="227" yMax="747">
      <contour>
        <pt x="82" y="577" on="1"/>
        <pt x="118" y="577" on="1"/>
        <pt x="118" y="0" on="1"/>
        <pt x="82" y="0" on="1"/>
      </contour>
      <contour>
        <pt x="194" y="641" on="1"/>
        <pt x="194" y="677" on="0"/>
        <pt x="146" y="717" on="0"/>
        <pt x="103" y="717" on="1"/>
        <pt x="59" y="717" on="0"/>
        <pt x="10" y="677" on="0"/>
        <pt x="10" y="641" on="1"/>
        <pt x="-23" y="641" on="1"/>
        <pt x="-23" y="690" on="0"/>
        <pt x="43" y="747" on="0"/>
        <pt x="103" y="747" on="1"/>
        <pt x="162" y="747" on="0"/>
        <pt x="227" y="690" on="0"/>
        <pt x="227" y="641" on="1"/>
      </contour>
    </TTGlyph>
    <TTGlyph name="Imacron" xMin="-16" yMin="0" xMax="217" yMax="877">
      <contour>
        <pt x="87" y="740" on="1"/>
        <pt x="123" y="740" on="1"/>
        <pt x="123" y="0" on="1"/>
        <pt x="87" y="0" on="1"/>
      </contour>
      <contour>
        <pt x="-16" y="877" on="1"/>
        <pt x="217" y="877" on="1"/>
        <pt x="217" y="842" on="1"/>
        <pt x="-16" y="842" on="1"/>
      </contour>
    </TTGlyph>
    <TTGlyph name="Imacron.sc" xMin="-6" yMin="0" xMax="200" yMax="688">
      <contour>
        <pt x="82" y="577" on="1"/>
        <pt x="118" y="577" on="1"/>
        <pt x="118" y="0" on="1"/>
        <pt x="82" y="0" on="1"/>
      </contour>
      <contour>
        <pt x="-6" y="688" on="1"/>
        <pt x="200" y="688" on="1"/>
        <pt x="200" y="656" on="1"/>
        <pt x="-6" y="656" on="1"/>
      </contour>
    </TTGlyph>
    <TTGlyph name="Iogonek" xMin="-10" yMin="-220" xMax="123" yMax="740">
      <contour>
        <pt x="87" y="740" on="1"/>
        <pt x="123" y="740" on="1"/>
        <pt x="123" y="-20" on="1"/>
        <pt x="70" y="-47" on="0"/>
        <pt x="25" y="-102" on="0"/>
        <pt x="25" y="-138" on="1"/>
        <pt x="25" y="-164" on="0"/>
        <pt x="49" y="-186" on="0"/>
        <pt x="75" y="-186" on="1"/>
        <pt x="101" y="-186" on="0"/>
        <pt x="122" y="-176" on="1"/>
        <pt x="122" y="-208" on="1"/>
        <pt x="99" y="-220" on="0"/>
        <pt x="69" y="-220" on="1"/>
        <pt x="31" y="-220" on="0"/>
        <pt x="-10" y="-178" on="0"/>
        <pt x="-10" y="-140" on="1"/>
        <pt x="-10" y="-100" on="0"/>
        <pt x="39" y="-32" on="0"/>
        <pt x="93" y="0" on="1"/>
        <pt x="87" y="0" on="1"/>
      </contour>
    </TTGlyph>
    <TTGlyph name="Iogonek.sc" xMin="1" yMin="-172" xMax="118" yMax="577">
      <contour>
        <pt x="82" y="577" on="1"/>
        <pt x="118" y="577" on="1"/>
        <pt x="118" y="-15" on="1"/>
        <pt x="80" y="-30" on="0"/>
        <pt x="34" y="-78" on="0"/>
        <pt x="34" y="-107" on="1"/>
        <pt x="34" y="-142" on="0"/>
        <pt x="75" y="-142" on="1"/>
        <pt x="97" y="-142" on="0"/>
        <pt x="118" y="-134" on="1"/>
        <pt x="118" y="-162" on="1"/>
        <pt x="96" y="-172" on="0"/>
        <pt x="72" y="-172" on="1"/>
        <pt x="1" y="-172" on="0"/>
        <pt x="1" y="-108" on="1"/>
        <pt x="1" y="-77" on="0"/>
        <pt x="41" y="-26" on="0"/>
        <pt x="87" y="0" on="1"/>
        <pt x="82" y="0" on="1"/>
      </contour>
    </TTGlyph>
    <TTGlyph name="Itilde" xMin="-45" yMin="0" xMax="267" yMax="904">
      <contour>
        <pt x="87" y="740" on="1"/>
        <pt x="123" y="740" on="1"/>
        <pt x="123" y="0" on="1"/>
        <pt x="87" y="0" on="1"/>
      </contour>
      <contour>
        <pt x="-45" y="854" on="1"/>
        <pt x="-28" y="874" on="0"/>
        <pt x="22" y="904" on="0"/>
        <pt x="47" y="904" on="1"/>
        <pt x="67" y="904" on="0"/>
        <pt x="99" y="891" on="0"/>
        <pt x="129" y="874" on="0"/>
        <pt x="159" y="861" on="0"/>
        <pt x="177" y="861" on="1"/>
        <pt x="195" y="861" on="0"/>
        <pt x="228" y="882" on="0"/>
        <pt x="240" y="900" on="1"/>
        <pt x="267" y="879" on="1"/>
        <pt x="253" y="856" on="0"/>
        <pt x="202" y="826" on="0"/>
        <pt x="176" y="826" on="1"/>
        <pt x="157" y="826" on="0"/>
        <pt x="124" y="839" on="0"/>
        <pt x="94" y="856" on="0"/>
        <pt x="64" y="869" on="0"/>
        <pt x="47" y="869" on="1"/>
        <pt x="29" y="869" on="0"/>
        <pt x="-7" y="847" on="0"/>
        <pt x="-21" y="830" on="1"/>
      </contour>
    </TTGlyph>
    <TTGlyph name="Itilde.sc" xMin="-31" yMin="0" xMax="242" yMax="709">
      <contour>
        <pt x="82" y="577" on="1"/>
        <pt x="118" y="577" on="1"/>
        <pt x="118" y="0" on="1"/>
        <pt x="82" y="0" on="1"/>
      </contour>
      <contour>
        <pt x="-31" y="666" on="1"/>
        <pt x="-15" y="684" on="0"/>
        <pt x="28" y="709" on="0"/>
        <pt x="51" y="709" on="1"/>
        <pt x="68" y="709" on="0"/>
        <pt x="96" y="699" on="0"/>
        <pt x="122" y="686" on="0"/>
        <pt x="149" y="676" on="0"/>
        <pt x="164" y="676" on="1"/>
        <pt x="196" y="676" on="0"/>
        <pt x="220" y="706" on="1"/>
        <pt x="242" y="690" on="1"/>
        <pt x="229" y="669" on="0"/>
        <pt x="185" y="644" on="0"/>
        <pt x="162" y="644" on="1"/>
        <pt x="145" y="644" on="0"/>
        <pt x="117" y="655" on="0"/>
        <pt x="90" y="667" on="0"/>
        <pt x="64" y="678" on="0"/>
        <pt x="49" y="678" on="1"/>
        <pt x="33" y="678" on="0"/>
        <pt x="2" y="661" on="0"/>
        <pt x="-11" y="647" on="1"/>
      </contour>
    </TTGlyph>
    <TTGlyph name="J" xMin="5" yMin="-176" xMax="125" yMax="740">
      <contour>
        <pt x="5" y="-159" on="1"/>
        <pt x="30" y="-107" on="0"/>
        <pt x="63" y="-24" on="0"/>
        <pt x="82" y="52" on="0"/>
        <pt x="89" y="131" on="0"/>
        <pt x="89" y="180" on="1"/>
        <pt x="89" y="740" on="1"/>
        <pt x="125" y="740" on="1"/>
        <pt x="125" y="180" on="1"/>
        <pt x="125" y="133" on="0"/>
        <pt x="114" y="46" on="0"/>
        <pt x="92" y="-40" on="0"/>
        <pt x="57" y="-128" on="0"/>
        <pt x="32" y="-176" on="1"/>
      </contour>
    </TTGlyph>
    <TTGlyph name="J.sc" xMin="14" yMin="-139" xMax="120" yMax="577">
      <contour>
        <pt x="14" y="-124" on="1"/>
        <pt x="35" y="-84" on="0"/>
        <pt x="62" y="-20" on="0"/>
        <pt x="78" y="40" on="0"/>
        <pt x="84" y="102" on="0"/>
        <pt x="84" y="141" on="1"/>
        <pt x="84" y="577" on="1"/>
        <pt x="120" y="577" on="1"/>
        <pt x="120" y="140" on="1"/>
        <pt x="120" y="103" on="0"/>
        <pt x="111" y="35" on="0"/>
        <pt x="92" y="-31" on="0"/>
        <pt x="62" y="-100" on="0"/>
        <pt x="40" y="-139" on="1"/>
      </contour>
    </TTGlyph>
    <TTGlyph name="Jcircumflex" xMin="-25" yMin="-176" xMax="233" yMax="933">
      <contour>
        <pt x="5" y="-159" on="1"/>
        <pt x="30" y="-107" on="0"/>
        <pt x="63" y="-24" on="0"/>
        <pt x="82" y="52" on="0"/>
        <pt x="89" y="131" on="0"/>
        <pt x="89" y="180" on="1"/>
        <pt x="89" y="740" on="1"/>
        <pt x="125" y="740" on="1"/>
        <pt x="125" y="180" on="1"/>
        <pt x="125" y="133" on="0"/>
        <pt x="114" y="46" on="0"/>
        <pt x="92" y="-40" on="0"/>
        <pt x="57" y="-128" on="0"/>
        <pt x="32" y="-176" on="1"/>
      </contour>
      <contour>
        <pt x="-25" y="861" on="1"/>
        <pt x="104" y="933" on="1"/>
        <pt x="233" y="861" on="1"/>
        <pt x="233" y="819" on="1"/>
        <pt x="104" y="891" on="1"/>
        <pt x="-25" y="819" on="1"/>
      </contour>
    </TTGlyph>
    <TTGlyph name="Jcircumflex.sc" xMin="-13" yMin="-139" xMax="213" yMax="730">
      <contour>
        <pt x="14" y="-124" on="1"/>
        <pt x="35" y="-84" on="0"/>
        <pt x="62" y="-20" on="0"/>
        <pt x="78" y="40" on="0"/>
        <pt x="84" y="102" on="0"/>
        <pt x="84" y="141" on="1"/>
        <pt x="84" y="577" on="1"/>
        <pt x="120" y="577" on="1"/>
        <pt x="120" y="140" on="1"/>
        <pt x="120" y="103" on="0"/>
        <pt x="111" y="35" on="0"/>
        <pt x="92" y="-31" on="0"/>
        <pt x="61" y="-100" on="0"/>
        <pt x="40" y="-139" on="1"/>
      </contour>
      <contour>
        <pt x="-13" y="674" on="1"/>
        <pt x="101" y="730" on="1"/>
        <pt x="213" y="674" on="1"/>
        <pt x="213" y="637" on="1"/>
        <pt x="101" y="693" on="1"/>
        <pt x="-13" y="637" on="1"/>
      </contour>
    </TTGlyph>
    <TTGlyph name="K" xMin="87" yMin="0" xMax="559" yMax="740">
      <contour>
        <pt x="87" y="740" on="1"/>
        <pt x="123" y="740" on="1"/>
        <pt x="123" y="395" on="1"/>
        <pt x="236" y="395" on="1"/>
        <pt x="495" y="740" on="1"/>
        <pt x="540" y="740" on="1"/>
        <pt x="290" y="405" on="1"/>
        <pt x="266" y="381" on="1"/>
        <pt x="266" y="376" on="1"/>
        <pt x="292" y="353" on="1"/>
        <pt x="559" y="0" on="1"/>
        <pt x="516" y="0" on="1"/>
        <pt x="243" y="359" on="1"/>
        <pt x="123" y="359" on="1"/>
        <pt x="123" y="0" on="1"/>
        <pt x="87" y="0" on="1"/>
      </contour>
    </TTGlyph>
    <TTGlyph name="K.sc" xMin="82" yMin="0" xMax="493" yMax="577">
      <contour>
        <pt x="82" y="577" on="1"/>
        <pt x="118" y="577" on="1"/>
        <pt x="118" y="311" on="1"/>
        <pt x="218" y="311" on="1"/>
        <pt x="433" y="577" on="1"/>
        <pt x="477" y="577" on="1"/>
        <pt x="268" y="316" on="1"/>
        <pt x="246" y="297" on="1"/>
        <pt x="246" y="293" on="1"/>
        <pt x="269" y="275" on="1"/>
        <pt x="493" y="0" on="1"/>
        <pt x="450" y="0" on="1"/>
        <pt x="223" y="277" on="1"/>
        <pt x="118" y="277" on="1"/>
        <pt x="118" y="0" on="1"/>
        <pt x="82" y="0" on="1"/>
      </contour>
    </TTGlyph>
    <TTGlyph name="Kcommaaccent" xMin="87" yMin="-220" xMax="559" yMax="740">
      <contour>
        <pt x="281" y="-67" on="1"/>
        <pt x="319" y="-67" on="1"/>
        <pt x="266" y="-220" on="1"/>
        <pt x="229" y="-220" on="1"/>
      </contour>
      <contour>
        <pt x="87" y="740" on="1"/>
        <pt x="123" y="740" on="1"/>
        <pt x="123" y="395" on="1"/>
        <pt x="236" y="395" on="1"/>
        <pt x="495" y="740" on="1"/>
        <pt x="540" y="740" on="1"/>
        <pt x="290" y="405" on="1"/>
        <pt x="266" y="381" on="1"/>
        <pt x="266" y="376" on="1"/>
        <pt x="292" y="353" on="1"/>
        <pt x="559" y="0" on="1"/>
        <pt x="516" y="0" on="1"/>
        <pt x="243" y="359" on="1"/>
        <pt x="123" y="359" on="1"/>
        <pt x="123" y="0" on="1"/>
        <pt x="87" y="0" on="1"/>
      </contour>
    </TTGlyph>
    <TTGlyph name="Kcommaaccent.sc" xMin="82" yMin="-172" xMax="493" yMax="577">
      <contour>
        <pt x="82" y="577" on="1"/>
        <pt x="118" y="577" on="1"/>
        <pt x="118" y="311" on="1"/>
        <pt x="218" y="311" on="1"/>
        <pt x="433" y="577" on="1"/>
        <pt x="477" y="577" on="1"/>
        <pt x="268" y="316" on="1"/>
        <pt x="246" y="297" on="1"/>
        <pt x="246" y="293" on="1"/>
        <pt x="269" y="275" on="1"/>
        <pt x="493" y="0" on="1"/>
        <pt x="450" y="0" on="1"/>
        <pt x="223" y="277" on="1"/>
        <pt x="118" y="277" on="1"/>
        <pt x="118" y="0" on="1"/>
        <pt x="82" y="0" on="1"/>
      </contour>
      <contour>
        <pt x="250" y="-53" on="1"/>
        <pt x="287" y="-53" on="1"/>
        <pt x="241" y="-172" on="1"/>
        <pt x="206" y="-172" on="1"/>
      </contour>
    </TTGlyph>
    <TTGlyph name="L" xMin="87" yMin="0" xMax="412" yMax="740">
      <contour>
        <pt x="87" y="740" on="1"/>
        <pt x="123" y="740" on="1"/>
        <pt x="123" y="36" on="1"/>
        <pt x="412" y="36" on="1"/>
        <pt x="412" y="0" on="1"/>
        <pt x="87" y="0" on="1"/>
      </contour>
    </TTGlyph>
    <TTGlyph name="L.sc" xMin="82" yMin="0" xMax="368" yMax="577">
      <contour>
        <pt x="82" y="577" on="1"/>
        <pt x="118" y="577" on="1"/>
        <pt x="118" y="34" on="1"/>
        <pt x="368" y="34" on="1"/>
        <pt x="368" y="0" on="1"/>
        <pt x="82" y="0" on="1"/>
      </contour>
    </TTGlyph>
    <TTGlyph name="Lacute" xMin="87" yMin="0" xMax="412" yMax="916">
      <contour>
        <pt x="97" y="793" on="1"/>
        <pt x="176" y="916" on="1"/>
        <pt x="216" y="916" on="1"/>
        <pt x="130" y="789" on="1"/>
      </contour>
      <contour>
        <pt x="87" y="740" on="1"/>
        <pt x="123" y="740" on="1"/>
        <pt x="123" y="36" on="1"/>
        <pt x="412" y="36" on="1"/>
        <pt x="412" y="0" on="1"/>
        <pt x="87" y="0" on="1"/>
      </contour>
    </TTGlyph>
    <TTGlyph name="Lacute.sc" xMin="82" yMin="0" xMax="368" yMax="719">
      <contour>
        <pt x="82" y="577" on="1"/>
        <pt x="118" y="577" on="1"/>
        <pt x="118" y="34" on="1"/>
        <pt x="368" y="34" on="1"/>
        <pt x="368" y="0" on="1"/>
        <pt x="82" y="0" on="1"/>
      </contour>
      <contour>
        <pt x="91" y="620" on="1"/>
        <pt x="157" y="719" on="1"/>
        <pt x="197" y="719" on="1"/>
        <pt x="123" y="617" on="1"/>
      </contour>
    </TTGlyph>
    <TTGlyph name="Lcaron" xMin="87" yMin="0" xMax="412" yMax="741">
      <contour>
        <pt x="328" y="741" on="1"/>
        <pt x="363" y="741" on="1"/>
        <pt x="343" y="513" on="1"/>
        <pt x="328" y="513" on="1"/>
      </contour>
      <contour>
        <pt x="87" y="740" on="1"/>
        <pt x="123" y="740" on="1"/>
        <pt x="123" y="36" on="1"/>
        <pt x="412" y="36" on="1"/>
        <pt x="412" y="0" on="1"/>
        <pt x="87" y="0" on="1"/>
      </contour>
    </TTGlyph>
    <TTGlyph name="Lcaron.sc" xMin="82" yMin="0" xMax="368" yMax="581">
      <contour>
        <pt x="82" y="577" on="1"/>
        <pt x="118" y="577" on="1"/>
        <pt x="118" y="34" on="1"/>
        <pt x="368" y="34" on="1"/>
        <pt x="368" y="0" on="1"/>
        <pt x="82" y="0" on="1"/>
      </contour>
      <contour>
        <pt x="294" y="581" on="1"/>
        <pt x="329" y="581" on="1"/>
        <pt x="310" y="404" on="1"/>
        <pt x="294" y="404" on="1"/>
      </contour>
    </TTGlyph>
    <TTGlyph name="Lcommaaccent" xMin="87" yMin="-220" xMax="412" yMax="740">
      <contour>
        <pt x="244" y="-67" on="1"/>
        <pt x="282" y="-67" on="1"/>
        <pt x="229" y="-220" on="1"/>
        <pt x="192" y="-220" on="1"/>
      </contour>
      <contour>
        <pt x="87" y="740" on="1"/>
        <pt x="123" y="740" on="1"/>
        <pt x="123" y="36" on="1"/>
        <pt x="412" y="36" on="1"/>
        <pt x="412" y="0" on="1"/>
        <pt x="87" y="0" on="1"/>
      </contour>
    </TTGlyph>
    <TTGlyph name="Lcommaaccent.sc" xMin="82" yMin="-172" xMax="368" yMax="577">
      <contour>
        <pt x="82" y="577" on="1"/>
        <pt x="118" y="577" on="1"/>
        <pt x="118" y="34" on="1"/>
        <pt x="368" y="34" on="1"/>
        <pt x="368" y="0" on="1"/>
        <pt x="82" y="0" on="1"/>
      </contour>
      <contour>
        <pt x="218" y="-53" on="1"/>
        <pt x="255" y="-53" on="1"/>
        <pt x="209" y="-172" on="1"/>
        <pt x="174" y="-172" on="1"/>
      </contour>
    </TTGlyph>
    <TTGlyph name="Ldot" xMin="87" yMin="0" xMax="412" yMax="740">
      <contour>
        <pt x="87" y="740" on="1"/>
        <pt x="123" y="740" on="1"/>
        <pt x="123" y="36" on="1"/>
        <pt x="412" y="36" on="1"/>
        <pt x="412" y="0" on="1"/>
        <pt x="87" y="0" on="1"/>
      </contour>
      <contour>
        <pt x="326" y="338" on="1"/>
        <pt x="313" y="338" on="0"/>
        <pt x="295" y="353" on="0"/>
        <pt x="295" y="370" on="1"/>
        <pt x="295" y="387" on="0"/>
        <pt x="313" y="402" on="0"/>
        <pt x="326" y="402" on="1"/>
        <pt x="339" y="402" on="0"/>
        <pt x="358" y="387" on="0"/>
        <pt x="358" y="370" on="1"/>
        <pt x="358" y="353" on="0"/>
        <pt x="339" y="338" on="0"/>
      </contour>
    </TTGlyph>
    <TTGlyph name="Ldot.sc" xMin="82" yMin="0" xMax="368" yMax="577">
      <contour>
        <pt x="82" y="577" on="1"/>
        <pt x="118" y="577" on="1"/>
        <pt x="118" y="34" on="1"/>
        <pt x="368" y="34" on="1"/>
        <pt x="368" y="0" on="1"/>
        <pt x="82" y="0" on="1"/>
      </contour>
      <contour>
        <pt x="296" y="261" on="1"/>
        <pt x="283" y="261" on="0"/>
        <pt x="267" y="275" on="0"/>
        <pt x="267" y="289" on="1"/>
        <pt x="267" y="303" on="0"/>
        <pt x="283" y="317" on="0"/>
        <pt x="296" y="317" on="1"/>
        <pt x="308" y="317" on="0"/>
        <pt x="326" y="304" on="0"/>
        <pt x="326" y="289" on="1"/>
        <pt x="326" y="274" on="0"/>
        <pt x="308" y="261" on="0"/>
      </contour>
    </TTGlyph>
    <TTGlyph name="Lslash" xMin="14" yMin="0" xMax="436" yMax="740">
      <contour>
        <pt x="14" y="268" on="1"/>
        <pt x="111" y="351" on="1"/>
        <pt x="111" y="740" on="1"/>
        <pt x="147" y="740" on="1"/>
        <pt x="147" y="382" on="1"/>
        <pt x="269" y="488" on="1"/>
        <pt x="269" y="441" on="1"/>
        <pt x="147" y="335" on="1"/>
        <pt x="147" y="36" on="1"/>
        <pt x="436" y="36" on="1"/>
        <pt x="436" y="0" on="1"/>
        <pt x="111" y="0" on="1"/>
        <pt x="111" y="304" on="1"/>
        <pt x="14" y="221" on="1"/>
      </contour>
    </TTGlyph>
    <TTGlyph name="Lslash.sc" xMin="21" yMin="0" xMax="389" yMax="577">
      <contour>
        <pt x="21" y="214" on="1"/>
        <pt x="104" y="277" on="1"/>
        <pt x="104" y="577" on="1"/>
        <pt x="139" y="577" on="1"/>
        <pt x="139" y="304" on="1"/>
        <pt x="247" y="384" on="1"/>
        <pt x="247" y="343" on="1"/>
        <pt x="139" y="263" on="1"/>
        <pt x="139" y="34" on="1"/>
        <pt x="389" y="34" on="1"/>
        <pt x="389" y="0" on="1"/>
        <pt x="104" y="0" on="1"/>
        <pt x="104" y="236" on="1"/>
        <pt x="21" y="173" on="1"/>
      </contour>
    </TTGlyph>
    <TTGlyph name="M" xMin="87" yMin="0" xMax="716" yMax="740">
      <contour>
        <pt x="87" y="740" on="1"/>
        <pt x="132" y="740" on="1"/>
        <pt x="355" y="184" on="1"/>
        <pt x="399" y="71" on="1"/>
        <pt x="403" y="71" on="1"/>
        <pt x="448" y="184" on="1"/>
        <pt x="670" y="740" on="1"/>
        <pt x="716" y="740" on="1"/>
        <pt x="716" y="0" on="1"/>
        <pt x="680" y="0" on="1"/>
        <pt x="680" y="662" on="1"/>
        <pt x="676" y="663" on="1"/>
        <pt x="622" y="527" on="1"/>
        <pt x="423" y="30" on="1"/>
        <pt x="379" y="30" on="1"/>
        <pt x="181" y="527" on="1"/>
        <pt x="127" y="663" on="1"/>
        <pt x="123" y="662" on="1"/>
        <pt x="123" y="0" on="1"/>
        <pt x="87" y="0" on="1"/>
      </contour>
    </TTGlyph>
    <TTGlyph name="M.sc" xMin="82" yMin="0" xMax="629" yMax="577">
      <contour>
        <pt x="82" y="577" on="1"/>
        <pt x="129" y="577" on="1"/>
        <pt x="314" y="158" on="1"/>
        <pt x="353" y="65" on="1"/>
        <pt x="358" y="65" on="1"/>
        <pt x="397" y="158" on="1"/>
        <pt x="582" y="577" on="1"/>
        <pt x="629" y="577" on="1"/>
        <pt x="629" y="0" on="1"/>
        <pt x="593" y="0" on="1"/>
        <pt x="593" y="511" on="1"/>
        <pt x="590" y="511" on="1"/>
        <pt x="541" y="398" on="1"/>
        <pt x="377" y="25" on="1"/>
        <pt x="334" y="25" on="1"/>
        <pt x="170" y="398" on="1"/>
        <pt x="121" y="511" on="1"/>
        <pt x="118" y="511" on="1"/>
        <pt x="118" y="0" on="1"/>
        <pt x="82" y="0" on="1"/>
      </contour>
    </TTGlyph>
    <TTGlyph name="N" xMin="87" yMin="0" xMax="593" yMax="740">
      <contour>
        <pt x="87" y="740" on="1"/>
        <pt x="127" y="740" on="1"/>
        <pt x="502" y="148" on="1"/>
        <pt x="553" y="62" on="1"/>
        <pt x="558" y="63" on="1"/>
        <pt x="558" y="740" on="1"/>
        <pt x="593" y="740" on="1"/>
        <pt x="593" y="0" on="1"/>
        <pt x="552" y="0" on="1"/>
        <pt x="179" y="589" on="1"/>
        <pt x="127" y="677" on="1"/>
        <pt x="123" y="676" on="1"/>
        <pt x="123" y="0" on="1"/>
        <pt x="87" y="0" on="1"/>
      </contour>
    </TTGlyph>
    <TTGlyph name="N.sc" xMin="82" yMin="0" xMax="521" yMax="577">
      <contour>
        <pt x="82" y="577" on="1"/>
        <pt x="120" y="577" on="1"/>
        <pt x="438" y="129" on="1"/>
        <pt x="482" y="61" on="1"/>
        <pt x="486" y="61" on="1"/>
        <pt x="486" y="577" on="1"/>
        <pt x="521" y="577" on="1"/>
        <pt x="521" y="0" on="1"/>
        <pt x="483" y="0" on="1"/>
        <pt x="165" y="448" on="1"/>
        <pt x="121" y="515" on="1"/>
        <pt x="117" y="515" on="1"/>
        <pt x="117" y="0" on="1"/>
        <pt x="82" y="0" on="1"/>
      </contour>
    </TTGlyph>
    <TTGlyph name="Nacute" xMin="87" yMin="0" xMax="593" yMax="916">
      <contour>
        <pt x="324" y="793" on="1"/>
        <pt x="403" y="916" on="1"/>
        <pt x="443" y="916" on="1"/>
        <pt x="357" y="789" on="1"/>
      </contour>
      <contour>
        <pt x="87" y="740" on="1"/>
        <pt x="127" y="740" on="1"/>
        <pt x="502" y="148" on="1"/>
        <pt x="553" y="62" on="1"/>
        <pt x="558" y="63" on="1"/>
        <pt x="558" y="740" on="1"/>
        <pt x="593" y="740" on="1"/>
        <pt x="593" y="0" on="1"/>
        <pt x="552" y="0" on="1"/>
        <pt x="179" y="589" on="1"/>
        <pt x="127" y="677" on="1"/>
        <pt x="123" y="676" on="1"/>
        <pt x="123" y="0" on="1"/>
        <pt x="87" y="0" on="1"/>
      </contour>
    </TTGlyph>
    <TTGlyph name="Nacute.sc" xMin="82" yMin="0" xMax="521" yMax="719">
      <contour>
        <pt x="82" y="577" on="1"/>
        <pt x="120" y="577" on="1"/>
        <pt x="438" y="129" on="1"/>
        <pt x="482" y="61" on="1"/>
        <pt x="486" y="61" on="1"/>
        <pt x="486" y="577" on="1"/>
        <pt x="521" y="577" on="1"/>
        <pt x="521" y="0" on="1"/>
        <pt x="483" y="0" on="1"/>
        <pt x="165" y="448" on="1"/>
        <pt x="121" y="515" on="1"/>
        <pt x="117" y="515" on="1"/>
        <pt x="117" y="0" on="1"/>
        <pt x="82" y="0" on="1"/>
      </contour>
      <contour>
        <pt x="285" y="620" on="1"/>
        <pt x="352" y="719" on="1"/>
        <pt x="391" y="719" on="1"/>
        <pt x="318" y="617" on="1"/>
      </contour>
    </TTGlyph>
    <TTGlyph name="Ncaron" xMin="87" yMin="0" xMax="593" yMax="918">
      <contour>
        <pt x="219" y="918" on="1"/>
        <pt x="348" y="846" on="1"/>
        <pt x="477" y="918" on="1"/>
        <pt x="477" y="876" on="1"/>
        <pt x="348" y="804" on="1"/>
        <pt x="219" y="876" on="1"/>
      </contour>
      <contour>
        <pt x="87" y="740" on="1"/>
        <pt x="127" y="740" on="1"/>
        <pt x="502" y="148" on="1"/>
        <pt x="553" y="62" on="1"/>
        <pt x="558" y="63" on="1"/>
        <pt x="558" y="740" on="1"/>
        <pt x="593" y="740" on="1"/>
        <pt x="593" y="0" on="1"/>
        <pt x="552" y="0" on="1"/>
        <pt x="179" y="589" on="1"/>
        <pt x="127" y="677" on="1"/>
        <pt x="123" y="676" on="1"/>
        <pt x="123" y="0" on="1"/>
        <pt x="87" y="0" on="1"/>
      </contour>
    </TTGlyph>
    <TTGlyph name="Ncaron.sc" xMin="82" yMin="0" xMax="521" yMax="720">
      <contour>
        <pt x="82" y="577" on="1"/>
        <pt x="120" y="577" on="1"/>
        <pt x="438" y="129" on="1"/>
        <pt x="482" y="61" on="1"/>
        <pt x="486" y="61" on="1"/>
        <pt x="486" y="577" on="1"/>
        <pt x="521" y="577" on="1"/>
        <pt x="521" y="0" on="1"/>
        <pt x="483" y="0" on="1"/>
        <pt x="165" y="448" on="1"/>
        <pt x="121" y="515" on="1"/>
        <pt x="117" y="515" on="1"/>
        <pt x="117" y="0" on="1"/>
        <pt x="82" y="0" on="1"/>
      </contour>
      <contour>
        <pt x="195" y="684" on="1"/>
        <pt x="195" y="720" on="1"/>
        <pt x="308" y="664" on="1"/>
        <pt x="421" y="720" on="1"/>
        <pt x="421" y="684" on="1"/>
        <pt x="308" y="627" on="1"/>
      </contour>
    </TTGlyph>
    <TTGlyph name="Ncommaaccent" xMin="87" yMin="-220" xMax="593" yMax="740">
      <contour>
        <pt x="352" y="-67" on="1"/>
        <pt x="390" y="-67" on="1"/>
        <pt x="337" y="-220" on="1"/>
        <pt x="300" y="-220" on="1"/>
      </contour>
      <contour>
        <pt x="87" y="740" on="1"/>
        <pt x="127" y="740" on="1"/>
        <pt x="502" y="148" on="1"/>
        <pt x="553" y="62" on="1"/>
        <pt x="558" y="63" on="1"/>
        <pt x="558" y="740" on="1"/>
        <pt x="593" y="740" on="1"/>
        <pt x="593" y="0" on="1"/>
        <pt x="552" y="0" on="1"/>
        <pt x="179" y="589" on="1"/>
        <pt x="127" y="677" on="1"/>
        <pt x="123" y="676" on="1"/>
        <pt x="123" y="0" on="1"/>
        <pt x="87" y="0" on="1"/>
      </contour>
    </TTGlyph>
    <TTGlyph name="Ncommaaccent.sc" xMin="82" yMin="-172" xMax="521" yMax="577">
      <contour>
        <pt x="82" y="577" on="1"/>
        <pt x="120" y="577" on="1"/>
        <pt x="438" y="129" on="1"/>
        <pt x="482" y="61" on="1"/>
        <pt x="486" y="61" on="1"/>
        <pt x="486" y="577" on="1"/>
        <pt x="521" y="577" on="1"/>
        <pt x="521" y="0" on="1"/>
        <pt x="483" y="0" on="1"/>
        <pt x="165" y="448" on="1"/>
        <pt x="121" y="515" on="1"/>
        <pt x="117" y="515" on="1"/>
        <pt x="117" y="0" on="1"/>
        <pt x="82" y="0" on="1"/>
      </contour>
      <contour>
        <pt x="307" y="-53" on="1"/>
        <pt x="345" y="-53" on="1"/>
        <pt x="299" y="-172" on="1"/>
        <pt x="264" y="-172" on="1"/>
      </contour>
    </TTGlyph>
    <TTGlyph name="Ndotaccent" xMin="87" yMin="0" xMax="593" yMax="869">
      <contour>
        <pt x="345" y="806" on="1"/>
        <pt x="332" y="806" on="0"/>
        <pt x="314" y="821" on="0"/>
        <pt x="314" y="837" on="1"/>
        <pt x="314" y="854" on="0"/>
        <pt x="332" y="869" on="0"/>
        <pt x="345" y="869" on="1"/>
        <pt x="358" y="869" on="0"/>
        <pt x="377" y="854" on="0"/>
        <pt x="377" y="837" on="1"/>
        <pt x="377" y="820" on="0"/>
        <pt x="358" y="806" on="0"/>
      </contour>
      <contour>
        <pt x="87" y="740" on="1"/>
        <pt x="127" y="740" on="1"/>
        <pt x="502" y="148" on="1"/>
        <pt x="553" y="62" on="1"/>
        <pt x="558" y="63" on="1"/>
        <pt x="558" y="740" on="1"/>
        <pt x="593" y="740" on="1"/>
        <pt x="593" y="0" on="1"/>
        <pt x="552" y="0" on="1"/>
        <pt x="179" y="589" on="1"/>
        <pt x="127" y="677" on="1"/>
        <pt x="123" y="676" on="1"/>
        <pt x="123" y="0" on="1"/>
        <pt x="87" y="0" on="1"/>
      </contour>
    </TTGlyph>
    <TTGlyph name="Ndotaccent.sc" xMin="82" yMin="0" xMax="521" yMax="685">
      <contour>
        <pt x="82" y="577" on="1"/>
        <pt x="120" y="577" on="1"/>
        <pt x="438" y="129" on="1"/>
        <pt x="482" y="61" on="1"/>
        <pt x="486" y="61" on="1"/>
        <pt x="486" y="577" on="1"/>
        <pt x="521" y="577" on="1"/>
        <pt x="521" y="0" on="1"/>
        <pt x="483" y="0" on="1"/>
        <pt x="165" y="448" on="1"/>
        <pt x="121" y="515" on="1"/>
        <pt x="117" y="515" on="1"/>
        <pt x="117" y="0" on="1"/>
        <pt x="82" y="0" on="1"/>
      </contour>
      <contour>
        <pt x="305" y="629" on="1"/>
        <pt x="293" y="629" on="0"/>
        <pt x="276" y="643" on="0"/>
        <pt x="276" y="658" on="1"/>
        <pt x="276" y="672" on="0"/>
        <pt x="293" y="685" on="0"/>
        <pt x="305" y="685" on="1"/>
        <pt x="318" y="685" on="0"/>
        <pt x="335" y="672" on="0"/>
        <pt x="335" y="658" on="1"/>
        <pt x="335" y="643" on="0"/>
        <pt x="318" y="629" on="0"/>
      </contour>
    </TTGlyph>
    <TTGlyph name="Ntilde" xMin="87" yMin="0" xMax="593" yMax="904">
      <contour>
        <pt x="193" y="854" on="1"/>
        <pt x="210" y="874" on="0"/>
        <pt x="260" y="904" on="0"/>
        <pt x="285" y="904" on="1"/>
        <pt x="305" y="904" on="0"/>
        <pt x="337" y="891" on="0"/>
        <pt x="367" y="874" on="0"/>
        <pt x="397" y="861" on="0"/>
        <pt x="415" y="861" on="1"/>
        <pt x="433" y="861" on="0"/>
        <pt x="466" y="882" on="0"/>
        <pt x="478" y="900" on="1"/>
        <pt x="505" y="879" on="1"/>
        <pt x="491" y="856" on="0"/>
        <pt x="440" y="826" on="0"/>
        <pt x="414" y="826" on="1"/>
        <pt x="395" y="826" on="0"/>
        <pt x="362" y="839" on="0"/>
        <pt x="332" y="856" on="0"/>
        <pt x="302" y="869" on="0"/>
        <pt x="285" y="869" on="1"/>
        <pt x="267" y="869" on="0"/>
        <pt x="231" y="847" on="0"/>
        <pt x="217" y="830" on="1"/>
      </contour>
      <contour>
        <pt x="87" y="740" on="1"/>
        <pt x="127" y="740" on="1"/>
        <pt x="502" y="148" on="1"/>
        <pt x="553" y="62" on="1"/>
        <pt x="558" y="63" on="1"/>
        <pt x="558" y="740" on="1"/>
        <pt x="593" y="740" on="1"/>
        <pt x="593" y="0" on="1"/>
        <pt x="552" y="0" on="1"/>
        <pt x="179" y="589" on="1"/>
        <pt x="127" y="677" on="1"/>
        <pt x="123" y="676" on="1"/>
        <pt x="123" y="0" on="1"/>
        <pt x="87" y="0" on="1"/>
      </contour>
    </TTGlyph>
    <TTGlyph name="Ntilde.sc" xMin="82" yMin="0" xMax="521" yMax="709">
      <contour>
        <pt x="172" y="666" on="1"/>
        <pt x="188" y="684" on="0"/>
        <pt x="231" y="709" on="0"/>
        <pt x="254" y="709" on="1"/>
        <pt x="271" y="709" on="0"/>
        <pt x="299" y="699" on="0"/>
        <pt x="325" y="686" on="0"/>
        <pt x="352" y="676" on="0"/>
        <pt x="367" y="676" on="1"/>
        <pt x="399" y="676" on="0"/>
        <pt x="424" y="706" on="1"/>
        <pt x="446" y="690" on="1"/>
        <pt x="432" y="669" on="0"/>
        <pt x="388" y="644" on="0"/>
        <pt x="365" y="644" on="1"/>
        <pt x="348" y="644" on="0"/>
        <pt x="320" y="655" on="0"/>
        <pt x="293" y="667" on="0"/>
        <pt x="267" y="678" on="0"/>
        <pt x="252" y="678" on="1"/>
        <pt x="236" y="678" on="0"/>
        <pt x="205" y="661" on="0"/>
        <pt x="192" y="647" on="1"/>
      </contour>
      <contour>
        <pt x="82" y="577" on="1"/>
        <pt x="120" y="577" on="1"/>
        <pt x="438" y="129" on="1"/>
        <pt x="482" y="61" on="1"/>
        <pt x="486" y="61" on="1"/>
        <pt x="486" y="577" on="1"/>
        <pt x="521" y="577" on="1"/>
        <pt x="521" y="0" on="1"/>
        <pt x="483" y="0" on="1"/>
        <pt x="165" y="448" on="1"/>
        <pt x="121" y="515" on="1"/>
        <pt x="117" y="515" on="1"/>
        <pt x="117" y="0" on="1"/>
        <pt x="82" y="0" on="1"/>
      </contour>
    </TTGlyph>
    <TTGlyph name="O" xMin="52" yMin="-10" xMax="579" yMax="750">
      <contour>
        <pt x="315" y="-10" on="1"/>
        <pt x="184" y="-10" on="0"/>
        <pt x="52" y="179" on="0"/>
        <pt x="52" y="369" on="1"/>
        <pt x="52" y="561" on="0"/>
        <pt x="184" y="750" on="0"/>
        <pt x="315" y="750" on="1"/>
        <pt x="446" y="750" on="0"/>
        <pt x="579" y="560" on="0"/>
        <pt x="579" y="369" on="1"/>
        <pt x="579" y="180" on="0"/>
        <pt x="445" y="-10" on="0"/>
      </contour>
      <contour>
        <pt x="315" y="26" on="1"/>
        <pt x="430" y="26" on="0"/>
        <pt x="542" y="195" on="0"/>
        <pt x="542" y="369" on="1"/>
        <pt x="542" y="714" on="0"/>
        <pt x="315" y="714" on="1"/>
        <pt x="201" y="714" on="0"/>
        <pt x="88" y="544" on="0"/>
        <pt x="88" y="369" on="1"/>
        <pt x="88" y="193" on="0"/>
        <pt x="200" y="26" on="0"/>
      </contour>
    </TTGlyph>
    <TTGlyph name="O.sc" xMin="51" yMin="-8" xMax="509" yMax="585">
      <contour>
        <pt x="281" y="-8" on="1"/>
        <pt x="167" y="-8" on="0"/>
        <pt x="51" y="139" on="0"/>
        <pt x="51" y="288" on="1"/>
        <pt x="51" y="437" on="0"/>
        <pt x="167" y="585" on="0"/>
        <pt x="281" y="585" on="1"/>
        <pt x="393" y="585" on="0"/>
        <pt x="509" y="437" on="0"/>
        <pt x="509" y="288" on="1"/>
        <pt x="509" y="140" on="0"/>
        <pt x="393" y="-8" on="0"/>
      </contour>
      <contour>
        <pt x="281" y="26" on="1"/>
        <pt x="474" y="26" on="0"/>
        <pt x="474" y="288" on="1"/>
        <pt x="474" y="551" on="0"/>
        <pt x="281" y="551" on="1"/>
        <pt x="183" y="551" on="0"/>
        <pt x="87" y="422" on="0"/>
        <pt x="87" y="288" on="1"/>
        <pt x="87" y="154" on="0"/>
        <pt x="182" y="26" on="0"/>
      </contour>
    </TTGlyph>
    <TTGlyph name="OE" xMin="53" yMin="-4" xMax="753" yMax="744">
      <contour>
        <pt x="317" y="-4" on="1"/>
        <pt x="186" y="-4" on="0"/>
        <pt x="53" y="182" on="0"/>
        <pt x="53" y="369" on="1"/>
        <pt x="53" y="557" on="0"/>
        <pt x="186" y="744" on="0"/>
        <pt x="317" y="744" on="1"/>
        <pt x="337" y="744" on="0"/>
        <pt x="386" y="742" on="0"/>
        <pt x="403" y="740" on="1"/>
        <pt x="745" y="740" on="1"/>
        <pt x="745" y="704" on="1"/>
        <pt x="436" y="704" on="1"/>
        <pt x="436" y="394" on="1"/>
        <pt x="716" y="394" on="1"/>
        <pt x="716" y="359" on="1"/>
        <pt x="436" y="359" on="1"/>
        <pt x="436" y="36" on="1"/>
        <pt x="753" y="36" on="1"/>
        <pt x="753" y="0" on="1"/>
        <pt x="403" y="0" on="1"/>
        <pt x="386" y="-2" on="0"/>
        <pt x="337" y="-4" on="0"/>
      </contour>
      <contour>
        <pt x="317" y="32" on="1"/>
        <pt x="336" y="32" on="0"/>
        <pt x="383" y="34" on="0"/>
        <pt x="400" y="36" on="1"/>
        <pt x="400" y="703" on="1"/>
        <pt x="383" y="706" on="0"/>
        <pt x="337" y="708" on="0"/>
        <pt x="317" y="708" on="1"/>
        <pt x="202" y="708" on="0"/>
        <pt x="89" y="541" on="0"/>
        <pt x="89" y="369" on="1"/>
        <pt x="89" y="196" on="0"/>
        <pt x="201" y="32" on="0"/>
      </contour>
    </TTGlyph>
    <TTGlyph name="OE.sc" xMin="51" yMin="-4" xMax="664" yMax="581">
      <contour>
        <pt x="283" y="-4" on="1"/>
        <pt x="168" y="-4" on="0"/>
        <pt x="51" y="142" on="0"/>
        <pt x="51" y="288" on="1"/>
        <pt x="51" y="434" on="0"/>
        <pt x="168" y="581" on="0"/>
        <pt x="283" y="581" on="1"/>
        <pt x="300" y="581" on="0"/>
        <pt x="342" y="579" on="0"/>
        <pt x="357" y="577" on="1"/>
        <pt x="656" y="577" on="1"/>
        <pt x="656" y="544" on="1"/>
        <pt x="391" y="544" on="1"/>
        <pt x="391" y="311" on="1"/>
        <pt x="633" y="311" on="1"/>
        <pt x="633" y="277" on="1"/>
        <pt x="391" y="277" on="1"/>
        <pt x="391" y="34" on="1"/>
        <pt x="664" y="34" on="1"/>
        <pt x="664" y="0" on="1"/>
        <pt x="357" y="0" on="1"/>
        <pt x="343" y="-2" on="0"/>
        <pt x="300" y="-4" on="0"/>
      </contour>
      <contour>
        <pt x="283" y="30" on="1"/>
        <pt x="300" y="30" on="0"/>
        <pt x="340" y="32" on="0"/>
        <pt x="355" y="35" on="1"/>
        <pt x="355" y="542" on="1"/>
        <pt x="340" y="545" on="0"/>
        <pt x="300" y="547" on="0"/>
        <pt x="283" y="547" on="1"/>
        <pt x="183" y="547" on="0"/>
        <pt x="87" y="420" on="0"/>
        <pt x="87" y="288" on="1"/>
        <pt x="87" y="156" on="0"/>
        <pt x="183" y="30" on="0"/>
      </contour>
    </TTGlyph>
</ttFont>
